G04 #@! TF.GenerationSoftware,KiCad,Pcbnew,(5.1.2)-1*
G04 #@! TF.CreationDate,2020-03-13T00:19:03-07:00*
G04 #@! TF.ProjectId,progrmmable-load,70726f67-726d-46d6-9162-6c652d6c6f61,rev?*
G04 #@! TF.SameCoordinates,Original*
G04 #@! TF.FileFunction,Legend,Top*
G04 #@! TF.FilePolarity,Positive*
%FSLAX46Y46*%
G04 Gerber Fmt 4.6, Leading zero omitted, Abs format (unit mm)*
G04 Created by KiCad (PCBNEW (5.1.2)-1) date 2020-03-13 00:19:03*
%MOMM*%
%LPD*%
G04 APERTURE LIST*
%ADD10C,0.150000*%
%ADD11C,0.120000*%
%ADD12C,0.100000*%
%ADD13C,0.152400*%
%ADD14C,0.015000*%
G04 APERTURE END LIST*
D10*
X160925238Y-117102380D02*
X160925238Y-116102380D01*
X161496666Y-117102380D02*
X161068095Y-116530952D01*
X161496666Y-116102380D02*
X160925238Y-116673809D01*
X161925238Y-117007142D02*
X161972857Y-117054761D01*
X161925238Y-117102380D01*
X161877619Y-117054761D01*
X161925238Y-117007142D01*
X161925238Y-117102380D01*
X163163333Y-117102380D02*
X163163333Y-116102380D01*
X163401428Y-116102380D01*
X163544285Y-116150000D01*
X163639523Y-116245238D01*
X163687142Y-116340476D01*
X163734761Y-116530952D01*
X163734761Y-116673809D01*
X163687142Y-116864285D01*
X163639523Y-116959523D01*
X163544285Y-117054761D01*
X163401428Y-117102380D01*
X163163333Y-117102380D01*
X164544285Y-117054761D02*
X164449047Y-117102380D01*
X164258571Y-117102380D01*
X164163333Y-117054761D01*
X164115714Y-116959523D01*
X164115714Y-116578571D01*
X164163333Y-116483333D01*
X164258571Y-116435714D01*
X164449047Y-116435714D01*
X164544285Y-116483333D01*
X164591904Y-116578571D01*
X164591904Y-116673809D01*
X164115714Y-116769047D01*
X164972857Y-117054761D02*
X165068095Y-117102380D01*
X165258571Y-117102380D01*
X165353809Y-117054761D01*
X165401428Y-116959523D01*
X165401428Y-116911904D01*
X165353809Y-116816666D01*
X165258571Y-116769047D01*
X165115714Y-116769047D01*
X165020476Y-116721428D01*
X164972857Y-116626190D01*
X164972857Y-116578571D01*
X165020476Y-116483333D01*
X165115714Y-116435714D01*
X165258571Y-116435714D01*
X165353809Y-116483333D01*
X166258571Y-117102380D02*
X166258571Y-116578571D01*
X166210952Y-116483333D01*
X166115714Y-116435714D01*
X165925238Y-116435714D01*
X165830000Y-116483333D01*
X166258571Y-117054761D02*
X166163333Y-117102380D01*
X165925238Y-117102380D01*
X165830000Y-117054761D01*
X165782380Y-116959523D01*
X165782380Y-116864285D01*
X165830000Y-116769047D01*
X165925238Y-116721428D01*
X166163333Y-116721428D01*
X166258571Y-116673809D01*
X166734761Y-117102380D02*
X166734761Y-116435714D01*
X166734761Y-116102380D02*
X166687142Y-116150000D01*
X166734761Y-116197619D01*
X166782380Y-116150000D01*
X166734761Y-116102380D01*
X166734761Y-116197619D01*
X154234761Y-118752380D02*
X154234761Y-117752380D01*
X154615714Y-117752380D01*
X154710952Y-117800000D01*
X154758571Y-117847619D01*
X154806190Y-117942857D01*
X154806190Y-118085714D01*
X154758571Y-118180952D01*
X154710952Y-118228571D01*
X154615714Y-118276190D01*
X154234761Y-118276190D01*
X155234761Y-118752380D02*
X155234761Y-118085714D01*
X155234761Y-118276190D02*
X155282380Y-118180952D01*
X155330000Y-118133333D01*
X155425238Y-118085714D01*
X155520476Y-118085714D01*
X155996666Y-118752380D02*
X155901428Y-118704761D01*
X155853809Y-118657142D01*
X155806190Y-118561904D01*
X155806190Y-118276190D01*
X155853809Y-118180952D01*
X155901428Y-118133333D01*
X155996666Y-118085714D01*
X156139523Y-118085714D01*
X156234761Y-118133333D01*
X156282380Y-118180952D01*
X156330000Y-118276190D01*
X156330000Y-118561904D01*
X156282380Y-118657142D01*
X156234761Y-118704761D01*
X156139523Y-118752380D01*
X155996666Y-118752380D01*
X157187142Y-118085714D02*
X157187142Y-118895238D01*
X157139523Y-118990476D01*
X157091904Y-119038095D01*
X156996666Y-119085714D01*
X156853809Y-119085714D01*
X156758571Y-119038095D01*
X157187142Y-118704761D02*
X157091904Y-118752380D01*
X156901428Y-118752380D01*
X156806190Y-118704761D01*
X156758571Y-118657142D01*
X156710952Y-118561904D01*
X156710952Y-118276190D01*
X156758571Y-118180952D01*
X156806190Y-118133333D01*
X156901428Y-118085714D01*
X157091904Y-118085714D01*
X157187142Y-118133333D01*
X157663333Y-118752380D02*
X157663333Y-118085714D01*
X157663333Y-118276190D02*
X157710952Y-118180952D01*
X157758571Y-118133333D01*
X157853809Y-118085714D01*
X157949047Y-118085714D01*
X158710952Y-118752380D02*
X158710952Y-118228571D01*
X158663333Y-118133333D01*
X158568095Y-118085714D01*
X158377619Y-118085714D01*
X158282380Y-118133333D01*
X158710952Y-118704761D02*
X158615714Y-118752380D01*
X158377619Y-118752380D01*
X158282380Y-118704761D01*
X158234761Y-118609523D01*
X158234761Y-118514285D01*
X158282380Y-118419047D01*
X158377619Y-118371428D01*
X158615714Y-118371428D01*
X158710952Y-118323809D01*
X159187142Y-118752380D02*
X159187142Y-118085714D01*
X159187142Y-118180952D02*
X159234761Y-118133333D01*
X159330000Y-118085714D01*
X159472857Y-118085714D01*
X159568095Y-118133333D01*
X159615714Y-118228571D01*
X159615714Y-118752380D01*
X159615714Y-118228571D02*
X159663333Y-118133333D01*
X159758571Y-118085714D01*
X159901428Y-118085714D01*
X159996666Y-118133333D01*
X160044285Y-118228571D01*
X160044285Y-118752380D01*
X160520476Y-118752380D02*
X160520476Y-118085714D01*
X160520476Y-118180952D02*
X160568095Y-118133333D01*
X160663333Y-118085714D01*
X160806190Y-118085714D01*
X160901428Y-118133333D01*
X160949047Y-118228571D01*
X160949047Y-118752380D01*
X160949047Y-118228571D02*
X160996666Y-118133333D01*
X161091904Y-118085714D01*
X161234761Y-118085714D01*
X161330000Y-118133333D01*
X161377619Y-118228571D01*
X161377619Y-118752380D01*
X162282380Y-118752380D02*
X162282380Y-118228571D01*
X162234761Y-118133333D01*
X162139523Y-118085714D01*
X161949047Y-118085714D01*
X161853809Y-118133333D01*
X162282380Y-118704761D02*
X162187142Y-118752380D01*
X161949047Y-118752380D01*
X161853809Y-118704761D01*
X161806190Y-118609523D01*
X161806190Y-118514285D01*
X161853809Y-118419047D01*
X161949047Y-118371428D01*
X162187142Y-118371428D01*
X162282380Y-118323809D01*
X162758571Y-118752380D02*
X162758571Y-117752380D01*
X162758571Y-118133333D02*
X162853809Y-118085714D01*
X163044285Y-118085714D01*
X163139523Y-118133333D01*
X163187142Y-118180952D01*
X163234761Y-118276190D01*
X163234761Y-118561904D01*
X163187142Y-118657142D01*
X163139523Y-118704761D01*
X163044285Y-118752380D01*
X162853809Y-118752380D01*
X162758571Y-118704761D01*
X163806190Y-118752380D02*
X163710952Y-118704761D01*
X163663333Y-118609523D01*
X163663333Y-117752380D01*
X164568095Y-118704761D02*
X164472857Y-118752380D01*
X164282380Y-118752380D01*
X164187142Y-118704761D01*
X164139523Y-118609523D01*
X164139523Y-118228571D01*
X164187142Y-118133333D01*
X164282380Y-118085714D01*
X164472857Y-118085714D01*
X164568095Y-118133333D01*
X164615714Y-118228571D01*
X164615714Y-118323809D01*
X164139523Y-118419047D01*
X166282380Y-118752380D02*
X165806190Y-118752380D01*
X165806190Y-117752380D01*
X166758571Y-118752380D02*
X166663333Y-118704761D01*
X166615714Y-118657142D01*
X166568095Y-118561904D01*
X166568095Y-118276190D01*
X166615714Y-118180952D01*
X166663333Y-118133333D01*
X166758571Y-118085714D01*
X166901428Y-118085714D01*
X166996666Y-118133333D01*
X167044285Y-118180952D01*
X167091904Y-118276190D01*
X167091904Y-118561904D01*
X167044285Y-118657142D01*
X166996666Y-118704761D01*
X166901428Y-118752380D01*
X166758571Y-118752380D01*
X167949047Y-118752380D02*
X167949047Y-118228571D01*
X167901428Y-118133333D01*
X167806190Y-118085714D01*
X167615714Y-118085714D01*
X167520476Y-118133333D01*
X167949047Y-118704761D02*
X167853809Y-118752380D01*
X167615714Y-118752380D01*
X167520476Y-118704761D01*
X167472857Y-118609523D01*
X167472857Y-118514285D01*
X167520476Y-118419047D01*
X167615714Y-118371428D01*
X167853809Y-118371428D01*
X167949047Y-118323809D01*
X168853809Y-118752380D02*
X168853809Y-117752380D01*
X168853809Y-118704761D02*
X168758571Y-118752380D01*
X168568095Y-118752380D01*
X168472857Y-118704761D01*
X168425238Y-118657142D01*
X168377619Y-118561904D01*
X168377619Y-118276190D01*
X168425238Y-118180952D01*
X168472857Y-118133333D01*
X168568095Y-118085714D01*
X168758571Y-118085714D01*
X168853809Y-118133333D01*
X170044285Y-117847619D02*
X170091904Y-117800000D01*
X170187142Y-117752380D01*
X170425238Y-117752380D01*
X170520476Y-117800000D01*
X170568095Y-117847619D01*
X170615714Y-117942857D01*
X170615714Y-118038095D01*
X170568095Y-118180952D01*
X169996666Y-118752380D01*
X170615714Y-118752380D01*
X171234761Y-117752380D02*
X171330000Y-117752380D01*
X171425238Y-117800000D01*
X171472857Y-117847619D01*
X171520476Y-117942857D01*
X171568095Y-118133333D01*
X171568095Y-118371428D01*
X171520476Y-118561904D01*
X171472857Y-118657142D01*
X171425238Y-118704761D01*
X171330000Y-118752380D01*
X171234761Y-118752380D01*
X171139523Y-118704761D01*
X171091904Y-118657142D01*
X171044285Y-118561904D01*
X170996666Y-118371428D01*
X170996666Y-118133333D01*
X171044285Y-117942857D01*
X171091904Y-117847619D01*
X171139523Y-117800000D01*
X171234761Y-117752380D01*
X171949047Y-117847619D02*
X171996666Y-117800000D01*
X172091904Y-117752380D01*
X172330000Y-117752380D01*
X172425238Y-117800000D01*
X172472857Y-117847619D01*
X172520476Y-117942857D01*
X172520476Y-118038095D01*
X172472857Y-118180952D01*
X171901428Y-118752380D01*
X172520476Y-118752380D01*
X173139523Y-117752380D02*
X173234761Y-117752380D01*
X173330000Y-117800000D01*
X173377619Y-117847619D01*
X173425238Y-117942857D01*
X173472857Y-118133333D01*
X173472857Y-118371428D01*
X173425238Y-118561904D01*
X173377619Y-118657142D01*
X173330000Y-118704761D01*
X173234761Y-118752380D01*
X173139523Y-118752380D01*
X173044285Y-118704761D01*
X172996666Y-118657142D01*
X172949047Y-118561904D01*
X172901428Y-118371428D01*
X172901428Y-118133333D01*
X172949047Y-117942857D01*
X172996666Y-117847619D01*
X173044285Y-117800000D01*
X173139523Y-117752380D01*
D11*
X178276000Y-104219000D02*
X174276000Y-104219000D01*
X121498000Y-138771000D02*
G75*
G03X121498000Y-138771000I-3000000J0D01*
G01*
X120498000Y-132871000D02*
X124598000Y-132871000D01*
X124598000Y-144671000D02*
X120498000Y-144671000D01*
X116498000Y-144671000D02*
X112398000Y-144671000D01*
X116498000Y-132871000D02*
X112398000Y-132871000D01*
X112398000Y-132871000D02*
X112398000Y-144671000D01*
X110998000Y-134971000D02*
X110698000Y-134671000D01*
X110698000Y-134671000D02*
X111298000Y-134671000D01*
X111298000Y-134671000D02*
X110998000Y-134971000D01*
X124598000Y-132871000D02*
X124598000Y-135271000D01*
X124598000Y-137471000D02*
X124598000Y-140071000D01*
X124598000Y-142271000D02*
X124598000Y-144671000D01*
X118498000Y-138271000D02*
X118498000Y-139271000D01*
X117998000Y-138771000D02*
X118998000Y-138771000D01*
X108080000Y-99565000D02*
X90040000Y-99565000D01*
X108080000Y-143005000D02*
X108080000Y-99565000D01*
X90040000Y-143005000D02*
X108080000Y-143005000D01*
D12*
X95250000Y-145415000D02*
X95250000Y-135255000D01*
X102870000Y-145415000D02*
X95250000Y-145415000D01*
X102870000Y-135255000D02*
X102870000Y-145415000D01*
X95250000Y-135255000D02*
X102870000Y-135255000D01*
D11*
X92710000Y-140335000D02*
X90040000Y-140335000D01*
X92710000Y-104775000D02*
X92710000Y-140335000D01*
X92710000Y-104775000D02*
X90040000Y-104775000D01*
X105410000Y-140335000D02*
X108080000Y-140335000D01*
X105410000Y-102235000D02*
X105410000Y-140335000D01*
X105410000Y-102235000D02*
X108080000Y-102235000D01*
X90040000Y-99565000D02*
X90040000Y-102235000D01*
X90040000Y-104775000D02*
X90040000Y-143005000D01*
X92710000Y-102235000D02*
X90040000Y-102235000D01*
X92710000Y-104775000D02*
X92710000Y-102235000D01*
X174246000Y-109001779D02*
X174246000Y-108676221D01*
X173226000Y-109001779D02*
X173226000Y-108676221D01*
X166626000Y-109001779D02*
X166626000Y-108676221D01*
X165606000Y-109001779D02*
X165606000Y-108676221D01*
X173712000Y-124587000D02*
X169212000Y-124587000D01*
X155472000Y-124587000D02*
X159972000Y-124587000D01*
X169212000Y-122867000D02*
X159972000Y-122867000D01*
X169212000Y-126307000D02*
X169212000Y-122867000D01*
X159972000Y-126307000D02*
X169212000Y-126307000D01*
X159972000Y-122867000D02*
X159972000Y-126307000D01*
X180086000Y-144061000D02*
G75*
G03X180086000Y-133561000I0J5250000D01*
G01*
X150086000Y-133561000D02*
G75*
G03X150086000Y-144061000I0J-5250000D01*
G01*
X150086000Y-144061000D02*
X180086000Y-144061000D01*
X180086000Y-133561000D02*
X150086000Y-133561000D01*
X168484000Y-133677000D02*
X168084000Y-133677000D01*
X168484000Y-134317000D02*
X168484000Y-133677000D01*
X162464000Y-140657000D02*
X162464000Y-133917000D01*
X168244000Y-140657000D02*
X168244000Y-133917000D01*
X168244000Y-133917000D02*
X162464000Y-133917000D01*
X168244000Y-140657000D02*
X162464000Y-140657000D01*
X168244000Y-139537000D02*
X162464000Y-139537000D01*
X168244000Y-134437000D02*
X162464000Y-134437000D01*
D13*
X130911600Y-115887500D02*
X130657600Y-115887500D01*
X130911600Y-115506500D02*
X130911600Y-115887500D01*
X130657600Y-115506500D02*
X130911600Y-115506500D01*
X130657600Y-115887500D02*
X130657600Y-115506500D01*
X132486400Y-121475500D02*
X136753600Y-121475500D01*
X136753600Y-112458500D02*
X132486400Y-112458500D01*
X125476000Y-127990600D02*
X123444000Y-127990600D01*
X123444000Y-131343400D02*
X125476000Y-131343400D01*
D11*
X128107221Y-118239000D02*
X128432779Y-118239000D01*
X128107221Y-117219000D02*
X128432779Y-117219000D01*
X128640721Y-131193000D02*
X128966279Y-131193000D01*
X128640721Y-130173000D02*
X128966279Y-130173000D01*
X128107221Y-123573000D02*
X128432779Y-123573000D01*
X128107221Y-122553000D02*
X128432779Y-122553000D01*
X132471279Y-130173000D02*
X132145721Y-130173000D01*
X132471279Y-131193000D02*
X132145721Y-131193000D01*
X128107221Y-116461000D02*
X128432779Y-116461000D01*
X128107221Y-115441000D02*
X128432779Y-115441000D01*
X128107221Y-120017000D02*
X128432779Y-120017000D01*
X128107221Y-118997000D02*
X128432779Y-118997000D01*
X128107221Y-114683000D02*
X128432779Y-114683000D01*
X128107221Y-113663000D02*
X128432779Y-113663000D01*
X128107221Y-112905000D02*
X128432779Y-112905000D01*
X128107221Y-111885000D02*
X128432779Y-111885000D01*
X128432779Y-110107000D02*
X128107221Y-110107000D01*
X128432779Y-111127000D02*
X128107221Y-111127000D01*
X142496000Y-112049779D02*
X142496000Y-111724221D01*
X141476000Y-112049779D02*
X141476000Y-111724221D01*
X148080000Y-115026221D02*
X148080000Y-115351779D01*
X149100000Y-115026221D02*
X149100000Y-115351779D01*
X148080000Y-111724221D02*
X148080000Y-112049779D01*
X149100000Y-111724221D02*
X149100000Y-112049779D01*
X122680000Y-126202221D02*
X122680000Y-126527779D01*
X123700000Y-126202221D02*
X123700000Y-126527779D01*
X120902000Y-126202221D02*
X120902000Y-126527779D01*
X121922000Y-126202221D02*
X121922000Y-126527779D01*
X184880000Y-123771000D02*
X183370000Y-123771000D01*
X184880000Y-120070000D02*
X183370000Y-120070000D01*
X183370000Y-116800000D02*
X183370000Y-127040000D01*
X184880000Y-127040000D02*
X180239000Y-127040000D01*
X184880000Y-116800000D02*
X180239000Y-116800000D01*
X180239000Y-116800000D02*
X180239000Y-127040000D01*
X184880000Y-116800000D02*
X184880000Y-127040000D01*
X132496779Y-131951000D02*
X132171221Y-131951000D01*
X132496779Y-132971000D02*
X132171221Y-132971000D01*
X128107221Y-121795000D02*
X128432779Y-121795000D01*
X128107221Y-120775000D02*
X128432779Y-120775000D01*
X128432779Y-108329000D02*
X128107221Y-108329000D01*
X128432779Y-109349000D02*
X128107221Y-109349000D01*
X143508000Y-111724221D02*
X143508000Y-112049779D01*
X144528000Y-111724221D02*
X144528000Y-112049779D01*
X141386779Y-116457000D02*
X141061221Y-116457000D01*
X141386779Y-117477000D02*
X141061221Y-117477000D01*
X110488000Y-110200221D02*
X110488000Y-110525779D01*
X111508000Y-110200221D02*
X111508000Y-110525779D01*
X128940779Y-128141000D02*
X128615221Y-128141000D01*
X128940779Y-129161000D02*
X128615221Y-129161000D01*
D10*
X112464666Y-131975761D02*
X112607523Y-132023380D01*
X112845619Y-132023380D01*
X112940857Y-131975761D01*
X112988476Y-131928142D01*
X113036095Y-131832904D01*
X113036095Y-131737666D01*
X112988476Y-131642428D01*
X112940857Y-131594809D01*
X112845619Y-131547190D01*
X112655142Y-131499571D01*
X112559904Y-131451952D01*
X112512285Y-131404333D01*
X112464666Y-131309095D01*
X112464666Y-131213857D01*
X112512285Y-131118619D01*
X112559904Y-131071000D01*
X112655142Y-131023380D01*
X112893238Y-131023380D01*
X113036095Y-131071000D01*
X113369428Y-131023380D02*
X113607523Y-132023380D01*
X113798000Y-131309095D01*
X113988476Y-132023380D01*
X114226571Y-131023380D01*
X115131333Y-132023380D02*
X114559904Y-132023380D01*
X114845619Y-132023380D02*
X114845619Y-131023380D01*
X114750380Y-131166238D01*
X114655142Y-131261476D01*
X114559904Y-131309095D01*
X98345714Y-98591666D02*
X98821904Y-98591666D01*
X98250476Y-98877380D02*
X98583809Y-97877380D01*
X98917142Y-98877380D01*
X99774285Y-98877380D02*
X99202857Y-98877380D01*
X99488571Y-98877380D02*
X99488571Y-97877380D01*
X99393333Y-98020238D01*
X99298095Y-98115476D01*
X99202857Y-98163095D01*
X172758380Y-109481857D02*
X172282190Y-109815190D01*
X172758380Y-110053285D02*
X171758380Y-110053285D01*
X171758380Y-109672333D01*
X171806000Y-109577095D01*
X171853619Y-109529476D01*
X171948857Y-109481857D01*
X172091714Y-109481857D01*
X172186952Y-109529476D01*
X172234571Y-109577095D01*
X172282190Y-109672333D01*
X172282190Y-110053285D01*
X172758380Y-108529476D02*
X172758380Y-109100904D01*
X172758380Y-108815190D02*
X171758380Y-108815190D01*
X171901238Y-108910428D01*
X171996476Y-109005666D01*
X172044095Y-109100904D01*
X171758380Y-108196142D02*
X171758380Y-107529476D01*
X172758380Y-107958047D01*
X165138380Y-109481857D02*
X164662190Y-109815190D01*
X165138380Y-110053285D02*
X164138380Y-110053285D01*
X164138380Y-109672333D01*
X164186000Y-109577095D01*
X164233619Y-109529476D01*
X164328857Y-109481857D01*
X164471714Y-109481857D01*
X164566952Y-109529476D01*
X164614571Y-109577095D01*
X164662190Y-109672333D01*
X164662190Y-110053285D01*
X165138380Y-108529476D02*
X165138380Y-109100904D01*
X165138380Y-108815190D02*
X164138380Y-108815190D01*
X164281238Y-108910428D01*
X164376476Y-109005666D01*
X164424095Y-109100904D01*
X164138380Y-107672333D02*
X164138380Y-107862809D01*
X164186000Y-107958047D01*
X164233619Y-108005666D01*
X164376476Y-108100904D01*
X164566952Y-108148523D01*
X164947904Y-108148523D01*
X165043142Y-108100904D01*
X165090761Y-108053285D01*
X165138380Y-107958047D01*
X165138380Y-107767571D01*
X165090761Y-107672333D01*
X165043142Y-107624714D01*
X164947904Y-107577095D01*
X164709809Y-107577095D01*
X164614571Y-107624714D01*
X164566952Y-107672333D01*
X164519333Y-107767571D01*
X164519333Y-107958047D01*
X164566952Y-108053285D01*
X164614571Y-108100904D01*
X164709809Y-108148523D01*
X163949142Y-122319380D02*
X163615809Y-121843190D01*
X163377714Y-122319380D02*
X163377714Y-121319380D01*
X163758666Y-121319380D01*
X163853904Y-121367000D01*
X163901523Y-121414619D01*
X163949142Y-121509857D01*
X163949142Y-121652714D01*
X163901523Y-121747952D01*
X163853904Y-121795571D01*
X163758666Y-121843190D01*
X163377714Y-121843190D01*
X164901523Y-122319380D02*
X164330095Y-122319380D01*
X164615809Y-122319380D02*
X164615809Y-121319380D01*
X164520571Y-121462238D01*
X164425333Y-121557476D01*
X164330095Y-121605095D01*
X165806285Y-121319380D02*
X165330095Y-121319380D01*
X165282476Y-121795571D01*
X165330095Y-121747952D01*
X165425333Y-121700333D01*
X165663428Y-121700333D01*
X165758666Y-121747952D01*
X165806285Y-121795571D01*
X165853904Y-121890809D01*
X165853904Y-122128904D01*
X165806285Y-122224142D01*
X165758666Y-122271761D01*
X165663428Y-122319380D01*
X165425333Y-122319380D01*
X165330095Y-122271761D01*
X165282476Y-122224142D01*
X164767666Y-144503380D02*
X164767666Y-145217666D01*
X164720047Y-145360523D01*
X164624809Y-145455761D01*
X164481952Y-145503380D01*
X164386714Y-145503380D01*
X165196238Y-144598619D02*
X165243857Y-144551000D01*
X165339095Y-144503380D01*
X165577190Y-144503380D01*
X165672428Y-144551000D01*
X165720047Y-144598619D01*
X165767666Y-144693857D01*
X165767666Y-144789095D01*
X165720047Y-144931952D01*
X165148619Y-145503380D01*
X165767666Y-145503380D01*
X165020666Y-141109380D02*
X165020666Y-141823666D01*
X164973047Y-141966523D01*
X164877809Y-142061761D01*
X164734952Y-142109380D01*
X164639714Y-142109380D01*
X166020666Y-142109380D02*
X165449238Y-142109380D01*
X165734952Y-142109380D02*
X165734952Y-141109380D01*
X165639714Y-141252238D01*
X165544476Y-141347476D01*
X165449238Y-141395095D01*
X133858095Y-123404380D02*
X133858095Y-124213904D01*
X133905714Y-124309142D01*
X133953333Y-124356761D01*
X134048571Y-124404380D01*
X134239047Y-124404380D01*
X134334285Y-124356761D01*
X134381904Y-124309142D01*
X134429523Y-124213904D01*
X134429523Y-123404380D01*
X134858095Y-123499619D02*
X134905714Y-123452000D01*
X135000952Y-123404380D01*
X135239047Y-123404380D01*
X135334285Y-123452000D01*
X135381904Y-123499619D01*
X135429523Y-123594857D01*
X135429523Y-123690095D01*
X135381904Y-123832952D01*
X134810476Y-124404380D01*
X135429523Y-124404380D01*
D14*
X123391444Y-125943428D02*
X123391444Y-126754360D01*
X123439146Y-126849764D01*
X123486848Y-126897466D01*
X123582252Y-126945168D01*
X123773059Y-126945168D01*
X123868463Y-126897466D01*
X123916165Y-126849764D01*
X123963867Y-126754360D01*
X123963867Y-125943428D01*
X124965607Y-126945168D02*
X124393184Y-126945168D01*
X124679395Y-126945168D02*
X124679395Y-125943428D01*
X124583992Y-126086533D01*
X124488588Y-126181937D01*
X124393184Y-126229639D01*
D10*
X124579142Y-118181380D02*
X124245809Y-117705190D01*
X124007714Y-118181380D02*
X124007714Y-117181380D01*
X124388666Y-117181380D01*
X124483904Y-117229000D01*
X124531523Y-117276619D01*
X124579142Y-117371857D01*
X124579142Y-117514714D01*
X124531523Y-117609952D01*
X124483904Y-117657571D01*
X124388666Y-117705190D01*
X124007714Y-117705190D01*
X125531523Y-118181380D02*
X124960095Y-118181380D01*
X125245809Y-118181380D02*
X125245809Y-117181380D01*
X125150571Y-117324238D01*
X125055333Y-117419476D01*
X124960095Y-117467095D01*
X126388666Y-117514714D02*
X126388666Y-118181380D01*
X126150571Y-117133761D02*
X125912476Y-117848047D01*
X126531523Y-117848047D01*
X128135142Y-132659380D02*
X127801809Y-132183190D01*
X127563714Y-132659380D02*
X127563714Y-131659380D01*
X127944666Y-131659380D01*
X128039904Y-131707000D01*
X128087523Y-131754619D01*
X128135142Y-131849857D01*
X128135142Y-131992714D01*
X128087523Y-132087952D01*
X128039904Y-132135571D01*
X127944666Y-132183190D01*
X127563714Y-132183190D01*
X129087523Y-132659380D02*
X128516095Y-132659380D01*
X128801809Y-132659380D02*
X128801809Y-131659380D01*
X128706571Y-131802238D01*
X128611333Y-131897476D01*
X128516095Y-131945095D01*
X129420857Y-131659380D02*
X130039904Y-131659380D01*
X129706571Y-132040333D01*
X129849428Y-132040333D01*
X129944666Y-132087952D01*
X129992285Y-132135571D01*
X130039904Y-132230809D01*
X130039904Y-132468904D01*
X129992285Y-132564142D01*
X129944666Y-132611761D01*
X129849428Y-132659380D01*
X129563714Y-132659380D01*
X129468476Y-132611761D01*
X129420857Y-132564142D01*
X124579142Y-123515380D02*
X124245809Y-123039190D01*
X124007714Y-123515380D02*
X124007714Y-122515380D01*
X124388666Y-122515380D01*
X124483904Y-122563000D01*
X124531523Y-122610619D01*
X124579142Y-122705857D01*
X124579142Y-122848714D01*
X124531523Y-122943952D01*
X124483904Y-122991571D01*
X124388666Y-123039190D01*
X124007714Y-123039190D01*
X125531523Y-123515380D02*
X124960095Y-123515380D01*
X125245809Y-123515380D02*
X125245809Y-122515380D01*
X125150571Y-122658238D01*
X125055333Y-122753476D01*
X124960095Y-122801095D01*
X125912476Y-122610619D02*
X125960095Y-122563000D01*
X126055333Y-122515380D01*
X126293428Y-122515380D01*
X126388666Y-122563000D01*
X126436285Y-122610619D01*
X126483904Y-122705857D01*
X126483904Y-122801095D01*
X126436285Y-122943952D01*
X125864857Y-123515380D01*
X126483904Y-123515380D01*
X131945142Y-129357380D02*
X131611809Y-128881190D01*
X131373714Y-129357380D02*
X131373714Y-128357380D01*
X131754666Y-128357380D01*
X131849904Y-128405000D01*
X131897523Y-128452619D01*
X131945142Y-128547857D01*
X131945142Y-128690714D01*
X131897523Y-128785952D01*
X131849904Y-128833571D01*
X131754666Y-128881190D01*
X131373714Y-128881190D01*
X132897523Y-129357380D02*
X132326095Y-129357380D01*
X132611809Y-129357380D02*
X132611809Y-128357380D01*
X132516571Y-128500238D01*
X132421333Y-128595476D01*
X132326095Y-128643095D01*
X133849904Y-129357380D02*
X133278476Y-129357380D01*
X133564190Y-129357380D02*
X133564190Y-128357380D01*
X133468952Y-128500238D01*
X133373714Y-128595476D01*
X133278476Y-128643095D01*
X124579142Y-116403380D02*
X124245809Y-115927190D01*
X124007714Y-116403380D02*
X124007714Y-115403380D01*
X124388666Y-115403380D01*
X124483904Y-115451000D01*
X124531523Y-115498619D01*
X124579142Y-115593857D01*
X124579142Y-115736714D01*
X124531523Y-115831952D01*
X124483904Y-115879571D01*
X124388666Y-115927190D01*
X124007714Y-115927190D01*
X125531523Y-116403380D02*
X124960095Y-116403380D01*
X125245809Y-116403380D02*
X125245809Y-115403380D01*
X125150571Y-115546238D01*
X125055333Y-115641476D01*
X124960095Y-115689095D01*
X126150571Y-115403380D02*
X126245809Y-115403380D01*
X126341047Y-115451000D01*
X126388666Y-115498619D01*
X126436285Y-115593857D01*
X126483904Y-115784333D01*
X126483904Y-116022428D01*
X126436285Y-116212904D01*
X126388666Y-116308142D01*
X126341047Y-116355761D01*
X126245809Y-116403380D01*
X126150571Y-116403380D01*
X126055333Y-116355761D01*
X126007714Y-116308142D01*
X125960095Y-116212904D01*
X125912476Y-116022428D01*
X125912476Y-115784333D01*
X125960095Y-115593857D01*
X126007714Y-115498619D01*
X126055333Y-115451000D01*
X126150571Y-115403380D01*
X125563333Y-119959380D02*
X125230000Y-119483190D01*
X124991904Y-119959380D02*
X124991904Y-118959380D01*
X125372857Y-118959380D01*
X125468095Y-119007000D01*
X125515714Y-119054619D01*
X125563333Y-119149857D01*
X125563333Y-119292714D01*
X125515714Y-119387952D01*
X125468095Y-119435571D01*
X125372857Y-119483190D01*
X124991904Y-119483190D01*
X126039523Y-119959380D02*
X126230000Y-119959380D01*
X126325238Y-119911761D01*
X126372857Y-119864142D01*
X126468095Y-119721285D01*
X126515714Y-119530809D01*
X126515714Y-119149857D01*
X126468095Y-119054619D01*
X126420476Y-119007000D01*
X126325238Y-118959380D01*
X126134761Y-118959380D01*
X126039523Y-119007000D01*
X125991904Y-119054619D01*
X125944285Y-119149857D01*
X125944285Y-119387952D01*
X125991904Y-119483190D01*
X126039523Y-119530809D01*
X126134761Y-119578428D01*
X126325238Y-119578428D01*
X126420476Y-119530809D01*
X126468095Y-119483190D01*
X126515714Y-119387952D01*
X125563333Y-114625380D02*
X125230000Y-114149190D01*
X124991904Y-114625380D02*
X124991904Y-113625380D01*
X125372857Y-113625380D01*
X125468095Y-113673000D01*
X125515714Y-113720619D01*
X125563333Y-113815857D01*
X125563333Y-113958714D01*
X125515714Y-114053952D01*
X125468095Y-114101571D01*
X125372857Y-114149190D01*
X124991904Y-114149190D01*
X126134761Y-114053952D02*
X126039523Y-114006333D01*
X125991904Y-113958714D01*
X125944285Y-113863476D01*
X125944285Y-113815857D01*
X125991904Y-113720619D01*
X126039523Y-113673000D01*
X126134761Y-113625380D01*
X126325238Y-113625380D01*
X126420476Y-113673000D01*
X126468095Y-113720619D01*
X126515714Y-113815857D01*
X126515714Y-113863476D01*
X126468095Y-113958714D01*
X126420476Y-114006333D01*
X126325238Y-114053952D01*
X126134761Y-114053952D01*
X126039523Y-114101571D01*
X125991904Y-114149190D01*
X125944285Y-114244428D01*
X125944285Y-114434904D01*
X125991904Y-114530142D01*
X126039523Y-114577761D01*
X126134761Y-114625380D01*
X126325238Y-114625380D01*
X126420476Y-114577761D01*
X126468095Y-114530142D01*
X126515714Y-114434904D01*
X126515714Y-114244428D01*
X126468095Y-114149190D01*
X126420476Y-114101571D01*
X126325238Y-114053952D01*
X125563333Y-112847380D02*
X125230000Y-112371190D01*
X124991904Y-112847380D02*
X124991904Y-111847380D01*
X125372857Y-111847380D01*
X125468095Y-111895000D01*
X125515714Y-111942619D01*
X125563333Y-112037857D01*
X125563333Y-112180714D01*
X125515714Y-112275952D01*
X125468095Y-112323571D01*
X125372857Y-112371190D01*
X124991904Y-112371190D01*
X125896666Y-111847380D02*
X126563333Y-111847380D01*
X126134761Y-112847380D01*
X125563333Y-111069380D02*
X125230000Y-110593190D01*
X124991904Y-111069380D02*
X124991904Y-110069380D01*
X125372857Y-110069380D01*
X125468095Y-110117000D01*
X125515714Y-110164619D01*
X125563333Y-110259857D01*
X125563333Y-110402714D01*
X125515714Y-110497952D01*
X125468095Y-110545571D01*
X125372857Y-110593190D01*
X124991904Y-110593190D01*
X126420476Y-110069380D02*
X126230000Y-110069380D01*
X126134761Y-110117000D01*
X126087142Y-110164619D01*
X125991904Y-110307476D01*
X125944285Y-110497952D01*
X125944285Y-110878904D01*
X125991904Y-110974142D01*
X126039523Y-111021761D01*
X126134761Y-111069380D01*
X126325238Y-111069380D01*
X126420476Y-111021761D01*
X126468095Y-110974142D01*
X126515714Y-110878904D01*
X126515714Y-110640809D01*
X126468095Y-110545571D01*
X126420476Y-110497952D01*
X126325238Y-110450333D01*
X126134761Y-110450333D01*
X126039523Y-110497952D01*
X125991904Y-110545571D01*
X125944285Y-110640809D01*
X142438380Y-109259666D02*
X141962190Y-109593000D01*
X142438380Y-109831095D02*
X141438380Y-109831095D01*
X141438380Y-109450142D01*
X141486000Y-109354904D01*
X141533619Y-109307285D01*
X141628857Y-109259666D01*
X141771714Y-109259666D01*
X141866952Y-109307285D01*
X141914571Y-109354904D01*
X141962190Y-109450142D01*
X141962190Y-109831095D01*
X141438380Y-108354904D02*
X141438380Y-108831095D01*
X141914571Y-108878714D01*
X141866952Y-108831095D01*
X141819333Y-108735857D01*
X141819333Y-108497761D01*
X141866952Y-108402523D01*
X141914571Y-108354904D01*
X142009809Y-108307285D01*
X142247904Y-108307285D01*
X142343142Y-108354904D01*
X142390761Y-108402523D01*
X142438380Y-108497761D01*
X142438380Y-108735857D01*
X142390761Y-108831095D01*
X142343142Y-108878714D01*
X150472380Y-115355666D02*
X149996190Y-115689000D01*
X150472380Y-115927095D02*
X149472380Y-115927095D01*
X149472380Y-115546142D01*
X149520000Y-115450904D01*
X149567619Y-115403285D01*
X149662857Y-115355666D01*
X149805714Y-115355666D01*
X149900952Y-115403285D01*
X149948571Y-115450904D01*
X149996190Y-115546142D01*
X149996190Y-115927095D01*
X149805714Y-114498523D02*
X150472380Y-114498523D01*
X149424761Y-114736619D02*
X150139047Y-114974714D01*
X150139047Y-114355666D01*
X150472380Y-112053666D02*
X149996190Y-112387000D01*
X150472380Y-112625095D02*
X149472380Y-112625095D01*
X149472380Y-112244142D01*
X149520000Y-112148904D01*
X149567619Y-112101285D01*
X149662857Y-112053666D01*
X149805714Y-112053666D01*
X149900952Y-112101285D01*
X149948571Y-112148904D01*
X149996190Y-112244142D01*
X149996190Y-112625095D01*
X149472380Y-111720333D02*
X149472380Y-111101285D01*
X149853333Y-111434619D01*
X149853333Y-111291761D01*
X149900952Y-111196523D01*
X149948571Y-111148904D01*
X150043809Y-111101285D01*
X150281904Y-111101285D01*
X150377142Y-111148904D01*
X150424761Y-111196523D01*
X150472380Y-111291761D01*
X150472380Y-111577476D01*
X150424761Y-111672714D01*
X150377142Y-111720333D01*
X123642380Y-123991666D02*
X123166190Y-124325000D01*
X123642380Y-124563095D02*
X122642380Y-124563095D01*
X122642380Y-124182142D01*
X122690000Y-124086904D01*
X122737619Y-124039285D01*
X122832857Y-123991666D01*
X122975714Y-123991666D01*
X123070952Y-124039285D01*
X123118571Y-124086904D01*
X123166190Y-124182142D01*
X123166190Y-124563095D01*
X122737619Y-123610714D02*
X122690000Y-123563095D01*
X122642380Y-123467857D01*
X122642380Y-123229761D01*
X122690000Y-123134523D01*
X122737619Y-123086904D01*
X122832857Y-123039285D01*
X122928095Y-123039285D01*
X123070952Y-123086904D01*
X123642380Y-123658333D01*
X123642380Y-123039285D01*
X121864380Y-123991666D02*
X121388190Y-124325000D01*
X121864380Y-124563095D02*
X120864380Y-124563095D01*
X120864380Y-124182142D01*
X120912000Y-124086904D01*
X120959619Y-124039285D01*
X121054857Y-123991666D01*
X121197714Y-123991666D01*
X121292952Y-124039285D01*
X121340571Y-124086904D01*
X121388190Y-124182142D01*
X121388190Y-124563095D01*
X121864380Y-123039285D02*
X121864380Y-123610714D01*
X121864380Y-123325000D02*
X120864380Y-123325000D01*
X121007238Y-123420238D01*
X121102476Y-123515476D01*
X121150095Y-123610714D01*
X186427619Y-122015238D02*
X186380000Y-122110476D01*
X186284761Y-122205714D01*
X186141904Y-122348571D01*
X186094285Y-122443809D01*
X186094285Y-122539047D01*
X186332380Y-122491428D02*
X186284761Y-122586666D01*
X186189523Y-122681904D01*
X185999047Y-122729523D01*
X185665714Y-122729523D01*
X185475238Y-122681904D01*
X185380000Y-122586666D01*
X185332380Y-122491428D01*
X185332380Y-122300952D01*
X185380000Y-122205714D01*
X185475238Y-122110476D01*
X185665714Y-122062857D01*
X185999047Y-122062857D01*
X186189523Y-122110476D01*
X186284761Y-122205714D01*
X186332380Y-122300952D01*
X186332380Y-122491428D01*
X186332380Y-121110476D02*
X186332380Y-121681904D01*
X186332380Y-121396190D02*
X185332380Y-121396190D01*
X185475238Y-121491428D01*
X185570476Y-121586666D01*
X185618095Y-121681904D01*
X132167333Y-134596142D02*
X132119714Y-134643761D01*
X131976857Y-134691380D01*
X131881619Y-134691380D01*
X131738761Y-134643761D01*
X131643523Y-134548523D01*
X131595904Y-134453285D01*
X131548285Y-134262809D01*
X131548285Y-134119952D01*
X131595904Y-133929476D01*
X131643523Y-133834238D01*
X131738761Y-133739000D01*
X131881619Y-133691380D01*
X131976857Y-133691380D01*
X132119714Y-133739000D01*
X132167333Y-133786619D01*
X132500666Y-133691380D02*
X133167333Y-133691380D01*
X132738761Y-134691380D01*
X125563333Y-121642142D02*
X125515714Y-121689761D01*
X125372857Y-121737380D01*
X125277619Y-121737380D01*
X125134761Y-121689761D01*
X125039523Y-121594523D01*
X124991904Y-121499285D01*
X124944285Y-121308809D01*
X124944285Y-121165952D01*
X124991904Y-120975476D01*
X125039523Y-120880238D01*
X125134761Y-120785000D01*
X125277619Y-120737380D01*
X125372857Y-120737380D01*
X125515714Y-120785000D01*
X125563333Y-120832619D01*
X126420476Y-120737380D02*
X126230000Y-120737380D01*
X126134761Y-120785000D01*
X126087142Y-120832619D01*
X125991904Y-120975476D01*
X125944285Y-121165952D01*
X125944285Y-121546904D01*
X125991904Y-121642142D01*
X126039523Y-121689761D01*
X126134761Y-121737380D01*
X126325238Y-121737380D01*
X126420476Y-121689761D01*
X126468095Y-121642142D01*
X126515714Y-121546904D01*
X126515714Y-121308809D01*
X126468095Y-121213571D01*
X126420476Y-121165952D01*
X126325238Y-121118333D01*
X126134761Y-121118333D01*
X126039523Y-121165952D01*
X125991904Y-121213571D01*
X125944285Y-121308809D01*
X125563333Y-109196142D02*
X125515714Y-109243761D01*
X125372857Y-109291380D01*
X125277619Y-109291380D01*
X125134761Y-109243761D01*
X125039523Y-109148523D01*
X124991904Y-109053285D01*
X124944285Y-108862809D01*
X124944285Y-108719952D01*
X124991904Y-108529476D01*
X125039523Y-108434238D01*
X125134761Y-108339000D01*
X125277619Y-108291380D01*
X125372857Y-108291380D01*
X125515714Y-108339000D01*
X125563333Y-108386619D01*
X126468095Y-108291380D02*
X125991904Y-108291380D01*
X125944285Y-108767571D01*
X125991904Y-108719952D01*
X126087142Y-108672333D01*
X126325238Y-108672333D01*
X126420476Y-108719952D01*
X126468095Y-108767571D01*
X126515714Y-108862809D01*
X126515714Y-109100904D01*
X126468095Y-109196142D01*
X126420476Y-109243761D01*
X126325238Y-109291380D01*
X126087142Y-109291380D01*
X125991904Y-109243761D01*
X125944285Y-109196142D01*
X144375142Y-109259666D02*
X144422761Y-109307285D01*
X144470380Y-109450142D01*
X144470380Y-109545380D01*
X144422761Y-109688238D01*
X144327523Y-109783476D01*
X144232285Y-109831095D01*
X144041809Y-109878714D01*
X143898952Y-109878714D01*
X143708476Y-109831095D01*
X143613238Y-109783476D01*
X143518000Y-109688238D01*
X143470380Y-109545380D01*
X143470380Y-109450142D01*
X143518000Y-109307285D01*
X143565619Y-109259666D01*
X143803714Y-108402523D02*
X144470380Y-108402523D01*
X143422761Y-108640619D02*
X144137047Y-108878714D01*
X144137047Y-108259666D01*
X141057333Y-118754142D02*
X141009714Y-118801761D01*
X140866857Y-118849380D01*
X140771619Y-118849380D01*
X140628761Y-118801761D01*
X140533523Y-118706523D01*
X140485904Y-118611285D01*
X140438285Y-118420809D01*
X140438285Y-118277952D01*
X140485904Y-118087476D01*
X140533523Y-117992238D01*
X140628761Y-117897000D01*
X140771619Y-117849380D01*
X140866857Y-117849380D01*
X141009714Y-117897000D01*
X141057333Y-117944619D01*
X141390666Y-117849380D02*
X142009714Y-117849380D01*
X141676380Y-118230333D01*
X141819238Y-118230333D01*
X141914476Y-118277952D01*
X141962095Y-118325571D01*
X142009714Y-118420809D01*
X142009714Y-118658904D01*
X141962095Y-118754142D01*
X141914476Y-118801761D01*
X141819238Y-118849380D01*
X141533523Y-118849380D01*
X141438285Y-118801761D01*
X141390666Y-118754142D01*
X112609333Y-110720142D02*
X112561714Y-110767761D01*
X112418857Y-110815380D01*
X112323619Y-110815380D01*
X112180761Y-110767761D01*
X112085523Y-110672523D01*
X112037904Y-110577285D01*
X111990285Y-110386809D01*
X111990285Y-110243952D01*
X112037904Y-110053476D01*
X112085523Y-109958238D01*
X112180761Y-109863000D01*
X112323619Y-109815380D01*
X112418857Y-109815380D01*
X112561714Y-109863000D01*
X112609333Y-109910619D01*
X112990285Y-109910619D02*
X113037904Y-109863000D01*
X113133142Y-109815380D01*
X113371238Y-109815380D01*
X113466476Y-109863000D01*
X113514095Y-109910619D01*
X113561714Y-110005857D01*
X113561714Y-110101095D01*
X113514095Y-110243952D01*
X112942666Y-110815380D01*
X113561714Y-110815380D01*
X128611333Y-127484142D02*
X128563714Y-127531761D01*
X128420857Y-127579380D01*
X128325619Y-127579380D01*
X128182761Y-127531761D01*
X128087523Y-127436523D01*
X128039904Y-127341285D01*
X127992285Y-127150809D01*
X127992285Y-127007952D01*
X128039904Y-126817476D01*
X128087523Y-126722238D01*
X128182761Y-126627000D01*
X128325619Y-126579380D01*
X128420857Y-126579380D01*
X128563714Y-126627000D01*
X128611333Y-126674619D01*
X129563714Y-127579380D02*
X128992285Y-127579380D01*
X129278000Y-127579380D02*
X129278000Y-126579380D01*
X129182761Y-126722238D01*
X129087523Y-126817476D01*
X128992285Y-126865095D01*
M02*
