G04 #@! TF.GenerationSoftware,KiCad,Pcbnew,(5.1.2)-1*
G04 #@! TF.CreationDate,2020-03-13T00:19:03-07:00*
G04 #@! TF.ProjectId,progrmmable-load,70726f67-726d-46d6-9162-6c652d6c6f61,rev?*
G04 #@! TF.SameCoordinates,Original*
G04 #@! TF.FileFunction,Legend,Bot*
G04 #@! TF.FilePolarity,Positive*
%FSLAX46Y46*%
G04 Gerber Fmt 4.6, Leading zero omitted, Abs format (unit mm)*
G04 Created by KiCad (PCBNEW (5.1.2)-1) date 2020-03-13 00:19:03*
%MOMM*%
%LPD*%
G04 APERTURE LIST*
%ADD10C,0.508000*%
G04 APERTURE END LIST*
D10*
X144780000Y-111125000D02*
X151130000Y-104775000D01*
X144780000Y-113665000D02*
X151130000Y-107315000D01*
X144780000Y-116205000D02*
X151130000Y-109855000D01*
X144780000Y-118745000D02*
X151130000Y-112395000D01*
X144780000Y-121285000D02*
X151130000Y-114935000D01*
X144780000Y-123825000D02*
X151130000Y-117475000D01*
X144780000Y-126365000D02*
X151130000Y-120015000D01*
X144780000Y-128905000D02*
X151130000Y-122555000D01*
X144780000Y-131445000D02*
X151130000Y-125095000D01*
X144780000Y-133985000D02*
X151130000Y-127635000D01*
X142240000Y-111125000D02*
X148590000Y-104775000D01*
X142240000Y-113665000D02*
X148590000Y-107315000D01*
X142240000Y-116205000D02*
X148590000Y-109855000D01*
X142240000Y-118745000D02*
X148590000Y-112395000D01*
X142240000Y-121285000D02*
X148590000Y-114935000D01*
X142240000Y-123825000D02*
X148590000Y-117475000D01*
X142240000Y-126365000D02*
X148590000Y-120015000D01*
X142240000Y-128905000D02*
X148590000Y-122555000D01*
X142240000Y-131445000D02*
X148590000Y-125095000D01*
X142240000Y-133985000D02*
X148590000Y-127635000D01*
X139700000Y-111125000D02*
X146050000Y-104775000D01*
X139700000Y-113665000D02*
X146050000Y-107315000D01*
X139700000Y-116205000D02*
X146050000Y-109855000D01*
X139700000Y-118745000D02*
X146050000Y-112395000D01*
X139700000Y-121285000D02*
X146050000Y-114935000D01*
X139700000Y-123825000D02*
X146050000Y-117475000D01*
X139700000Y-126365000D02*
X146050000Y-120015000D01*
X139700000Y-128905000D02*
X146050000Y-122555000D01*
X139700000Y-131445000D02*
X146050000Y-125095000D01*
X139700000Y-133985000D02*
X146050000Y-127635000D01*
X137160000Y-111125000D02*
X143510000Y-104775000D01*
X137160000Y-113665000D02*
X143510000Y-107315000D01*
X137160000Y-116205000D02*
X143510000Y-109855000D01*
X137160000Y-118745000D02*
X143510000Y-112395000D01*
X137160000Y-121285000D02*
X143510000Y-114935000D01*
X137160000Y-123825000D02*
X143510000Y-117475000D01*
X137160000Y-126365000D02*
X143510000Y-120015000D01*
X137160000Y-128905000D02*
X143510000Y-122555000D01*
X137160000Y-131445000D02*
X143510000Y-125095000D01*
X137160000Y-133985000D02*
X143510000Y-127635000D01*
X134620000Y-111125000D02*
X140970000Y-104775000D01*
X134620000Y-113665000D02*
X140970000Y-107315000D01*
X134620000Y-116205000D02*
X140970000Y-109855000D01*
X134620000Y-118745000D02*
X140970000Y-112395000D01*
X134620000Y-121285000D02*
X140970000Y-114935000D01*
X134620000Y-123825000D02*
X140970000Y-117475000D01*
X134620000Y-126365000D02*
X140970000Y-120015000D01*
X134620000Y-128905000D02*
X140970000Y-122555000D01*
X134620000Y-131445000D02*
X140970000Y-125095000D01*
X134620000Y-133985000D02*
X140970000Y-127635000D01*
X132080000Y-111125000D02*
X138430000Y-104775000D01*
X132080000Y-113665000D02*
X138430000Y-107315000D01*
X132080000Y-116205000D02*
X138430000Y-109855000D01*
X132080000Y-118745000D02*
X138430000Y-112395000D01*
X132080000Y-121285000D02*
X138430000Y-114935000D01*
X132080000Y-123825000D02*
X138430000Y-117475000D01*
X132080000Y-126365000D02*
X138430000Y-120015000D01*
X132080000Y-128905000D02*
X138430000Y-122555000D01*
X132080000Y-131445000D02*
X138430000Y-125095000D01*
X132080000Y-133985000D02*
X138430000Y-127635000D01*
X129540000Y-111125000D02*
X135890000Y-104775000D01*
X129540000Y-113665000D02*
X135890000Y-107315000D01*
X129540000Y-116205000D02*
X135890000Y-109855000D01*
X129540000Y-118745000D02*
X135890000Y-112395000D01*
X129540000Y-121285000D02*
X135890000Y-114935000D01*
X129540000Y-123825000D02*
X135890000Y-117475000D01*
X129540000Y-126365000D02*
X135890000Y-120015000D01*
X129540000Y-128905000D02*
X135890000Y-122555000D01*
X129540000Y-131445000D02*
X135890000Y-125095000D01*
X129540000Y-133985000D02*
X135890000Y-127635000D01*
X127000000Y-111125000D02*
X133350000Y-104775000D01*
X127000000Y-113665000D02*
X133350000Y-107315000D01*
X127000000Y-116205000D02*
X133350000Y-109855000D01*
X127000000Y-118745000D02*
X133350000Y-112395000D01*
X127000000Y-121285000D02*
X133350000Y-114935000D01*
X127000000Y-123825000D02*
X133350000Y-117475000D01*
X127000000Y-126365000D02*
X133350000Y-120015000D01*
X127000000Y-128905000D02*
X133350000Y-122555000D01*
X127000000Y-131445000D02*
X133350000Y-125095000D01*
X127000000Y-133985000D02*
X133350000Y-127635000D01*
X124460000Y-111125000D02*
X130810000Y-104775000D01*
X124460000Y-113665000D02*
X130810000Y-107315000D01*
X124460000Y-116205000D02*
X130810000Y-109855000D01*
X124460000Y-118745000D02*
X130810000Y-112395000D01*
X124460000Y-121285000D02*
X130810000Y-114935000D01*
X124460000Y-123825000D02*
X130810000Y-117475000D01*
X124460000Y-126365000D02*
X130810000Y-120015000D01*
X124460000Y-128905000D02*
X130810000Y-122555000D01*
X124460000Y-131445000D02*
X130810000Y-125095000D01*
X124460000Y-133985000D02*
X130810000Y-127635000D01*
X121920000Y-111125000D02*
X128270000Y-104775000D01*
X121920000Y-113665000D02*
X128270000Y-107315000D01*
X121920000Y-116205000D02*
X128270000Y-109855000D01*
X121920000Y-118745000D02*
X128270000Y-112395000D01*
X121920000Y-121285000D02*
X128270000Y-114935000D01*
X121920000Y-123825000D02*
X128270000Y-117475000D01*
X121920000Y-126365000D02*
X128270000Y-120015000D01*
X121920000Y-128905000D02*
X128270000Y-122555000D01*
X121920000Y-131445000D02*
X128270000Y-125095000D01*
X121920000Y-133985000D02*
X128270000Y-127635000D01*
M02*
