G04 #@! TF.GenerationSoftware,KiCad,Pcbnew,(5.1.2)-1*
G04 #@! TF.CreationDate,2020-03-13T00:19:03-07:00*
G04 #@! TF.ProjectId,progrmmable-load,70726f67-726d-46d6-9162-6c652d6c6f61,rev?*
G04 #@! TF.SameCoordinates,Original*
G04 #@! TF.FileFunction,Soldermask,Top*
G04 #@! TF.FilePolarity,Negative*
%FSLAX46Y46*%
G04 Gerber Fmt 4.6, Leading zero omitted, Abs format (unit mm)*
G04 Created by KiCad (PCBNEW (5.1.2)-1) date 2020-03-13 00:19:03*
%MOMM*%
%LPD*%
G04 APERTURE LIST*
%ADD10C,0.100000*%
G04 APERTURE END LIST*
D10*
G36*
X120149000Y-145422000D02*
G01*
X116847000Y-145422000D01*
X116847000Y-143320000D01*
X120149000Y-143320000D01*
X120149000Y-145422000D01*
X120149000Y-145422000D01*
G37*
G36*
X181087008Y-133778590D02*
G01*
X181582658Y-133877181D01*
X182516440Y-134263967D01*
X183356822Y-134825492D01*
X184071508Y-135540178D01*
X184633033Y-136380560D01*
X185019819Y-137314342D01*
X185078261Y-137608150D01*
X185217000Y-138305639D01*
X185217000Y-139316361D01*
X185140215Y-139702384D01*
X185019819Y-140307658D01*
X184633033Y-141241440D01*
X184071508Y-142081822D01*
X183356822Y-142796508D01*
X182516440Y-143358033D01*
X181582658Y-143744819D01*
X181087009Y-143843409D01*
X180591361Y-143942000D01*
X179580639Y-143942000D01*
X179084991Y-143843409D01*
X178589342Y-143744819D01*
X177655560Y-143358033D01*
X176815178Y-142796508D01*
X176100492Y-142081822D01*
X175538967Y-141241440D01*
X175152181Y-140307658D01*
X175031785Y-139702384D01*
X174955000Y-139316361D01*
X174955000Y-138305639D01*
X175093739Y-137608150D01*
X175152181Y-137314342D01*
X175538967Y-136380560D01*
X176100492Y-135540178D01*
X176815178Y-134825492D01*
X177655560Y-134263967D01*
X178589342Y-133877181D01*
X179084992Y-133778590D01*
X179580639Y-133680000D01*
X180591361Y-133680000D01*
X181087008Y-133778590D01*
X181087008Y-133778590D01*
G37*
G36*
X151117008Y-133778590D02*
G01*
X151612658Y-133877181D01*
X152546440Y-134263967D01*
X153386822Y-134825492D01*
X154101508Y-135540178D01*
X154663033Y-136380560D01*
X155049819Y-137314342D01*
X155108261Y-137608150D01*
X155247000Y-138305639D01*
X155247000Y-139316361D01*
X155170215Y-139702384D01*
X155049819Y-140307658D01*
X154663033Y-141241440D01*
X154101508Y-142081822D01*
X153386822Y-142796508D01*
X152546440Y-143358033D01*
X151612658Y-143744819D01*
X151117009Y-143843409D01*
X150621361Y-143942000D01*
X149610639Y-143942000D01*
X149114991Y-143843409D01*
X148619342Y-143744819D01*
X147685560Y-143358033D01*
X146845178Y-142796508D01*
X146130492Y-142081822D01*
X145568967Y-141241440D01*
X145182181Y-140307658D01*
X145061785Y-139702384D01*
X144985000Y-139316361D01*
X144985000Y-138305639D01*
X145123739Y-137608150D01*
X145182181Y-137314342D01*
X145568967Y-136380560D01*
X146130492Y-135540178D01*
X146845178Y-134825492D01*
X147685560Y-134263967D01*
X148619342Y-133877181D01*
X149114992Y-133778590D01*
X149610639Y-133680000D01*
X150621361Y-133680000D01*
X151117008Y-133778590D01*
X151117008Y-133778590D01*
G37*
G36*
X125804564Y-140260389D02*
G01*
X125995833Y-140339615D01*
X125995835Y-140339616D01*
X126167973Y-140454635D01*
X126314365Y-140601027D01*
X126429385Y-140773167D01*
X126508611Y-140964436D01*
X126549000Y-141167484D01*
X126549000Y-141374516D01*
X126508611Y-141577564D01*
X126429385Y-141768833D01*
X126429384Y-141768835D01*
X126314365Y-141940973D01*
X126167973Y-142087365D01*
X125995835Y-142202384D01*
X125995834Y-142202385D01*
X125995833Y-142202385D01*
X125804564Y-142281611D01*
X125601516Y-142322000D01*
X125394484Y-142322000D01*
X125191436Y-142281611D01*
X125000167Y-142202385D01*
X125000166Y-142202385D01*
X125000165Y-142202384D01*
X124828027Y-142087365D01*
X124681635Y-141940973D01*
X124566616Y-141768835D01*
X124566615Y-141768833D01*
X124487389Y-141577564D01*
X124447000Y-141374516D01*
X124447000Y-141167484D01*
X124487389Y-140964436D01*
X124566615Y-140773167D01*
X124681635Y-140601027D01*
X124828027Y-140454635D01*
X125000165Y-140339616D01*
X125000167Y-140339615D01*
X125191436Y-140260389D01*
X125394484Y-140220000D01*
X125601516Y-140220000D01*
X125804564Y-140260389D01*
X125804564Y-140260389D01*
G37*
G36*
X111304564Y-140260389D02*
G01*
X111495833Y-140339615D01*
X111495835Y-140339616D01*
X111667973Y-140454635D01*
X111814365Y-140601027D01*
X111929385Y-140773167D01*
X112008611Y-140964436D01*
X112049000Y-141167484D01*
X112049000Y-141374516D01*
X112008611Y-141577564D01*
X111929385Y-141768833D01*
X111929384Y-141768835D01*
X111814365Y-141940973D01*
X111667973Y-142087365D01*
X111495835Y-142202384D01*
X111495834Y-142202385D01*
X111495833Y-142202385D01*
X111304564Y-142281611D01*
X111101516Y-142322000D01*
X110894484Y-142322000D01*
X110691436Y-142281611D01*
X110500167Y-142202385D01*
X110500166Y-142202385D01*
X110500165Y-142202384D01*
X110328027Y-142087365D01*
X110181635Y-141940973D01*
X110066616Y-141768835D01*
X110066615Y-141768833D01*
X109987389Y-141577564D01*
X109947000Y-141374516D01*
X109947000Y-141167484D01*
X109987389Y-140964436D01*
X110066615Y-140773167D01*
X110181635Y-140601027D01*
X110328027Y-140454635D01*
X110500165Y-140339616D01*
X110500167Y-140339615D01*
X110691436Y-140260389D01*
X110894484Y-140220000D01*
X111101516Y-140220000D01*
X111304564Y-140260389D01*
X111304564Y-140260389D01*
G37*
G36*
X91606823Y-138226313D02*
G01*
X91767242Y-138274976D01*
X91899537Y-138345689D01*
X91915078Y-138353996D01*
X92044659Y-138460341D01*
X92151004Y-138589922D01*
X92151005Y-138589924D01*
X92230024Y-138737758D01*
X92278687Y-138898177D01*
X92295117Y-139065000D01*
X92278687Y-139231823D01*
X92230024Y-139392242D01*
X92159114Y-139524906D01*
X92151004Y-139540078D01*
X92044659Y-139669659D01*
X91915078Y-139776004D01*
X91915076Y-139776005D01*
X91767242Y-139855024D01*
X91606823Y-139903687D01*
X91481804Y-139916000D01*
X91398196Y-139916000D01*
X91273177Y-139903687D01*
X91112758Y-139855024D01*
X90964924Y-139776005D01*
X90964922Y-139776004D01*
X90835341Y-139669659D01*
X90728996Y-139540078D01*
X90720886Y-139524906D01*
X90649976Y-139392242D01*
X90601313Y-139231823D01*
X90584883Y-139065000D01*
X90601313Y-138898177D01*
X90649976Y-138737758D01*
X90728995Y-138589924D01*
X90728996Y-138589922D01*
X90835341Y-138460341D01*
X90964922Y-138353996D01*
X90980463Y-138345689D01*
X91112758Y-138274976D01*
X91273177Y-138226313D01*
X91398196Y-138214000D01*
X91481804Y-138214000D01*
X91606823Y-138226313D01*
X91606823Y-138226313D01*
G37*
G36*
X106846823Y-138226313D02*
G01*
X107007242Y-138274976D01*
X107139537Y-138345689D01*
X107155078Y-138353996D01*
X107284659Y-138460341D01*
X107391004Y-138589922D01*
X107391005Y-138589924D01*
X107470024Y-138737758D01*
X107518687Y-138898177D01*
X107535117Y-139065000D01*
X107518687Y-139231823D01*
X107470024Y-139392242D01*
X107399114Y-139524906D01*
X107391004Y-139540078D01*
X107284659Y-139669659D01*
X107155078Y-139776004D01*
X107155076Y-139776005D01*
X107007242Y-139855024D01*
X106846823Y-139903687D01*
X106721804Y-139916000D01*
X106638196Y-139916000D01*
X106513177Y-139903687D01*
X106352758Y-139855024D01*
X106204924Y-139776005D01*
X106204922Y-139776004D01*
X106075341Y-139669659D01*
X105968996Y-139540078D01*
X105960886Y-139524906D01*
X105889976Y-139392242D01*
X105841313Y-139231823D01*
X105824883Y-139065000D01*
X105841313Y-138898177D01*
X105889976Y-138737758D01*
X105968995Y-138589924D01*
X105968996Y-138589922D01*
X106075341Y-138460341D01*
X106204922Y-138353996D01*
X106220463Y-138345689D01*
X106352758Y-138274976D01*
X106513177Y-138226313D01*
X106638196Y-138214000D01*
X106721804Y-138214000D01*
X106846823Y-138226313D01*
X106846823Y-138226313D01*
G37*
G36*
X111304564Y-137760389D02*
G01*
X111495833Y-137839615D01*
X111495835Y-137839616D01*
X111667973Y-137954635D01*
X111814365Y-138101027D01*
X111929385Y-138273167D01*
X112008611Y-138464436D01*
X112049000Y-138667484D01*
X112049000Y-138874516D01*
X112008611Y-139077564D01*
X111944715Y-139231823D01*
X111929384Y-139268835D01*
X111814365Y-139440973D01*
X111667973Y-139587365D01*
X111495835Y-139702384D01*
X111495834Y-139702385D01*
X111495833Y-139702385D01*
X111304564Y-139781611D01*
X111101516Y-139822000D01*
X110894484Y-139822000D01*
X110691436Y-139781611D01*
X110500167Y-139702385D01*
X110500166Y-139702385D01*
X110500165Y-139702384D01*
X110328027Y-139587365D01*
X110181635Y-139440973D01*
X110066616Y-139268835D01*
X110051285Y-139231823D01*
X109987389Y-139077564D01*
X109947000Y-138874516D01*
X109947000Y-138667484D01*
X109987389Y-138464436D01*
X110066615Y-138273167D01*
X110181635Y-138101027D01*
X110328027Y-137954635D01*
X110500165Y-137839616D01*
X110500167Y-137839615D01*
X110691436Y-137760389D01*
X110894484Y-137720000D01*
X111101516Y-137720000D01*
X111304564Y-137760389D01*
X111304564Y-137760389D01*
G37*
G36*
X164298794Y-136207155D02*
G01*
X164405150Y-136228311D01*
X164505334Y-136269809D01*
X164605520Y-136311307D01*
X164785844Y-136431795D01*
X164939205Y-136585156D01*
X165059693Y-136765480D01*
X165095630Y-136852239D01*
X165132385Y-136940973D01*
X165142689Y-136965851D01*
X165185000Y-137178560D01*
X165185000Y-137395440D01*
X165142689Y-137608149D01*
X165059693Y-137808520D01*
X164939205Y-137988844D01*
X164785844Y-138142205D01*
X164605520Y-138262693D01*
X164405150Y-138345689D01*
X164298795Y-138366844D01*
X164192440Y-138388000D01*
X163975560Y-138388000D01*
X163869205Y-138366844D01*
X163762850Y-138345689D01*
X163562480Y-138262693D01*
X163382156Y-138142205D01*
X163228795Y-137988844D01*
X163108307Y-137808520D01*
X163025311Y-137608149D01*
X162983000Y-137395440D01*
X162983000Y-137178560D01*
X163025311Y-136965851D01*
X163035616Y-136940973D01*
X163072370Y-136852239D01*
X163108307Y-136765480D01*
X163228795Y-136585156D01*
X163382156Y-136431795D01*
X163562480Y-136311307D01*
X163662666Y-136269809D01*
X163762850Y-136228311D01*
X163869206Y-136207155D01*
X163975560Y-136186000D01*
X164192440Y-136186000D01*
X164298794Y-136207155D01*
X164298794Y-136207155D01*
G37*
G36*
X167725000Y-138388000D02*
G01*
X165523000Y-138388000D01*
X165523000Y-136186000D01*
X167725000Y-136186000D01*
X167725000Y-138388000D01*
X167725000Y-138388000D01*
G37*
G36*
X91606823Y-135686313D02*
G01*
X91767242Y-135734976D01*
X91838692Y-135773167D01*
X91915078Y-135813996D01*
X92044659Y-135920341D01*
X92151004Y-136049922D01*
X92151005Y-136049924D01*
X92230024Y-136197758D01*
X92278687Y-136358177D01*
X92295117Y-136525000D01*
X92278687Y-136691823D01*
X92230024Y-136852242D01*
X92182596Y-136940973D01*
X92151004Y-137000078D01*
X92044659Y-137129659D01*
X91915078Y-137236004D01*
X91915076Y-137236005D01*
X91767242Y-137315024D01*
X91606823Y-137363687D01*
X91481804Y-137376000D01*
X91398196Y-137376000D01*
X91273177Y-137363687D01*
X91112758Y-137315024D01*
X90964924Y-137236005D01*
X90964922Y-137236004D01*
X90835341Y-137129659D01*
X90728996Y-137000078D01*
X90697404Y-136940973D01*
X90649976Y-136852242D01*
X90601313Y-136691823D01*
X90584883Y-136525000D01*
X90601313Y-136358177D01*
X90649976Y-136197758D01*
X90728995Y-136049924D01*
X90728996Y-136049922D01*
X90835341Y-135920341D01*
X90964922Y-135813996D01*
X91041308Y-135773167D01*
X91112758Y-135734976D01*
X91273177Y-135686313D01*
X91398196Y-135674000D01*
X91481804Y-135674000D01*
X91606823Y-135686313D01*
X91606823Y-135686313D01*
G37*
G36*
X106846823Y-135686313D02*
G01*
X107007242Y-135734976D01*
X107078692Y-135773167D01*
X107155078Y-135813996D01*
X107284659Y-135920341D01*
X107391004Y-136049922D01*
X107391005Y-136049924D01*
X107470024Y-136197758D01*
X107518687Y-136358177D01*
X107535117Y-136525000D01*
X107518687Y-136691823D01*
X107470024Y-136852242D01*
X107422596Y-136940973D01*
X107391004Y-137000078D01*
X107284659Y-137129659D01*
X107155078Y-137236004D01*
X107155076Y-137236005D01*
X107007242Y-137315024D01*
X106846823Y-137363687D01*
X106721804Y-137376000D01*
X106638196Y-137376000D01*
X106513177Y-137363687D01*
X106352758Y-137315024D01*
X106204924Y-137236005D01*
X106204922Y-137236004D01*
X106075341Y-137129659D01*
X105968996Y-137000078D01*
X105937404Y-136940973D01*
X105889976Y-136852242D01*
X105841313Y-136691823D01*
X105824883Y-136525000D01*
X105841313Y-136358177D01*
X105889976Y-136197758D01*
X105968995Y-136049924D01*
X105968996Y-136049922D01*
X106075341Y-135920341D01*
X106204922Y-135813996D01*
X106281308Y-135773167D01*
X106352758Y-135734976D01*
X106513177Y-135686313D01*
X106638196Y-135674000D01*
X106721804Y-135674000D01*
X106846823Y-135686313D01*
X106846823Y-135686313D01*
G37*
G36*
X112049000Y-137322000D02*
G01*
X109947000Y-137322000D01*
X109947000Y-135220000D01*
X112049000Y-135220000D01*
X112049000Y-137322000D01*
X112049000Y-137322000D01*
G37*
G36*
X125804564Y-135260389D02*
G01*
X125995833Y-135339615D01*
X125995835Y-135339616D01*
X126167973Y-135454635D01*
X126314365Y-135601027D01*
X126429385Y-135773167D01*
X126508611Y-135964436D01*
X126549000Y-136167484D01*
X126549000Y-136374516D01*
X126508611Y-136577564D01*
X126430774Y-136765480D01*
X126429384Y-136768835D01*
X126314365Y-136940973D01*
X126167973Y-137087365D01*
X125995835Y-137202384D01*
X125995834Y-137202385D01*
X125995833Y-137202385D01*
X125804564Y-137281611D01*
X125601516Y-137322000D01*
X125394484Y-137322000D01*
X125191436Y-137281611D01*
X125000167Y-137202385D01*
X125000166Y-137202385D01*
X125000165Y-137202384D01*
X124828027Y-137087365D01*
X124681635Y-136940973D01*
X124566616Y-136768835D01*
X124565226Y-136765480D01*
X124487389Y-136577564D01*
X124447000Y-136374516D01*
X124447000Y-136167484D01*
X124487389Y-135964436D01*
X124566615Y-135773167D01*
X124681635Y-135601027D01*
X124828027Y-135454635D01*
X125000165Y-135339616D01*
X125000167Y-135339615D01*
X125191436Y-135260389D01*
X125394484Y-135220000D01*
X125601516Y-135220000D01*
X125804564Y-135260389D01*
X125804564Y-135260389D01*
G37*
G36*
X91606823Y-133146313D02*
G01*
X91767242Y-133194976D01*
X91899906Y-133265886D01*
X91915078Y-133273996D01*
X92044659Y-133380341D01*
X92151004Y-133509922D01*
X92151005Y-133509924D01*
X92230024Y-133657758D01*
X92278687Y-133818177D01*
X92295117Y-133985000D01*
X92278687Y-134151823D01*
X92230024Y-134312242D01*
X92159114Y-134444906D01*
X92151004Y-134460078D01*
X92044659Y-134589659D01*
X91915078Y-134696004D01*
X91915076Y-134696005D01*
X91767242Y-134775024D01*
X91606823Y-134823687D01*
X91481804Y-134836000D01*
X91398196Y-134836000D01*
X91273177Y-134823687D01*
X91112758Y-134775024D01*
X90964924Y-134696005D01*
X90964922Y-134696004D01*
X90835341Y-134589659D01*
X90728996Y-134460078D01*
X90720886Y-134444906D01*
X90649976Y-134312242D01*
X90601313Y-134151823D01*
X90584883Y-133985000D01*
X90601313Y-133818177D01*
X90649976Y-133657758D01*
X90728995Y-133509924D01*
X90728996Y-133509922D01*
X90835341Y-133380341D01*
X90964922Y-133273996D01*
X90980094Y-133265886D01*
X91112758Y-133194976D01*
X91273177Y-133146313D01*
X91398196Y-133134000D01*
X91481804Y-133134000D01*
X91606823Y-133146313D01*
X91606823Y-133146313D01*
G37*
G36*
X106846823Y-133146313D02*
G01*
X107007242Y-133194976D01*
X107139906Y-133265886D01*
X107155078Y-133273996D01*
X107284659Y-133380341D01*
X107391004Y-133509922D01*
X107391005Y-133509924D01*
X107470024Y-133657758D01*
X107518687Y-133818177D01*
X107535117Y-133985000D01*
X107518687Y-134151823D01*
X107470024Y-134312242D01*
X107399114Y-134444906D01*
X107391004Y-134460078D01*
X107284659Y-134589659D01*
X107155078Y-134696004D01*
X107155076Y-134696005D01*
X107007242Y-134775024D01*
X106846823Y-134823687D01*
X106721804Y-134836000D01*
X106638196Y-134836000D01*
X106513177Y-134823687D01*
X106352758Y-134775024D01*
X106204924Y-134696005D01*
X106204922Y-134696004D01*
X106075341Y-134589659D01*
X105968996Y-134460078D01*
X105960886Y-134444906D01*
X105889976Y-134312242D01*
X105841313Y-134151823D01*
X105824883Y-133985000D01*
X105841313Y-133818177D01*
X105889976Y-133657758D01*
X105968995Y-133509924D01*
X105968996Y-133509922D01*
X106075341Y-133380341D01*
X106204922Y-133273996D01*
X106220094Y-133265886D01*
X106352758Y-133194976D01*
X106513177Y-133146313D01*
X106638196Y-133134000D01*
X106721804Y-133134000D01*
X106846823Y-133146313D01*
X106846823Y-133146313D01*
G37*
G36*
X120149000Y-134222000D02*
G01*
X116847000Y-134222000D01*
X116847000Y-132120000D01*
X120149000Y-132120000D01*
X120149000Y-134222000D01*
X120149000Y-134222000D01*
G37*
G36*
X133463591Y-131939085D02*
G01*
X133497569Y-131949393D01*
X133528890Y-131966134D01*
X133556339Y-131988661D01*
X133578866Y-132016110D01*
X133595607Y-132047431D01*
X133605915Y-132081409D01*
X133610000Y-132122890D01*
X133610000Y-132799110D01*
X133605915Y-132840591D01*
X133595607Y-132874569D01*
X133578866Y-132905890D01*
X133556339Y-132933339D01*
X133528890Y-132955866D01*
X133497569Y-132972607D01*
X133463591Y-132982915D01*
X133422110Y-132987000D01*
X132820890Y-132987000D01*
X132779409Y-132982915D01*
X132745431Y-132972607D01*
X132714110Y-132955866D01*
X132686661Y-132933339D01*
X132664134Y-132905890D01*
X132647393Y-132874569D01*
X132637085Y-132840591D01*
X132633000Y-132799110D01*
X132633000Y-132122890D01*
X132637085Y-132081409D01*
X132647393Y-132047431D01*
X132664134Y-132016110D01*
X132686661Y-131988661D01*
X132714110Y-131966134D01*
X132745431Y-131949393D01*
X132779409Y-131939085D01*
X132820890Y-131935000D01*
X133422110Y-131935000D01*
X133463591Y-131939085D01*
X133463591Y-131939085D01*
G37*
G36*
X131888591Y-131939085D02*
G01*
X131922569Y-131949393D01*
X131953890Y-131966134D01*
X131981339Y-131988661D01*
X132003866Y-132016110D01*
X132020607Y-132047431D01*
X132030915Y-132081409D01*
X132035000Y-132122890D01*
X132035000Y-132799110D01*
X132030915Y-132840591D01*
X132020607Y-132874569D01*
X132003866Y-132905890D01*
X131981339Y-132933339D01*
X131953890Y-132955866D01*
X131922569Y-132972607D01*
X131888591Y-132982915D01*
X131847110Y-132987000D01*
X131245890Y-132987000D01*
X131204409Y-132982915D01*
X131170431Y-132972607D01*
X131139110Y-132955866D01*
X131111661Y-132933339D01*
X131089134Y-132905890D01*
X131072393Y-132874569D01*
X131062085Y-132840591D01*
X131058000Y-132799110D01*
X131058000Y-132122890D01*
X131062085Y-132081409D01*
X131072393Y-132047431D01*
X131089134Y-132016110D01*
X131111661Y-131988661D01*
X131139110Y-131966134D01*
X131170431Y-131949393D01*
X131204409Y-131939085D01*
X131245890Y-131935000D01*
X131847110Y-131935000D01*
X131888591Y-131939085D01*
X131888591Y-131939085D01*
G37*
G36*
X106846823Y-130606313D02*
G01*
X107007242Y-130654976D01*
X107139906Y-130725886D01*
X107155078Y-130733996D01*
X107284659Y-130840341D01*
X107391004Y-130969922D01*
X107391005Y-130969924D01*
X107470024Y-131117758D01*
X107518687Y-131278177D01*
X107535117Y-131445000D01*
X107518687Y-131611823D01*
X107470024Y-131772242D01*
X107399114Y-131904906D01*
X107391004Y-131920078D01*
X107284659Y-132049659D01*
X107155078Y-132156004D01*
X107155076Y-132156005D01*
X107007242Y-132235024D01*
X106846823Y-132283687D01*
X106721804Y-132296000D01*
X106638196Y-132296000D01*
X106513177Y-132283687D01*
X106352758Y-132235024D01*
X106204924Y-132156005D01*
X106204922Y-132156004D01*
X106075341Y-132049659D01*
X105968996Y-131920078D01*
X105960886Y-131904906D01*
X105889976Y-131772242D01*
X105841313Y-131611823D01*
X105824883Y-131445000D01*
X105841313Y-131278177D01*
X105889976Y-131117758D01*
X105968995Y-130969924D01*
X105968996Y-130969922D01*
X106075341Y-130840341D01*
X106204922Y-130733996D01*
X106220094Y-130725886D01*
X106352758Y-130654976D01*
X106513177Y-130606313D01*
X106638196Y-130594000D01*
X106721804Y-130594000D01*
X106846823Y-130606313D01*
X106846823Y-130606313D01*
G37*
G36*
X91606823Y-130606313D02*
G01*
X91767242Y-130654976D01*
X91899906Y-130725886D01*
X91915078Y-130733996D01*
X92044659Y-130840341D01*
X92151004Y-130969922D01*
X92151005Y-130969924D01*
X92230024Y-131117758D01*
X92278687Y-131278177D01*
X92295117Y-131445000D01*
X92278687Y-131611823D01*
X92230024Y-131772242D01*
X92159114Y-131904906D01*
X92151004Y-131920078D01*
X92044659Y-132049659D01*
X91915078Y-132156004D01*
X91915076Y-132156005D01*
X91767242Y-132235024D01*
X91606823Y-132283687D01*
X91481804Y-132296000D01*
X91398196Y-132296000D01*
X91273177Y-132283687D01*
X91112758Y-132235024D01*
X90964924Y-132156005D01*
X90964922Y-132156004D01*
X90835341Y-132049659D01*
X90728996Y-131920078D01*
X90720886Y-131904906D01*
X90649976Y-131772242D01*
X90601313Y-131611823D01*
X90584883Y-131445000D01*
X90601313Y-131278177D01*
X90649976Y-131117758D01*
X90728995Y-130969924D01*
X90728996Y-130969922D01*
X90835341Y-130840341D01*
X90964922Y-130733996D01*
X90980094Y-130725886D01*
X91112758Y-130654976D01*
X91273177Y-130606313D01*
X91398196Y-130594000D01*
X91481804Y-130594000D01*
X91606823Y-130606313D01*
X91606823Y-130606313D01*
G37*
G36*
X128358091Y-130161085D02*
G01*
X128392069Y-130171393D01*
X128423390Y-130188134D01*
X128450839Y-130210661D01*
X128473366Y-130238110D01*
X128490107Y-130269431D01*
X128500415Y-130303409D01*
X128504500Y-130344890D01*
X128504500Y-131021110D01*
X128500415Y-131062591D01*
X128490107Y-131096569D01*
X128473366Y-131127890D01*
X128450839Y-131155339D01*
X128423390Y-131177866D01*
X128392069Y-131194607D01*
X128358091Y-131204915D01*
X128316610Y-131209000D01*
X127715390Y-131209000D01*
X127673909Y-131204915D01*
X127639931Y-131194607D01*
X127608610Y-131177866D01*
X127581161Y-131155339D01*
X127558634Y-131127890D01*
X127541893Y-131096569D01*
X127531585Y-131062591D01*
X127527500Y-131021110D01*
X127527500Y-130344890D01*
X127531585Y-130303409D01*
X127541893Y-130269431D01*
X127558634Y-130238110D01*
X127581161Y-130210661D01*
X127608610Y-130188134D01*
X127639931Y-130171393D01*
X127673909Y-130161085D01*
X127715390Y-130157000D01*
X128316610Y-130157000D01*
X128358091Y-130161085D01*
X128358091Y-130161085D01*
G37*
G36*
X129933091Y-130161085D02*
G01*
X129967069Y-130171393D01*
X129998390Y-130188134D01*
X130025839Y-130210661D01*
X130048366Y-130238110D01*
X130065107Y-130269431D01*
X130075415Y-130303409D01*
X130079500Y-130344890D01*
X130079500Y-131021110D01*
X130075415Y-131062591D01*
X130065107Y-131096569D01*
X130048366Y-131127890D01*
X130025839Y-131155339D01*
X129998390Y-131177866D01*
X129967069Y-131194607D01*
X129933091Y-131204915D01*
X129891610Y-131209000D01*
X129290390Y-131209000D01*
X129248909Y-131204915D01*
X129214931Y-131194607D01*
X129183610Y-131177866D01*
X129156161Y-131155339D01*
X129133634Y-131127890D01*
X129116893Y-131096569D01*
X129106585Y-131062591D01*
X129102500Y-131021110D01*
X129102500Y-130344890D01*
X129106585Y-130303409D01*
X129116893Y-130269431D01*
X129133634Y-130238110D01*
X129156161Y-130210661D01*
X129183610Y-130188134D01*
X129214931Y-130171393D01*
X129248909Y-130161085D01*
X129290390Y-130157000D01*
X129891610Y-130157000D01*
X129933091Y-130161085D01*
X129933091Y-130161085D01*
G37*
G36*
X131863091Y-130161085D02*
G01*
X131897069Y-130171393D01*
X131928390Y-130188134D01*
X131955839Y-130210661D01*
X131978366Y-130238110D01*
X131995107Y-130269431D01*
X132005415Y-130303409D01*
X132009500Y-130344890D01*
X132009500Y-131021110D01*
X132005415Y-131062591D01*
X131995107Y-131096569D01*
X131978366Y-131127890D01*
X131955839Y-131155339D01*
X131928390Y-131177866D01*
X131897069Y-131194607D01*
X131863091Y-131204915D01*
X131821610Y-131209000D01*
X131220390Y-131209000D01*
X131178909Y-131204915D01*
X131144931Y-131194607D01*
X131113610Y-131177866D01*
X131086161Y-131155339D01*
X131063634Y-131127890D01*
X131046893Y-131096569D01*
X131036585Y-131062591D01*
X131032500Y-131021110D01*
X131032500Y-130344890D01*
X131036585Y-130303409D01*
X131046893Y-130269431D01*
X131063634Y-130238110D01*
X131086161Y-130210661D01*
X131113610Y-130188134D01*
X131144931Y-130171393D01*
X131178909Y-130161085D01*
X131220390Y-130157000D01*
X131821610Y-130157000D01*
X131863091Y-130161085D01*
X131863091Y-130161085D01*
G37*
G36*
X133438091Y-130161085D02*
G01*
X133472069Y-130171393D01*
X133503390Y-130188134D01*
X133530839Y-130210661D01*
X133553366Y-130238110D01*
X133570107Y-130269431D01*
X133580415Y-130303409D01*
X133584500Y-130344890D01*
X133584500Y-131021110D01*
X133580415Y-131062591D01*
X133570107Y-131096569D01*
X133553366Y-131127890D01*
X133530839Y-131155339D01*
X133503390Y-131177866D01*
X133472069Y-131194607D01*
X133438091Y-131204915D01*
X133396610Y-131209000D01*
X132795390Y-131209000D01*
X132753909Y-131204915D01*
X132719931Y-131194607D01*
X132688610Y-131177866D01*
X132661161Y-131155339D01*
X132638634Y-131127890D01*
X132621893Y-131096569D01*
X132611585Y-131062591D01*
X132607500Y-131021110D01*
X132607500Y-130344890D01*
X132611585Y-130303409D01*
X132621893Y-130269431D01*
X132638634Y-130238110D01*
X132661161Y-130210661D01*
X132688610Y-130188134D01*
X132719931Y-130171393D01*
X132753909Y-130161085D01*
X132795390Y-130157000D01*
X133396610Y-130157000D01*
X133438091Y-130161085D01*
X133438091Y-130161085D01*
G37*
G36*
X123876000Y-130947409D02*
G01*
X122453200Y-130947409D01*
X122453200Y-130286609D01*
X123876000Y-130286609D01*
X123876000Y-130947409D01*
X123876000Y-130947409D01*
G37*
G36*
X126466800Y-130947409D02*
G01*
X125044000Y-130947409D01*
X125044000Y-130286609D01*
X126466800Y-130286609D01*
X126466800Y-130947409D01*
X126466800Y-130947409D01*
G37*
G36*
X126466800Y-129997400D02*
G01*
X125044000Y-129997400D01*
X125044000Y-129336600D01*
X126466800Y-129336600D01*
X126466800Y-129997400D01*
X126466800Y-129997400D01*
G37*
G36*
X123876000Y-129997400D02*
G01*
X122453200Y-129997400D01*
X122453200Y-129336600D01*
X123876000Y-129336600D01*
X123876000Y-129997400D01*
X123876000Y-129997400D01*
G37*
G36*
X91606823Y-128066313D02*
G01*
X91767242Y-128114976D01*
X91844243Y-128156134D01*
X91915078Y-128193996D01*
X92044659Y-128300341D01*
X92151004Y-128429922D01*
X92151005Y-128429924D01*
X92230024Y-128577758D01*
X92278687Y-128738177D01*
X92295117Y-128905000D01*
X92278687Y-129071823D01*
X92230024Y-129232242D01*
X92174243Y-129336600D01*
X92151004Y-129380078D01*
X92044659Y-129509659D01*
X91915078Y-129616004D01*
X91915076Y-129616005D01*
X91767242Y-129695024D01*
X91606823Y-129743687D01*
X91481804Y-129756000D01*
X91398196Y-129756000D01*
X91273177Y-129743687D01*
X91112758Y-129695024D01*
X90964924Y-129616005D01*
X90964922Y-129616004D01*
X90835341Y-129509659D01*
X90728996Y-129380078D01*
X90705757Y-129336600D01*
X90649976Y-129232242D01*
X90601313Y-129071823D01*
X90584883Y-128905000D01*
X90601313Y-128738177D01*
X90649976Y-128577758D01*
X90728995Y-128429924D01*
X90728996Y-128429922D01*
X90835341Y-128300341D01*
X90964922Y-128193996D01*
X91035757Y-128156134D01*
X91112758Y-128114976D01*
X91273177Y-128066313D01*
X91398196Y-128054000D01*
X91481804Y-128054000D01*
X91606823Y-128066313D01*
X91606823Y-128066313D01*
G37*
G36*
X106846823Y-128066313D02*
G01*
X107007242Y-128114976D01*
X107084243Y-128156134D01*
X107155078Y-128193996D01*
X107284659Y-128300341D01*
X107391004Y-128429922D01*
X107391005Y-128429924D01*
X107470024Y-128577758D01*
X107518687Y-128738177D01*
X107535117Y-128905000D01*
X107518687Y-129071823D01*
X107470024Y-129232242D01*
X107414243Y-129336600D01*
X107391004Y-129380078D01*
X107284659Y-129509659D01*
X107155078Y-129616004D01*
X107155076Y-129616005D01*
X107007242Y-129695024D01*
X106846823Y-129743687D01*
X106721804Y-129756000D01*
X106638196Y-129756000D01*
X106513177Y-129743687D01*
X106352758Y-129695024D01*
X106204924Y-129616005D01*
X106204922Y-129616004D01*
X106075341Y-129509659D01*
X105968996Y-129380078D01*
X105945757Y-129336600D01*
X105889976Y-129232242D01*
X105841313Y-129071823D01*
X105824883Y-128905000D01*
X105841313Y-128738177D01*
X105889976Y-128577758D01*
X105968995Y-128429924D01*
X105968996Y-128429922D01*
X106075341Y-128300341D01*
X106204922Y-128193996D01*
X106275757Y-128156134D01*
X106352758Y-128114976D01*
X106513177Y-128066313D01*
X106638196Y-128054000D01*
X106721804Y-128054000D01*
X106846823Y-128066313D01*
X106846823Y-128066313D01*
G37*
G36*
X128332591Y-128129085D02*
G01*
X128366569Y-128139393D01*
X128397890Y-128156134D01*
X128425339Y-128178661D01*
X128447866Y-128206110D01*
X128464607Y-128237431D01*
X128474915Y-128271409D01*
X128479000Y-128312890D01*
X128479000Y-128989110D01*
X128474915Y-129030591D01*
X128464607Y-129064569D01*
X128447866Y-129095890D01*
X128425339Y-129123339D01*
X128397890Y-129145866D01*
X128366569Y-129162607D01*
X128332591Y-129172915D01*
X128291110Y-129177000D01*
X127689890Y-129177000D01*
X127648409Y-129172915D01*
X127614431Y-129162607D01*
X127583110Y-129145866D01*
X127555661Y-129123339D01*
X127533134Y-129095890D01*
X127516393Y-129064569D01*
X127506085Y-129030591D01*
X127502000Y-128989110D01*
X127502000Y-128312890D01*
X127506085Y-128271409D01*
X127516393Y-128237431D01*
X127533134Y-128206110D01*
X127555661Y-128178661D01*
X127583110Y-128156134D01*
X127614431Y-128139393D01*
X127648409Y-128129085D01*
X127689890Y-128125000D01*
X128291110Y-128125000D01*
X128332591Y-128129085D01*
X128332591Y-128129085D01*
G37*
G36*
X129907591Y-128129085D02*
G01*
X129941569Y-128139393D01*
X129972890Y-128156134D01*
X130000339Y-128178661D01*
X130022866Y-128206110D01*
X130039607Y-128237431D01*
X130049915Y-128271409D01*
X130054000Y-128312890D01*
X130054000Y-128989110D01*
X130049915Y-129030591D01*
X130039607Y-129064569D01*
X130022866Y-129095890D01*
X130000339Y-129123339D01*
X129972890Y-129145866D01*
X129941569Y-129162607D01*
X129907591Y-129172915D01*
X129866110Y-129177000D01*
X129264890Y-129177000D01*
X129223409Y-129172915D01*
X129189431Y-129162607D01*
X129158110Y-129145866D01*
X129130661Y-129123339D01*
X129108134Y-129095890D01*
X129091393Y-129064569D01*
X129081085Y-129030591D01*
X129077000Y-128989110D01*
X129077000Y-128312890D01*
X129081085Y-128271409D01*
X129091393Y-128237431D01*
X129108134Y-128206110D01*
X129130661Y-128178661D01*
X129158110Y-128156134D01*
X129189431Y-128139393D01*
X129223409Y-128129085D01*
X129264890Y-128125000D01*
X129866110Y-128125000D01*
X129907591Y-128129085D01*
X129907591Y-128129085D01*
G37*
G36*
X126466800Y-129047391D02*
G01*
X125044000Y-129047391D01*
X125044000Y-128386591D01*
X126466800Y-128386591D01*
X126466800Y-129047391D01*
X126466800Y-129047391D01*
G37*
G36*
X123876000Y-129047391D02*
G01*
X122453200Y-129047391D01*
X122453200Y-128386591D01*
X123876000Y-128386591D01*
X123876000Y-129047391D01*
X123876000Y-129047391D01*
G37*
G36*
X121791591Y-126668085D02*
G01*
X121825569Y-126678393D01*
X121856890Y-126695134D01*
X121884339Y-126717661D01*
X121906866Y-126745110D01*
X121923607Y-126776431D01*
X121933915Y-126810409D01*
X121938000Y-126851890D01*
X121938000Y-127453110D01*
X121933915Y-127494591D01*
X121923607Y-127528569D01*
X121906866Y-127559890D01*
X121884339Y-127587339D01*
X121856890Y-127609866D01*
X121825569Y-127626607D01*
X121791591Y-127636915D01*
X121750110Y-127641000D01*
X121073890Y-127641000D01*
X121032409Y-127636915D01*
X120998431Y-127626607D01*
X120967110Y-127609866D01*
X120939661Y-127587339D01*
X120917134Y-127559890D01*
X120900393Y-127528569D01*
X120890085Y-127494591D01*
X120886000Y-127453110D01*
X120886000Y-126851890D01*
X120890085Y-126810409D01*
X120900393Y-126776431D01*
X120917134Y-126745110D01*
X120939661Y-126717661D01*
X120967110Y-126695134D01*
X120998431Y-126678393D01*
X121032409Y-126668085D01*
X121073890Y-126664000D01*
X121750110Y-126664000D01*
X121791591Y-126668085D01*
X121791591Y-126668085D01*
G37*
G36*
X123569591Y-126668085D02*
G01*
X123603569Y-126678393D01*
X123634890Y-126695134D01*
X123662339Y-126717661D01*
X123684866Y-126745110D01*
X123701607Y-126776431D01*
X123711915Y-126810409D01*
X123716000Y-126851890D01*
X123716000Y-127453110D01*
X123711915Y-127494591D01*
X123701607Y-127528569D01*
X123684866Y-127559890D01*
X123662339Y-127587339D01*
X123634890Y-127609866D01*
X123603569Y-127626607D01*
X123569591Y-127636915D01*
X123528110Y-127641000D01*
X122851890Y-127641000D01*
X122810409Y-127636915D01*
X122776431Y-127626607D01*
X122745110Y-127609866D01*
X122717661Y-127587339D01*
X122695134Y-127559890D01*
X122678393Y-127528569D01*
X122668085Y-127494591D01*
X122664000Y-127453110D01*
X122664000Y-126851890D01*
X122668085Y-126810409D01*
X122678393Y-126776431D01*
X122695134Y-126745110D01*
X122717661Y-126717661D01*
X122745110Y-126695134D01*
X122776431Y-126678393D01*
X122810409Y-126668085D01*
X122851890Y-126664000D01*
X123528110Y-126664000D01*
X123569591Y-126668085D01*
X123569591Y-126668085D01*
G37*
G36*
X106846823Y-125526313D02*
G01*
X107007242Y-125574976D01*
X107139906Y-125645886D01*
X107155078Y-125653996D01*
X107284659Y-125760341D01*
X107391004Y-125889922D01*
X107391005Y-125889924D01*
X107470024Y-126037758D01*
X107518687Y-126198177D01*
X107535117Y-126365000D01*
X107518687Y-126531823D01*
X107470024Y-126692242D01*
X107456437Y-126717661D01*
X107391004Y-126840078D01*
X107284659Y-126969659D01*
X107155078Y-127076004D01*
X107155076Y-127076005D01*
X107007242Y-127155024D01*
X106846823Y-127203687D01*
X106721804Y-127216000D01*
X106638196Y-127216000D01*
X106513177Y-127203687D01*
X106352758Y-127155024D01*
X106204924Y-127076005D01*
X106204922Y-127076004D01*
X106075341Y-126969659D01*
X105968996Y-126840078D01*
X105903563Y-126717661D01*
X105889976Y-126692242D01*
X105841313Y-126531823D01*
X105824883Y-126365000D01*
X105841313Y-126198177D01*
X105889976Y-126037758D01*
X105968995Y-125889924D01*
X105968996Y-125889922D01*
X106075341Y-125760341D01*
X106204922Y-125653996D01*
X106220094Y-125645886D01*
X106352758Y-125574976D01*
X106513177Y-125526313D01*
X106638196Y-125514000D01*
X106721804Y-125514000D01*
X106846823Y-125526313D01*
X106846823Y-125526313D01*
G37*
G36*
X91606823Y-125526313D02*
G01*
X91767242Y-125574976D01*
X91899906Y-125645886D01*
X91915078Y-125653996D01*
X92044659Y-125760341D01*
X92151004Y-125889922D01*
X92151005Y-125889924D01*
X92230024Y-126037758D01*
X92278687Y-126198177D01*
X92295117Y-126365000D01*
X92278687Y-126531823D01*
X92230024Y-126692242D01*
X92216437Y-126717661D01*
X92151004Y-126840078D01*
X92044659Y-126969659D01*
X91915078Y-127076004D01*
X91915076Y-127076005D01*
X91767242Y-127155024D01*
X91606823Y-127203687D01*
X91481804Y-127216000D01*
X91398196Y-127216000D01*
X91273177Y-127203687D01*
X91112758Y-127155024D01*
X90964924Y-127076005D01*
X90964922Y-127076004D01*
X90835341Y-126969659D01*
X90728996Y-126840078D01*
X90663563Y-126717661D01*
X90649976Y-126692242D01*
X90601313Y-126531823D01*
X90584883Y-126365000D01*
X90601313Y-126198177D01*
X90649976Y-126037758D01*
X90728995Y-125889924D01*
X90728996Y-125889922D01*
X90835341Y-125760341D01*
X90964922Y-125653996D01*
X90980094Y-125645886D01*
X91112758Y-125574976D01*
X91273177Y-125526313D01*
X91398196Y-125514000D01*
X91481804Y-125514000D01*
X91606823Y-125526313D01*
X91606823Y-125526313D01*
G37*
G36*
X121791591Y-125093085D02*
G01*
X121825569Y-125103393D01*
X121856890Y-125120134D01*
X121884339Y-125142661D01*
X121906866Y-125170110D01*
X121923607Y-125201431D01*
X121933915Y-125235409D01*
X121938000Y-125276890D01*
X121938000Y-125878110D01*
X121933915Y-125919591D01*
X121923607Y-125953569D01*
X121906866Y-125984890D01*
X121884339Y-126012339D01*
X121856890Y-126034866D01*
X121825569Y-126051607D01*
X121791591Y-126061915D01*
X121750110Y-126066000D01*
X121073890Y-126066000D01*
X121032409Y-126061915D01*
X120998431Y-126051607D01*
X120967110Y-126034866D01*
X120939661Y-126012339D01*
X120917134Y-125984890D01*
X120900393Y-125953569D01*
X120890085Y-125919591D01*
X120886000Y-125878110D01*
X120886000Y-125276890D01*
X120890085Y-125235409D01*
X120900393Y-125201431D01*
X120917134Y-125170110D01*
X120939661Y-125142661D01*
X120967110Y-125120134D01*
X120998431Y-125103393D01*
X121032409Y-125093085D01*
X121073890Y-125089000D01*
X121750110Y-125089000D01*
X121791591Y-125093085D01*
X121791591Y-125093085D01*
G37*
G36*
X123569591Y-125093085D02*
G01*
X123603569Y-125103393D01*
X123634890Y-125120134D01*
X123662339Y-125142661D01*
X123684866Y-125170110D01*
X123701607Y-125201431D01*
X123711915Y-125235409D01*
X123716000Y-125276890D01*
X123716000Y-125878110D01*
X123711915Y-125919591D01*
X123701607Y-125953569D01*
X123684866Y-125984890D01*
X123662339Y-126012339D01*
X123634890Y-126034866D01*
X123603569Y-126051607D01*
X123569591Y-126061915D01*
X123528110Y-126066000D01*
X122851890Y-126066000D01*
X122810409Y-126061915D01*
X122776431Y-126051607D01*
X122745110Y-126034866D01*
X122717661Y-126012339D01*
X122695134Y-125984890D01*
X122678393Y-125953569D01*
X122668085Y-125919591D01*
X122664000Y-125878110D01*
X122664000Y-125276890D01*
X122668085Y-125235409D01*
X122678393Y-125201431D01*
X122695134Y-125170110D01*
X122717661Y-125142661D01*
X122745110Y-125120134D01*
X122776431Y-125103393D01*
X122810409Y-125093085D01*
X122851890Y-125089000D01*
X123528110Y-125089000D01*
X123569591Y-125093085D01*
X123569591Y-125093085D01*
G37*
G36*
X181755936Y-123461340D02*
G01*
X181854220Y-123471020D01*
X182043381Y-123528401D01*
X182217712Y-123621583D01*
X182370515Y-123746985D01*
X182495917Y-123899788D01*
X182589099Y-124074119D01*
X182646480Y-124263280D01*
X182665855Y-124460000D01*
X182646480Y-124656720D01*
X182589099Y-124845881D01*
X182495917Y-125020212D01*
X182370515Y-125173015D01*
X182217712Y-125298417D01*
X182043381Y-125391599D01*
X181854220Y-125448980D01*
X181755936Y-125458660D01*
X181706795Y-125463500D01*
X181513205Y-125463500D01*
X181464064Y-125458660D01*
X181365780Y-125448980D01*
X181176619Y-125391599D01*
X181002288Y-125298417D01*
X180849485Y-125173015D01*
X180724083Y-125020212D01*
X180630901Y-124845881D01*
X180573520Y-124656720D01*
X180554145Y-124460000D01*
X180573520Y-124263280D01*
X180630901Y-124074119D01*
X180724083Y-123899788D01*
X180849485Y-123746985D01*
X181002288Y-123621583D01*
X181176619Y-123528401D01*
X181365780Y-123471020D01*
X181464064Y-123461340D01*
X181513205Y-123456500D01*
X181706795Y-123456500D01*
X181755936Y-123461340D01*
X181755936Y-123461340D01*
G37*
G36*
X154680228Y-123768703D02*
G01*
X154835100Y-123832853D01*
X154974481Y-123925985D01*
X155093015Y-124044519D01*
X155186147Y-124183900D01*
X155250297Y-124338772D01*
X155283000Y-124503184D01*
X155283000Y-124670816D01*
X155250297Y-124835228D01*
X155186147Y-124990100D01*
X155093015Y-125129481D01*
X154974481Y-125248015D01*
X154835100Y-125341147D01*
X154680228Y-125405297D01*
X154515816Y-125438000D01*
X154348184Y-125438000D01*
X154183772Y-125405297D01*
X154028900Y-125341147D01*
X153889519Y-125248015D01*
X153770985Y-125129481D01*
X153677853Y-124990100D01*
X153613703Y-124835228D01*
X153581000Y-124670816D01*
X153581000Y-124503184D01*
X153613703Y-124338772D01*
X153677853Y-124183900D01*
X153770985Y-124044519D01*
X153889519Y-123925985D01*
X154028900Y-123832853D01*
X154183772Y-123768703D01*
X154348184Y-123736000D01*
X154515816Y-123736000D01*
X154680228Y-123768703D01*
X154680228Y-123768703D01*
G37*
G36*
X174918823Y-123748313D02*
G01*
X175079242Y-123796976D01*
X175146361Y-123832852D01*
X175227078Y-123875996D01*
X175356659Y-123982341D01*
X175463004Y-124111922D01*
X175463005Y-124111924D01*
X175542024Y-124259758D01*
X175590687Y-124420177D01*
X175607117Y-124587000D01*
X175590687Y-124753823D01*
X175542024Y-124914242D01*
X175501477Y-124990100D01*
X175463004Y-125062078D01*
X175356659Y-125191659D01*
X175227078Y-125298004D01*
X175227076Y-125298005D01*
X175079242Y-125377024D01*
X174918823Y-125425687D01*
X174793804Y-125438000D01*
X174710196Y-125438000D01*
X174585177Y-125425687D01*
X174424758Y-125377024D01*
X174276924Y-125298005D01*
X174276922Y-125298004D01*
X174147341Y-125191659D01*
X174040996Y-125062078D01*
X174002523Y-124990100D01*
X173961976Y-124914242D01*
X173913313Y-124753823D01*
X173896883Y-124587000D01*
X173913313Y-124420177D01*
X173961976Y-124259758D01*
X174040995Y-124111924D01*
X174040996Y-124111922D01*
X174147341Y-123982341D01*
X174276922Y-123875996D01*
X174357639Y-123832852D01*
X174424758Y-123796976D01*
X174585177Y-123748313D01*
X174710196Y-123736000D01*
X174793804Y-123736000D01*
X174918823Y-123748313D01*
X174918823Y-123748313D01*
G37*
G36*
X91606823Y-122986313D02*
G01*
X91767242Y-123034976D01*
X91899906Y-123105886D01*
X91915078Y-123113996D01*
X92044659Y-123220341D01*
X92151004Y-123349922D01*
X92151005Y-123349924D01*
X92230024Y-123497758D01*
X92278687Y-123658177D01*
X92295117Y-123825000D01*
X92278687Y-123991823D01*
X92230024Y-124152242D01*
X92172555Y-124259758D01*
X92151004Y-124300078D01*
X92044659Y-124429659D01*
X91915078Y-124536004D01*
X91915076Y-124536005D01*
X91767242Y-124615024D01*
X91606823Y-124663687D01*
X91481804Y-124676000D01*
X91398196Y-124676000D01*
X91273177Y-124663687D01*
X91112758Y-124615024D01*
X90964924Y-124536005D01*
X90964922Y-124536004D01*
X90835341Y-124429659D01*
X90728996Y-124300078D01*
X90707445Y-124259758D01*
X90649976Y-124152242D01*
X90601313Y-123991823D01*
X90584883Y-123825000D01*
X90601313Y-123658177D01*
X90649976Y-123497758D01*
X90728995Y-123349924D01*
X90728996Y-123349922D01*
X90835341Y-123220341D01*
X90964922Y-123113996D01*
X90980094Y-123105886D01*
X91112758Y-123034976D01*
X91273177Y-122986313D01*
X91398196Y-122974000D01*
X91481804Y-122974000D01*
X91606823Y-122986313D01*
X91606823Y-122986313D01*
G37*
G36*
X106846823Y-122986313D02*
G01*
X107007242Y-123034976D01*
X107139906Y-123105886D01*
X107155078Y-123113996D01*
X107284659Y-123220341D01*
X107391004Y-123349922D01*
X107391005Y-123349924D01*
X107470024Y-123497758D01*
X107518687Y-123658177D01*
X107535117Y-123825000D01*
X107518687Y-123991823D01*
X107470024Y-124152242D01*
X107412555Y-124259758D01*
X107391004Y-124300078D01*
X107284659Y-124429659D01*
X107155078Y-124536004D01*
X107155076Y-124536005D01*
X107007242Y-124615024D01*
X106846823Y-124663687D01*
X106721804Y-124676000D01*
X106638196Y-124676000D01*
X106513177Y-124663687D01*
X106352758Y-124615024D01*
X106204924Y-124536005D01*
X106204922Y-124536004D01*
X106075341Y-124429659D01*
X105968996Y-124300078D01*
X105947445Y-124259758D01*
X105889976Y-124152242D01*
X105841313Y-123991823D01*
X105824883Y-123825000D01*
X105841313Y-123658177D01*
X105889976Y-123497758D01*
X105968995Y-123349924D01*
X105968996Y-123349922D01*
X106075341Y-123220341D01*
X106204922Y-123113996D01*
X106220094Y-123105886D01*
X106352758Y-123034976D01*
X106513177Y-122986313D01*
X106638196Y-122974000D01*
X106721804Y-122974000D01*
X106846823Y-122986313D01*
X106846823Y-122986313D01*
G37*
G36*
X129399591Y-122541085D02*
G01*
X129433569Y-122551393D01*
X129464890Y-122568134D01*
X129492339Y-122590661D01*
X129514866Y-122618110D01*
X129531607Y-122649431D01*
X129541915Y-122683409D01*
X129546000Y-122724890D01*
X129546000Y-123401110D01*
X129541915Y-123442591D01*
X129531607Y-123476569D01*
X129514866Y-123507890D01*
X129492339Y-123535339D01*
X129464890Y-123557866D01*
X129433569Y-123574607D01*
X129399591Y-123584915D01*
X129358110Y-123589000D01*
X128756890Y-123589000D01*
X128715409Y-123584915D01*
X128681431Y-123574607D01*
X128650110Y-123557866D01*
X128622661Y-123535339D01*
X128600134Y-123507890D01*
X128583393Y-123476569D01*
X128573085Y-123442591D01*
X128569000Y-123401110D01*
X128569000Y-122724890D01*
X128573085Y-122683409D01*
X128583393Y-122649431D01*
X128600134Y-122618110D01*
X128622661Y-122590661D01*
X128650110Y-122568134D01*
X128681431Y-122551393D01*
X128715409Y-122541085D01*
X128756890Y-122537000D01*
X129358110Y-122537000D01*
X129399591Y-122541085D01*
X129399591Y-122541085D01*
G37*
G36*
X127824591Y-122541085D02*
G01*
X127858569Y-122551393D01*
X127889890Y-122568134D01*
X127917339Y-122590661D01*
X127939866Y-122618110D01*
X127956607Y-122649431D01*
X127966915Y-122683409D01*
X127971000Y-122724890D01*
X127971000Y-123401110D01*
X127966915Y-123442591D01*
X127956607Y-123476569D01*
X127939866Y-123507890D01*
X127917339Y-123535339D01*
X127889890Y-123557866D01*
X127858569Y-123574607D01*
X127824591Y-123584915D01*
X127783110Y-123589000D01*
X127181890Y-123589000D01*
X127140409Y-123584915D01*
X127106431Y-123574607D01*
X127075110Y-123557866D01*
X127047661Y-123535339D01*
X127025134Y-123507890D01*
X127008393Y-123476569D01*
X126998085Y-123442591D01*
X126994000Y-123401110D01*
X126994000Y-122724890D01*
X126998085Y-122683409D01*
X127008393Y-122649431D01*
X127025134Y-122618110D01*
X127047661Y-122590661D01*
X127075110Y-122568134D01*
X127106431Y-122551393D01*
X127140409Y-122541085D01*
X127181890Y-122537000D01*
X127783110Y-122537000D01*
X127824591Y-122541085D01*
X127824591Y-122541085D01*
G37*
G36*
X181755936Y-120921340D02*
G01*
X181854220Y-120931020D01*
X182043381Y-120988401D01*
X182217712Y-121081583D01*
X182370515Y-121206985D01*
X182495917Y-121359788D01*
X182589099Y-121534119D01*
X182646480Y-121723280D01*
X182665855Y-121920000D01*
X182646480Y-122116720D01*
X182589099Y-122305881D01*
X182495917Y-122480212D01*
X182370515Y-122633015D01*
X182217712Y-122758417D01*
X182043381Y-122851599D01*
X181854220Y-122908980D01*
X181755936Y-122918660D01*
X181706795Y-122923500D01*
X181513205Y-122923500D01*
X181464064Y-122918660D01*
X181365780Y-122908980D01*
X181176619Y-122851599D01*
X181002288Y-122758417D01*
X180849485Y-122633015D01*
X180724083Y-122480212D01*
X180630901Y-122305881D01*
X180573520Y-122116720D01*
X180554145Y-121920000D01*
X180573520Y-121723280D01*
X180630901Y-121534119D01*
X180724083Y-121359788D01*
X180849485Y-121206985D01*
X181002288Y-121081583D01*
X181176619Y-120988401D01*
X181365780Y-120931020D01*
X181464064Y-120921340D01*
X181513205Y-120916500D01*
X181706795Y-120916500D01*
X181755936Y-120921340D01*
X181755936Y-120921340D01*
G37*
G36*
X106846823Y-120446313D02*
G01*
X107007242Y-120494976D01*
X107139906Y-120565886D01*
X107155078Y-120573996D01*
X107284659Y-120680341D01*
X107391004Y-120809922D01*
X107391005Y-120809924D01*
X107470024Y-120957758D01*
X107518687Y-121118177D01*
X107535117Y-121285000D01*
X107518687Y-121451823D01*
X107470024Y-121612242D01*
X107423881Y-121698569D01*
X107391004Y-121760078D01*
X107284659Y-121889659D01*
X107155078Y-121996004D01*
X107155076Y-121996005D01*
X107007242Y-122075024D01*
X106846823Y-122123687D01*
X106721804Y-122136000D01*
X106638196Y-122136000D01*
X106513177Y-122123687D01*
X106352758Y-122075024D01*
X106204924Y-121996005D01*
X106204922Y-121996004D01*
X106075341Y-121889659D01*
X105968996Y-121760078D01*
X105936119Y-121698569D01*
X105889976Y-121612242D01*
X105841313Y-121451823D01*
X105824883Y-121285000D01*
X105841313Y-121118177D01*
X105889976Y-120957758D01*
X105968995Y-120809924D01*
X105968996Y-120809922D01*
X106075341Y-120680341D01*
X106204922Y-120573996D01*
X106220094Y-120565886D01*
X106352758Y-120494976D01*
X106513177Y-120446313D01*
X106638196Y-120434000D01*
X106721804Y-120434000D01*
X106846823Y-120446313D01*
X106846823Y-120446313D01*
G37*
G36*
X91606823Y-120446313D02*
G01*
X91767242Y-120494976D01*
X91899906Y-120565886D01*
X91915078Y-120573996D01*
X92044659Y-120680341D01*
X92151004Y-120809922D01*
X92151005Y-120809924D01*
X92230024Y-120957758D01*
X92278687Y-121118177D01*
X92295117Y-121285000D01*
X92278687Y-121451823D01*
X92230024Y-121612242D01*
X92183881Y-121698569D01*
X92151004Y-121760078D01*
X92044659Y-121889659D01*
X91915078Y-121996004D01*
X91915076Y-121996005D01*
X91767242Y-122075024D01*
X91606823Y-122123687D01*
X91481804Y-122136000D01*
X91398196Y-122136000D01*
X91273177Y-122123687D01*
X91112758Y-122075024D01*
X90964924Y-121996005D01*
X90964922Y-121996004D01*
X90835341Y-121889659D01*
X90728996Y-121760078D01*
X90696119Y-121698569D01*
X90649976Y-121612242D01*
X90601313Y-121451823D01*
X90584883Y-121285000D01*
X90601313Y-121118177D01*
X90649976Y-120957758D01*
X90728995Y-120809924D01*
X90728996Y-120809922D01*
X90835341Y-120680341D01*
X90964922Y-120573996D01*
X90980094Y-120565886D01*
X91112758Y-120494976D01*
X91273177Y-120446313D01*
X91398196Y-120434000D01*
X91481804Y-120434000D01*
X91606823Y-120446313D01*
X91606823Y-120446313D01*
G37*
G36*
X127824591Y-120763085D02*
G01*
X127858569Y-120773393D01*
X127889890Y-120790134D01*
X127917339Y-120812661D01*
X127939866Y-120840110D01*
X127956607Y-120871431D01*
X127966915Y-120905409D01*
X127971000Y-120946890D01*
X127971000Y-121623110D01*
X127966915Y-121664591D01*
X127956607Y-121698569D01*
X127939866Y-121729890D01*
X127917339Y-121757339D01*
X127889890Y-121779866D01*
X127858569Y-121796607D01*
X127824591Y-121806915D01*
X127783110Y-121811000D01*
X127181890Y-121811000D01*
X127140409Y-121806915D01*
X127106431Y-121796607D01*
X127075110Y-121779866D01*
X127047661Y-121757339D01*
X127025134Y-121729890D01*
X127008393Y-121698569D01*
X126998085Y-121664591D01*
X126994000Y-121623110D01*
X126994000Y-120946890D01*
X126998085Y-120905409D01*
X127008393Y-120871431D01*
X127025134Y-120840110D01*
X127047661Y-120812661D01*
X127075110Y-120790134D01*
X127106431Y-120773393D01*
X127140409Y-120763085D01*
X127181890Y-120759000D01*
X127783110Y-120759000D01*
X127824591Y-120763085D01*
X127824591Y-120763085D01*
G37*
G36*
X129399591Y-120763085D02*
G01*
X129433569Y-120773393D01*
X129464890Y-120790134D01*
X129492339Y-120812661D01*
X129514866Y-120840110D01*
X129531607Y-120871431D01*
X129541915Y-120905409D01*
X129546000Y-120946890D01*
X129546000Y-121623110D01*
X129541915Y-121664591D01*
X129531607Y-121698569D01*
X129514866Y-121729890D01*
X129492339Y-121757339D01*
X129464890Y-121779866D01*
X129433569Y-121796607D01*
X129399591Y-121806915D01*
X129358110Y-121811000D01*
X128756890Y-121811000D01*
X128715409Y-121806915D01*
X128681431Y-121796607D01*
X128650110Y-121779866D01*
X128622661Y-121757339D01*
X128600134Y-121729890D01*
X128583393Y-121698569D01*
X128573085Y-121664591D01*
X128569000Y-121623110D01*
X128569000Y-120946890D01*
X128573085Y-120905409D01*
X128583393Y-120871431D01*
X128600134Y-120840110D01*
X128622661Y-120812661D01*
X128650110Y-120790134D01*
X128681431Y-120773393D01*
X128715409Y-120763085D01*
X128756890Y-120759000D01*
X129358110Y-120759000D01*
X129399591Y-120763085D01*
X129399591Y-120763085D01*
G37*
G36*
X138125400Y-121107400D02*
G01*
X135839000Y-121107400D01*
X135839000Y-120446600D01*
X138125400Y-120446600D01*
X138125400Y-121107400D01*
X138125400Y-121107400D01*
G37*
G36*
X133401000Y-121107400D02*
G01*
X131114600Y-121107400D01*
X131114600Y-120446600D01*
X133401000Y-120446600D01*
X133401000Y-121107400D01*
X133401000Y-121107400D01*
G37*
G36*
X182661000Y-120383500D02*
G01*
X180559000Y-120383500D01*
X180559000Y-118376500D01*
X182661000Y-118376500D01*
X182661000Y-120383500D01*
X182661000Y-120383500D01*
G37*
G36*
X127824591Y-118985085D02*
G01*
X127858569Y-118995393D01*
X127889890Y-119012134D01*
X127917339Y-119034661D01*
X127939866Y-119062110D01*
X127956607Y-119093431D01*
X127966915Y-119127409D01*
X127971000Y-119168890D01*
X127971000Y-119845110D01*
X127966915Y-119886591D01*
X127956607Y-119920569D01*
X127939866Y-119951890D01*
X127917339Y-119979339D01*
X127889890Y-120001866D01*
X127858569Y-120018607D01*
X127824591Y-120028915D01*
X127783110Y-120033000D01*
X127181890Y-120033000D01*
X127140409Y-120028915D01*
X127106431Y-120018607D01*
X127075110Y-120001866D01*
X127047661Y-119979339D01*
X127025134Y-119951890D01*
X127008393Y-119920569D01*
X126998085Y-119886591D01*
X126994000Y-119845110D01*
X126994000Y-119168890D01*
X126998085Y-119127409D01*
X127008393Y-119093431D01*
X127025134Y-119062110D01*
X127047661Y-119034661D01*
X127075110Y-119012134D01*
X127106431Y-118995393D01*
X127140409Y-118985085D01*
X127181890Y-118981000D01*
X127783110Y-118981000D01*
X127824591Y-118985085D01*
X127824591Y-118985085D01*
G37*
G36*
X129399591Y-118985085D02*
G01*
X129433569Y-118995393D01*
X129464890Y-119012134D01*
X129492339Y-119034661D01*
X129514866Y-119062110D01*
X129531607Y-119093431D01*
X129541915Y-119127409D01*
X129546000Y-119168890D01*
X129546000Y-119845110D01*
X129541915Y-119886591D01*
X129531607Y-119920569D01*
X129514866Y-119951890D01*
X129492339Y-119979339D01*
X129464890Y-120001866D01*
X129433569Y-120018607D01*
X129399591Y-120028915D01*
X129358110Y-120033000D01*
X128756890Y-120033000D01*
X128715409Y-120028915D01*
X128681431Y-120018607D01*
X128650110Y-120001866D01*
X128622661Y-119979339D01*
X128600134Y-119951890D01*
X128583393Y-119920569D01*
X128573085Y-119886591D01*
X128569000Y-119845110D01*
X128569000Y-119168890D01*
X128573085Y-119127409D01*
X128583393Y-119093431D01*
X128600134Y-119062110D01*
X128622661Y-119034661D01*
X128650110Y-119012134D01*
X128681431Y-118995393D01*
X128715409Y-118985085D01*
X128756890Y-118981000D01*
X129358110Y-118981000D01*
X129399591Y-118985085D01*
X129399591Y-118985085D01*
G37*
G36*
X133401000Y-119837400D02*
G01*
X131114600Y-119837400D01*
X131114600Y-119176600D01*
X133401000Y-119176600D01*
X133401000Y-119837400D01*
X133401000Y-119837400D01*
G37*
G36*
X138125400Y-119837400D02*
G01*
X135839000Y-119837400D01*
X135839000Y-119176600D01*
X138125400Y-119176600D01*
X138125400Y-119837400D01*
X138125400Y-119837400D01*
G37*
G36*
X106846823Y-117906313D02*
G01*
X107007242Y-117954976D01*
X107139906Y-118025886D01*
X107155078Y-118033996D01*
X107284659Y-118140341D01*
X107391004Y-118269922D01*
X107391005Y-118269924D01*
X107470024Y-118417758D01*
X107518687Y-118578177D01*
X107535117Y-118745000D01*
X107518687Y-118911823D01*
X107470024Y-119072242D01*
X107414243Y-119176600D01*
X107391004Y-119220078D01*
X107284659Y-119349659D01*
X107155078Y-119456004D01*
X107155076Y-119456005D01*
X107007242Y-119535024D01*
X106846823Y-119583687D01*
X106721804Y-119596000D01*
X106638196Y-119596000D01*
X106513177Y-119583687D01*
X106352758Y-119535024D01*
X106204924Y-119456005D01*
X106204922Y-119456004D01*
X106075341Y-119349659D01*
X105968996Y-119220078D01*
X105945757Y-119176600D01*
X105889976Y-119072242D01*
X105841313Y-118911823D01*
X105824883Y-118745000D01*
X105841313Y-118578177D01*
X105889976Y-118417758D01*
X105968995Y-118269924D01*
X105968996Y-118269922D01*
X106075341Y-118140341D01*
X106204922Y-118033996D01*
X106220094Y-118025886D01*
X106352758Y-117954976D01*
X106513177Y-117906313D01*
X106638196Y-117894000D01*
X106721804Y-117894000D01*
X106846823Y-117906313D01*
X106846823Y-117906313D01*
G37*
G36*
X91606823Y-117906313D02*
G01*
X91767242Y-117954976D01*
X91899906Y-118025886D01*
X91915078Y-118033996D01*
X92044659Y-118140341D01*
X92151004Y-118269922D01*
X92151005Y-118269924D01*
X92230024Y-118417758D01*
X92278687Y-118578177D01*
X92295117Y-118745000D01*
X92278687Y-118911823D01*
X92230024Y-119072242D01*
X92174243Y-119176600D01*
X92151004Y-119220078D01*
X92044659Y-119349659D01*
X91915078Y-119456004D01*
X91915076Y-119456005D01*
X91767242Y-119535024D01*
X91606823Y-119583687D01*
X91481804Y-119596000D01*
X91398196Y-119596000D01*
X91273177Y-119583687D01*
X91112758Y-119535024D01*
X90964924Y-119456005D01*
X90964922Y-119456004D01*
X90835341Y-119349659D01*
X90728996Y-119220078D01*
X90705757Y-119176600D01*
X90649976Y-119072242D01*
X90601313Y-118911823D01*
X90584883Y-118745000D01*
X90601313Y-118578177D01*
X90649976Y-118417758D01*
X90728995Y-118269924D01*
X90728996Y-118269922D01*
X90835341Y-118140341D01*
X90964922Y-118033996D01*
X90980094Y-118025886D01*
X91112758Y-117954976D01*
X91273177Y-117906313D01*
X91398196Y-117894000D01*
X91481804Y-117894000D01*
X91606823Y-117906313D01*
X91606823Y-117906313D01*
G37*
G36*
X133401000Y-118567400D02*
G01*
X131114600Y-118567400D01*
X131114600Y-117906600D01*
X133401000Y-117906600D01*
X133401000Y-118567400D01*
X133401000Y-118567400D01*
G37*
G36*
X138125400Y-118567400D02*
G01*
X135839000Y-118567400D01*
X135839000Y-117906600D01*
X138125400Y-117906600D01*
X138125400Y-118567400D01*
X138125400Y-118567400D01*
G37*
G36*
X129399591Y-117207085D02*
G01*
X129433569Y-117217393D01*
X129464890Y-117234134D01*
X129492339Y-117256661D01*
X129514866Y-117284110D01*
X129531607Y-117315431D01*
X129541915Y-117349409D01*
X129546000Y-117390890D01*
X129546000Y-118067110D01*
X129541915Y-118108591D01*
X129531607Y-118142569D01*
X129514866Y-118173890D01*
X129492339Y-118201339D01*
X129464890Y-118223866D01*
X129433569Y-118240607D01*
X129399591Y-118250915D01*
X129358110Y-118255000D01*
X128756890Y-118255000D01*
X128715409Y-118250915D01*
X128681431Y-118240607D01*
X128650110Y-118223866D01*
X128622661Y-118201339D01*
X128600134Y-118173890D01*
X128583393Y-118142569D01*
X128573085Y-118108591D01*
X128569000Y-118067110D01*
X128569000Y-117390890D01*
X128573085Y-117349409D01*
X128583393Y-117315431D01*
X128600134Y-117284110D01*
X128622661Y-117256661D01*
X128650110Y-117234134D01*
X128681431Y-117217393D01*
X128715409Y-117207085D01*
X128756890Y-117203000D01*
X129358110Y-117203000D01*
X129399591Y-117207085D01*
X129399591Y-117207085D01*
G37*
G36*
X127824591Y-117207085D02*
G01*
X127858569Y-117217393D01*
X127889890Y-117234134D01*
X127917339Y-117256661D01*
X127939866Y-117284110D01*
X127956607Y-117315431D01*
X127966915Y-117349409D01*
X127971000Y-117390890D01*
X127971000Y-118067110D01*
X127966915Y-118108591D01*
X127956607Y-118142569D01*
X127939866Y-118173890D01*
X127917339Y-118201339D01*
X127889890Y-118223866D01*
X127858569Y-118240607D01*
X127824591Y-118250915D01*
X127783110Y-118255000D01*
X127181890Y-118255000D01*
X127140409Y-118250915D01*
X127106431Y-118240607D01*
X127075110Y-118223866D01*
X127047661Y-118201339D01*
X127025134Y-118173890D01*
X127008393Y-118142569D01*
X126998085Y-118108591D01*
X126994000Y-118067110D01*
X126994000Y-117390890D01*
X126998085Y-117349409D01*
X127008393Y-117315431D01*
X127025134Y-117284110D01*
X127047661Y-117256661D01*
X127075110Y-117234134D01*
X127106431Y-117217393D01*
X127140409Y-117207085D01*
X127181890Y-117203000D01*
X127783110Y-117203000D01*
X127824591Y-117207085D01*
X127824591Y-117207085D01*
G37*
G36*
X140778591Y-116445085D02*
G01*
X140812569Y-116455393D01*
X140843890Y-116472134D01*
X140871339Y-116494661D01*
X140893866Y-116522110D01*
X140910607Y-116553431D01*
X140920915Y-116587409D01*
X140925000Y-116628890D01*
X140925000Y-117305110D01*
X140920915Y-117346591D01*
X140910607Y-117380569D01*
X140893866Y-117411890D01*
X140871339Y-117439339D01*
X140843890Y-117461866D01*
X140812569Y-117478607D01*
X140778591Y-117488915D01*
X140737110Y-117493000D01*
X140135890Y-117493000D01*
X140094409Y-117488915D01*
X140060431Y-117478607D01*
X140029110Y-117461866D01*
X140001661Y-117439339D01*
X139979134Y-117411890D01*
X139962393Y-117380569D01*
X139952085Y-117346591D01*
X139948000Y-117305110D01*
X139948000Y-116628890D01*
X139952085Y-116587409D01*
X139962393Y-116553431D01*
X139979134Y-116522110D01*
X140001661Y-116494661D01*
X140029110Y-116472134D01*
X140060431Y-116455393D01*
X140094409Y-116445085D01*
X140135890Y-116441000D01*
X140737110Y-116441000D01*
X140778591Y-116445085D01*
X140778591Y-116445085D01*
G37*
G36*
X142353591Y-116445085D02*
G01*
X142387569Y-116455393D01*
X142418890Y-116472134D01*
X142446339Y-116494661D01*
X142468866Y-116522110D01*
X142485607Y-116553431D01*
X142495915Y-116587409D01*
X142500000Y-116628890D01*
X142500000Y-117305110D01*
X142495915Y-117346591D01*
X142485607Y-117380569D01*
X142468866Y-117411890D01*
X142446339Y-117439339D01*
X142418890Y-117461866D01*
X142387569Y-117478607D01*
X142353591Y-117488915D01*
X142312110Y-117493000D01*
X141710890Y-117493000D01*
X141669409Y-117488915D01*
X141635431Y-117478607D01*
X141604110Y-117461866D01*
X141576661Y-117439339D01*
X141554134Y-117411890D01*
X141537393Y-117380569D01*
X141527085Y-117346591D01*
X141523000Y-117305110D01*
X141523000Y-116628890D01*
X141527085Y-116587409D01*
X141537393Y-116553431D01*
X141554134Y-116522110D01*
X141576661Y-116494661D01*
X141604110Y-116472134D01*
X141635431Y-116455393D01*
X141669409Y-116445085D01*
X141710890Y-116441000D01*
X142312110Y-116441000D01*
X142353591Y-116445085D01*
X142353591Y-116445085D01*
G37*
G36*
X138125400Y-117297400D02*
G01*
X135839000Y-117297400D01*
X135839000Y-116636600D01*
X138125400Y-116636600D01*
X138125400Y-117297400D01*
X138125400Y-117297400D01*
G37*
G36*
X133401000Y-117297400D02*
G01*
X131114600Y-117297400D01*
X131114600Y-116636600D01*
X133401000Y-116636600D01*
X133401000Y-117297400D01*
X133401000Y-117297400D01*
G37*
G36*
X91606823Y-115366313D02*
G01*
X91767242Y-115414976D01*
X91844243Y-115456134D01*
X91915078Y-115493996D01*
X92044659Y-115600341D01*
X92151004Y-115729922D01*
X92151005Y-115729924D01*
X92230024Y-115877758D01*
X92278687Y-116038177D01*
X92295117Y-116205000D01*
X92278687Y-116371823D01*
X92230024Y-116532242D01*
X92174243Y-116636600D01*
X92151004Y-116680078D01*
X92044659Y-116809659D01*
X91915078Y-116916004D01*
X91915076Y-116916005D01*
X91767242Y-116995024D01*
X91606823Y-117043687D01*
X91481804Y-117056000D01*
X91398196Y-117056000D01*
X91273177Y-117043687D01*
X91112758Y-116995024D01*
X90964924Y-116916005D01*
X90964922Y-116916004D01*
X90835341Y-116809659D01*
X90728996Y-116680078D01*
X90705757Y-116636600D01*
X90649976Y-116532242D01*
X90601313Y-116371823D01*
X90584883Y-116205000D01*
X90601313Y-116038177D01*
X90649976Y-115877758D01*
X90728995Y-115729924D01*
X90728996Y-115729922D01*
X90835341Y-115600341D01*
X90964922Y-115493996D01*
X91035757Y-115456134D01*
X91112758Y-115414976D01*
X91273177Y-115366313D01*
X91398196Y-115354000D01*
X91481804Y-115354000D01*
X91606823Y-115366313D01*
X91606823Y-115366313D01*
G37*
G36*
X106846823Y-115366313D02*
G01*
X107007242Y-115414976D01*
X107084243Y-115456134D01*
X107155078Y-115493996D01*
X107284659Y-115600341D01*
X107391004Y-115729922D01*
X107391005Y-115729924D01*
X107470024Y-115877758D01*
X107518687Y-116038177D01*
X107535117Y-116205000D01*
X107518687Y-116371823D01*
X107470024Y-116532242D01*
X107414243Y-116636600D01*
X107391004Y-116680078D01*
X107284659Y-116809659D01*
X107155078Y-116916004D01*
X107155076Y-116916005D01*
X107007242Y-116995024D01*
X106846823Y-117043687D01*
X106721804Y-117056000D01*
X106638196Y-117056000D01*
X106513177Y-117043687D01*
X106352758Y-116995024D01*
X106204924Y-116916005D01*
X106204922Y-116916004D01*
X106075341Y-116809659D01*
X105968996Y-116680078D01*
X105945757Y-116636600D01*
X105889976Y-116532242D01*
X105841313Y-116371823D01*
X105824883Y-116205000D01*
X105841313Y-116038177D01*
X105889976Y-115877758D01*
X105968995Y-115729924D01*
X105968996Y-115729922D01*
X106075341Y-115600341D01*
X106204922Y-115493996D01*
X106275757Y-115456134D01*
X106352758Y-115414976D01*
X106513177Y-115366313D01*
X106638196Y-115354000D01*
X106721804Y-115354000D01*
X106846823Y-115366313D01*
X106846823Y-115366313D01*
G37*
G36*
X127824591Y-115429085D02*
G01*
X127858569Y-115439393D01*
X127889890Y-115456134D01*
X127917339Y-115478661D01*
X127939866Y-115506110D01*
X127956607Y-115537431D01*
X127966915Y-115571409D01*
X127971000Y-115612890D01*
X127971000Y-116289110D01*
X127966915Y-116330591D01*
X127956607Y-116364569D01*
X127939866Y-116395890D01*
X127917339Y-116423339D01*
X127889890Y-116445866D01*
X127858569Y-116462607D01*
X127824591Y-116472915D01*
X127783110Y-116477000D01*
X127181890Y-116477000D01*
X127140409Y-116472915D01*
X127106431Y-116462607D01*
X127075110Y-116445866D01*
X127047661Y-116423339D01*
X127025134Y-116395890D01*
X127008393Y-116364569D01*
X126998085Y-116330591D01*
X126994000Y-116289110D01*
X126994000Y-115612890D01*
X126998085Y-115571409D01*
X127008393Y-115537431D01*
X127025134Y-115506110D01*
X127047661Y-115478661D01*
X127075110Y-115456134D01*
X127106431Y-115439393D01*
X127140409Y-115429085D01*
X127181890Y-115425000D01*
X127783110Y-115425000D01*
X127824591Y-115429085D01*
X127824591Y-115429085D01*
G37*
G36*
X129399591Y-115429085D02*
G01*
X129433569Y-115439393D01*
X129464890Y-115456134D01*
X129492339Y-115478661D01*
X129514866Y-115506110D01*
X129531607Y-115537431D01*
X129541915Y-115571409D01*
X129546000Y-115612890D01*
X129546000Y-116289110D01*
X129541915Y-116330591D01*
X129531607Y-116364569D01*
X129514866Y-116395890D01*
X129492339Y-116423339D01*
X129464890Y-116445866D01*
X129433569Y-116462607D01*
X129399591Y-116472915D01*
X129358110Y-116477000D01*
X128756890Y-116477000D01*
X128715409Y-116472915D01*
X128681431Y-116462607D01*
X128650110Y-116445866D01*
X128622661Y-116423339D01*
X128600134Y-116395890D01*
X128583393Y-116364569D01*
X128573085Y-116330591D01*
X128569000Y-116289110D01*
X128569000Y-115612890D01*
X128573085Y-115571409D01*
X128583393Y-115537431D01*
X128600134Y-115506110D01*
X128622661Y-115478661D01*
X128650110Y-115456134D01*
X128681431Y-115439393D01*
X128715409Y-115429085D01*
X128756890Y-115425000D01*
X129358110Y-115425000D01*
X129399591Y-115429085D01*
X129399591Y-115429085D01*
G37*
G36*
X148969591Y-115492085D02*
G01*
X149003569Y-115502393D01*
X149034890Y-115519134D01*
X149062339Y-115541661D01*
X149084866Y-115569110D01*
X149101607Y-115600431D01*
X149111915Y-115634409D01*
X149116000Y-115675890D01*
X149116000Y-116277110D01*
X149111915Y-116318591D01*
X149101607Y-116352569D01*
X149084866Y-116383890D01*
X149062339Y-116411339D01*
X149034890Y-116433866D01*
X149003569Y-116450607D01*
X148969591Y-116460915D01*
X148928110Y-116465000D01*
X148251890Y-116465000D01*
X148210409Y-116460915D01*
X148176431Y-116450607D01*
X148145110Y-116433866D01*
X148117661Y-116411339D01*
X148095134Y-116383890D01*
X148078393Y-116352569D01*
X148068085Y-116318591D01*
X148064000Y-116277110D01*
X148064000Y-115675890D01*
X148068085Y-115634409D01*
X148078393Y-115600431D01*
X148095134Y-115569110D01*
X148117661Y-115541661D01*
X148145110Y-115519134D01*
X148176431Y-115502393D01*
X148210409Y-115492085D01*
X148251890Y-115488000D01*
X148928110Y-115488000D01*
X148969591Y-115492085D01*
X148969591Y-115492085D01*
G37*
G36*
X138125400Y-116027400D02*
G01*
X135839000Y-116027400D01*
X135839000Y-115366600D01*
X138125400Y-115366600D01*
X138125400Y-116027400D01*
X138125400Y-116027400D01*
G37*
G36*
X133401000Y-116027400D02*
G01*
X131114600Y-116027400D01*
X131114600Y-115366600D01*
X133401000Y-115366600D01*
X133401000Y-116027400D01*
X133401000Y-116027400D01*
G37*
G36*
X148969591Y-113917085D02*
G01*
X149003569Y-113927393D01*
X149034890Y-113944134D01*
X149062339Y-113966661D01*
X149084866Y-113994110D01*
X149101607Y-114025431D01*
X149111915Y-114059409D01*
X149116000Y-114100890D01*
X149116000Y-114702110D01*
X149111915Y-114743591D01*
X149101607Y-114777569D01*
X149084866Y-114808890D01*
X149062339Y-114836339D01*
X149034890Y-114858866D01*
X149003569Y-114875607D01*
X148969591Y-114885915D01*
X148928110Y-114890000D01*
X148251890Y-114890000D01*
X148210409Y-114885915D01*
X148176431Y-114875607D01*
X148145110Y-114858866D01*
X148117661Y-114836339D01*
X148095134Y-114808890D01*
X148078393Y-114777569D01*
X148068085Y-114743591D01*
X148064000Y-114702110D01*
X148064000Y-114100890D01*
X148068085Y-114059409D01*
X148078393Y-114025431D01*
X148095134Y-113994110D01*
X148117661Y-113966661D01*
X148145110Y-113944134D01*
X148176431Y-113927393D01*
X148210409Y-113917085D01*
X148251890Y-113913000D01*
X148928110Y-113913000D01*
X148969591Y-113917085D01*
X148969591Y-113917085D01*
G37*
G36*
X138125400Y-114757400D02*
G01*
X135839000Y-114757400D01*
X135839000Y-114096600D01*
X138125400Y-114096600D01*
X138125400Y-114757400D01*
X138125400Y-114757400D01*
G37*
G36*
X133401000Y-114757400D02*
G01*
X131114600Y-114757400D01*
X131114600Y-114096600D01*
X133401000Y-114096600D01*
X133401000Y-114757400D01*
X133401000Y-114757400D01*
G37*
G36*
X127824591Y-113651085D02*
G01*
X127858569Y-113661393D01*
X127889890Y-113678134D01*
X127917339Y-113700661D01*
X127939866Y-113728110D01*
X127956607Y-113759431D01*
X127966915Y-113793409D01*
X127971000Y-113834890D01*
X127971000Y-114511110D01*
X127966915Y-114552591D01*
X127956607Y-114586569D01*
X127939866Y-114617890D01*
X127917339Y-114645339D01*
X127889890Y-114667866D01*
X127858569Y-114684607D01*
X127824591Y-114694915D01*
X127783110Y-114699000D01*
X127181890Y-114699000D01*
X127140409Y-114694915D01*
X127106431Y-114684607D01*
X127075110Y-114667866D01*
X127047661Y-114645339D01*
X127025134Y-114617890D01*
X127008393Y-114586569D01*
X126998085Y-114552591D01*
X126994000Y-114511110D01*
X126994000Y-113834890D01*
X126998085Y-113793409D01*
X127008393Y-113759431D01*
X127025134Y-113728110D01*
X127047661Y-113700661D01*
X127075110Y-113678134D01*
X127106431Y-113661393D01*
X127140409Y-113651085D01*
X127181890Y-113647000D01*
X127783110Y-113647000D01*
X127824591Y-113651085D01*
X127824591Y-113651085D01*
G37*
G36*
X129399591Y-113651085D02*
G01*
X129433569Y-113661393D01*
X129464890Y-113678134D01*
X129492339Y-113700661D01*
X129514866Y-113728110D01*
X129531607Y-113759431D01*
X129541915Y-113793409D01*
X129546000Y-113834890D01*
X129546000Y-114511110D01*
X129541915Y-114552591D01*
X129531607Y-114586569D01*
X129514866Y-114617890D01*
X129492339Y-114645339D01*
X129464890Y-114667866D01*
X129433569Y-114684607D01*
X129399591Y-114694915D01*
X129358110Y-114699000D01*
X128756890Y-114699000D01*
X128715409Y-114694915D01*
X128681431Y-114684607D01*
X128650110Y-114667866D01*
X128622661Y-114645339D01*
X128600134Y-114617890D01*
X128583393Y-114586569D01*
X128573085Y-114552591D01*
X128569000Y-114511110D01*
X128569000Y-113834890D01*
X128573085Y-113793409D01*
X128583393Y-113759431D01*
X128600134Y-113728110D01*
X128622661Y-113700661D01*
X128650110Y-113678134D01*
X128681431Y-113661393D01*
X128715409Y-113651085D01*
X128756890Y-113647000D01*
X129358110Y-113647000D01*
X129399591Y-113651085D01*
X129399591Y-113651085D01*
G37*
G36*
X106846823Y-112826313D02*
G01*
X107007242Y-112874976D01*
X107139906Y-112945886D01*
X107155078Y-112953996D01*
X107284659Y-113060341D01*
X107391004Y-113189922D01*
X107391005Y-113189924D01*
X107470024Y-113337758D01*
X107518687Y-113498177D01*
X107535117Y-113665000D01*
X107518687Y-113831823D01*
X107470024Y-113992242D01*
X107454357Y-114021552D01*
X107391004Y-114140078D01*
X107284659Y-114269659D01*
X107155078Y-114376004D01*
X107155076Y-114376005D01*
X107007242Y-114455024D01*
X106846823Y-114503687D01*
X106721804Y-114516000D01*
X106638196Y-114516000D01*
X106513177Y-114503687D01*
X106352758Y-114455024D01*
X106204924Y-114376005D01*
X106204922Y-114376004D01*
X106075341Y-114269659D01*
X105968996Y-114140078D01*
X105905643Y-114021552D01*
X105889976Y-113992242D01*
X105841313Y-113831823D01*
X105824883Y-113665000D01*
X105841313Y-113498177D01*
X105889976Y-113337758D01*
X105968995Y-113189924D01*
X105968996Y-113189922D01*
X106075341Y-113060341D01*
X106204922Y-112953996D01*
X106220094Y-112945886D01*
X106352758Y-112874976D01*
X106513177Y-112826313D01*
X106638196Y-112814000D01*
X106721804Y-112814000D01*
X106846823Y-112826313D01*
X106846823Y-112826313D01*
G37*
G36*
X91606823Y-112826313D02*
G01*
X91767242Y-112874976D01*
X91899906Y-112945886D01*
X91915078Y-112953996D01*
X92044659Y-113060341D01*
X92151004Y-113189922D01*
X92151005Y-113189924D01*
X92230024Y-113337758D01*
X92278687Y-113498177D01*
X92295117Y-113665000D01*
X92278687Y-113831823D01*
X92230024Y-113992242D01*
X92214357Y-114021552D01*
X92151004Y-114140078D01*
X92044659Y-114269659D01*
X91915078Y-114376004D01*
X91915076Y-114376005D01*
X91767242Y-114455024D01*
X91606823Y-114503687D01*
X91481804Y-114516000D01*
X91398196Y-114516000D01*
X91273177Y-114503687D01*
X91112758Y-114455024D01*
X90964924Y-114376005D01*
X90964922Y-114376004D01*
X90835341Y-114269659D01*
X90728996Y-114140078D01*
X90665643Y-114021552D01*
X90649976Y-113992242D01*
X90601313Y-113831823D01*
X90584883Y-113665000D01*
X90601313Y-113498177D01*
X90649976Y-113337758D01*
X90728995Y-113189924D01*
X90728996Y-113189922D01*
X90835341Y-113060341D01*
X90964922Y-112953996D01*
X90980094Y-112945886D01*
X91112758Y-112874976D01*
X91273177Y-112826313D01*
X91398196Y-112814000D01*
X91481804Y-112814000D01*
X91606823Y-112826313D01*
X91606823Y-112826313D01*
G37*
G36*
X138125400Y-113487400D02*
G01*
X135839000Y-113487400D01*
X135839000Y-112826600D01*
X138125400Y-112826600D01*
X138125400Y-113487400D01*
X138125400Y-113487400D01*
G37*
G36*
X133401000Y-113487400D02*
G01*
X131114600Y-113487400D01*
X131114600Y-112826600D01*
X133401000Y-112826600D01*
X133401000Y-113487400D01*
X133401000Y-113487400D01*
G37*
G36*
X144397591Y-112190085D02*
G01*
X144431569Y-112200393D01*
X144462890Y-112217134D01*
X144490339Y-112239661D01*
X144512866Y-112267110D01*
X144529607Y-112298431D01*
X144539915Y-112332409D01*
X144544000Y-112373890D01*
X144544000Y-112975110D01*
X144539915Y-113016591D01*
X144529607Y-113050569D01*
X144512866Y-113081890D01*
X144490339Y-113109339D01*
X144462890Y-113131866D01*
X144431569Y-113148607D01*
X144397591Y-113158915D01*
X144356110Y-113163000D01*
X143679890Y-113163000D01*
X143638409Y-113158915D01*
X143604431Y-113148607D01*
X143573110Y-113131866D01*
X143545661Y-113109339D01*
X143523134Y-113081890D01*
X143506393Y-113050569D01*
X143496085Y-113016591D01*
X143492000Y-112975110D01*
X143492000Y-112373890D01*
X143496085Y-112332409D01*
X143506393Y-112298431D01*
X143523134Y-112267110D01*
X143545661Y-112239661D01*
X143573110Y-112217134D01*
X143604431Y-112200393D01*
X143638409Y-112190085D01*
X143679890Y-112186000D01*
X144356110Y-112186000D01*
X144397591Y-112190085D01*
X144397591Y-112190085D01*
G37*
G36*
X142365591Y-112190085D02*
G01*
X142399569Y-112200393D01*
X142430890Y-112217134D01*
X142458339Y-112239661D01*
X142480866Y-112267110D01*
X142497607Y-112298431D01*
X142507915Y-112332409D01*
X142512000Y-112373890D01*
X142512000Y-112975110D01*
X142507915Y-113016591D01*
X142497607Y-113050569D01*
X142480866Y-113081890D01*
X142458339Y-113109339D01*
X142430890Y-113131866D01*
X142399569Y-113148607D01*
X142365591Y-113158915D01*
X142324110Y-113163000D01*
X141647890Y-113163000D01*
X141606409Y-113158915D01*
X141572431Y-113148607D01*
X141541110Y-113131866D01*
X141513661Y-113109339D01*
X141491134Y-113081890D01*
X141474393Y-113050569D01*
X141464085Y-113016591D01*
X141460000Y-112975110D01*
X141460000Y-112373890D01*
X141464085Y-112332409D01*
X141474393Y-112298431D01*
X141491134Y-112267110D01*
X141513661Y-112239661D01*
X141541110Y-112217134D01*
X141572431Y-112200393D01*
X141606409Y-112190085D01*
X141647890Y-112186000D01*
X142324110Y-112186000D01*
X142365591Y-112190085D01*
X142365591Y-112190085D01*
G37*
G36*
X148969591Y-112190085D02*
G01*
X149003569Y-112200393D01*
X149034890Y-112217134D01*
X149062339Y-112239661D01*
X149084866Y-112267110D01*
X149101607Y-112298431D01*
X149111915Y-112332409D01*
X149116000Y-112373890D01*
X149116000Y-112975110D01*
X149111915Y-113016591D01*
X149101607Y-113050569D01*
X149084866Y-113081890D01*
X149062339Y-113109339D01*
X149034890Y-113131866D01*
X149003569Y-113148607D01*
X148969591Y-113158915D01*
X148928110Y-113163000D01*
X148251890Y-113163000D01*
X148210409Y-113158915D01*
X148176431Y-113148607D01*
X148145110Y-113131866D01*
X148117661Y-113109339D01*
X148095134Y-113081890D01*
X148078393Y-113050569D01*
X148068085Y-113016591D01*
X148064000Y-112975110D01*
X148064000Y-112373890D01*
X148068085Y-112332409D01*
X148078393Y-112298431D01*
X148095134Y-112267110D01*
X148117661Y-112239661D01*
X148145110Y-112217134D01*
X148176431Y-112200393D01*
X148210409Y-112190085D01*
X148251890Y-112186000D01*
X148928110Y-112186000D01*
X148969591Y-112190085D01*
X148969591Y-112190085D01*
G37*
G36*
X129399591Y-111873085D02*
G01*
X129433569Y-111883393D01*
X129464890Y-111900134D01*
X129492339Y-111922661D01*
X129514866Y-111950110D01*
X129531607Y-111981431D01*
X129541915Y-112015409D01*
X129546000Y-112056890D01*
X129546000Y-112733110D01*
X129541915Y-112774591D01*
X129531607Y-112808569D01*
X129514866Y-112839890D01*
X129492339Y-112867339D01*
X129464890Y-112889866D01*
X129433569Y-112906607D01*
X129399591Y-112916915D01*
X129358110Y-112921000D01*
X128756890Y-112921000D01*
X128715409Y-112916915D01*
X128681431Y-112906607D01*
X128650110Y-112889866D01*
X128622661Y-112867339D01*
X128600134Y-112839890D01*
X128583393Y-112808569D01*
X128573085Y-112774591D01*
X128569000Y-112733110D01*
X128569000Y-112056890D01*
X128573085Y-112015409D01*
X128583393Y-111981431D01*
X128600134Y-111950110D01*
X128622661Y-111922661D01*
X128650110Y-111900134D01*
X128681431Y-111883393D01*
X128715409Y-111873085D01*
X128756890Y-111869000D01*
X129358110Y-111869000D01*
X129399591Y-111873085D01*
X129399591Y-111873085D01*
G37*
G36*
X127824591Y-111873085D02*
G01*
X127858569Y-111883393D01*
X127889890Y-111900134D01*
X127917339Y-111922661D01*
X127939866Y-111950110D01*
X127956607Y-111981431D01*
X127966915Y-112015409D01*
X127971000Y-112056890D01*
X127971000Y-112733110D01*
X127966915Y-112774591D01*
X127956607Y-112808569D01*
X127939866Y-112839890D01*
X127917339Y-112867339D01*
X127889890Y-112889866D01*
X127858569Y-112906607D01*
X127824591Y-112916915D01*
X127783110Y-112921000D01*
X127181890Y-112921000D01*
X127140409Y-112916915D01*
X127106431Y-112906607D01*
X127075110Y-112889866D01*
X127047661Y-112867339D01*
X127025134Y-112839890D01*
X127008393Y-112808569D01*
X126998085Y-112774591D01*
X126994000Y-112733110D01*
X126994000Y-112056890D01*
X126998085Y-112015409D01*
X127008393Y-111981431D01*
X127025134Y-111950110D01*
X127047661Y-111922661D01*
X127075110Y-111900134D01*
X127106431Y-111883393D01*
X127140409Y-111873085D01*
X127181890Y-111869000D01*
X127783110Y-111869000D01*
X127824591Y-111873085D01*
X127824591Y-111873085D01*
G37*
G36*
X91606823Y-110286313D02*
G01*
X91767242Y-110334976D01*
X91899906Y-110405886D01*
X91915078Y-110413996D01*
X92044659Y-110520341D01*
X92151004Y-110649922D01*
X92151005Y-110649924D01*
X92230024Y-110797758D01*
X92278687Y-110958177D01*
X92295117Y-111125000D01*
X92278687Y-111291823D01*
X92230024Y-111452242D01*
X92217555Y-111475569D01*
X92151004Y-111600078D01*
X92044659Y-111729659D01*
X91915078Y-111836004D01*
X91915076Y-111836005D01*
X91767242Y-111915024D01*
X91606823Y-111963687D01*
X91481804Y-111976000D01*
X91398196Y-111976000D01*
X91273177Y-111963687D01*
X91112758Y-111915024D01*
X90964924Y-111836005D01*
X90964922Y-111836004D01*
X90835341Y-111729659D01*
X90728996Y-111600078D01*
X90662445Y-111475569D01*
X90649976Y-111452242D01*
X90601313Y-111291823D01*
X90584883Y-111125000D01*
X90601313Y-110958177D01*
X90649976Y-110797758D01*
X90728995Y-110649924D01*
X90728996Y-110649922D01*
X90835341Y-110520341D01*
X90964922Y-110413996D01*
X90980094Y-110405886D01*
X91112758Y-110334976D01*
X91273177Y-110286313D01*
X91398196Y-110274000D01*
X91481804Y-110274000D01*
X91606823Y-110286313D01*
X91606823Y-110286313D01*
G37*
G36*
X106846823Y-110286313D02*
G01*
X107007242Y-110334976D01*
X107139906Y-110405886D01*
X107155078Y-110413996D01*
X107284659Y-110520341D01*
X107391004Y-110649922D01*
X107391005Y-110649924D01*
X107470024Y-110797758D01*
X107518687Y-110958177D01*
X107535117Y-111125000D01*
X107518687Y-111291823D01*
X107470024Y-111452242D01*
X107457555Y-111475569D01*
X107391004Y-111600078D01*
X107284659Y-111729659D01*
X107155078Y-111836004D01*
X107155076Y-111836005D01*
X107007242Y-111915024D01*
X106846823Y-111963687D01*
X106721804Y-111976000D01*
X106638196Y-111976000D01*
X106513177Y-111963687D01*
X106352758Y-111915024D01*
X106204924Y-111836005D01*
X106204922Y-111836004D01*
X106075341Y-111729659D01*
X105968996Y-111600078D01*
X105902445Y-111475569D01*
X105889976Y-111452242D01*
X105841313Y-111291823D01*
X105824883Y-111125000D01*
X105841313Y-110958177D01*
X105889976Y-110797758D01*
X105968995Y-110649924D01*
X105968996Y-110649922D01*
X106075341Y-110520341D01*
X106204922Y-110413996D01*
X106220094Y-110405886D01*
X106352758Y-110334976D01*
X106513177Y-110286313D01*
X106638196Y-110274000D01*
X106721804Y-110274000D01*
X106846823Y-110286313D01*
X106846823Y-110286313D01*
G37*
G36*
X111377591Y-110666085D02*
G01*
X111411569Y-110676393D01*
X111442890Y-110693134D01*
X111470339Y-110715661D01*
X111492866Y-110743110D01*
X111509607Y-110774431D01*
X111519915Y-110808409D01*
X111524000Y-110849890D01*
X111524000Y-111451110D01*
X111519915Y-111492591D01*
X111509607Y-111526569D01*
X111492866Y-111557890D01*
X111470339Y-111585339D01*
X111442890Y-111607866D01*
X111411569Y-111624607D01*
X111377591Y-111634915D01*
X111336110Y-111639000D01*
X110659890Y-111639000D01*
X110618409Y-111634915D01*
X110584431Y-111624607D01*
X110553110Y-111607866D01*
X110525661Y-111585339D01*
X110503134Y-111557890D01*
X110486393Y-111526569D01*
X110476085Y-111492591D01*
X110472000Y-111451110D01*
X110472000Y-110849890D01*
X110476085Y-110808409D01*
X110486393Y-110774431D01*
X110503134Y-110743110D01*
X110525661Y-110715661D01*
X110553110Y-110693134D01*
X110584431Y-110676393D01*
X110618409Y-110666085D01*
X110659890Y-110662000D01*
X111336110Y-110662000D01*
X111377591Y-110666085D01*
X111377591Y-110666085D01*
G37*
G36*
X148969591Y-110615085D02*
G01*
X149003569Y-110625393D01*
X149034890Y-110642134D01*
X149062339Y-110664661D01*
X149084866Y-110692110D01*
X149101607Y-110723431D01*
X149111915Y-110757409D01*
X149116000Y-110798890D01*
X149116000Y-111400110D01*
X149111915Y-111441591D01*
X149101607Y-111475569D01*
X149084866Y-111506890D01*
X149062339Y-111534339D01*
X149034890Y-111556866D01*
X149003569Y-111573607D01*
X148969591Y-111583915D01*
X148928110Y-111588000D01*
X148251890Y-111588000D01*
X148210409Y-111583915D01*
X148176431Y-111573607D01*
X148145110Y-111556866D01*
X148117661Y-111534339D01*
X148095134Y-111506890D01*
X148078393Y-111475569D01*
X148068085Y-111441591D01*
X148064000Y-111400110D01*
X148064000Y-110798890D01*
X148068085Y-110757409D01*
X148078393Y-110723431D01*
X148095134Y-110692110D01*
X148117661Y-110664661D01*
X148145110Y-110642134D01*
X148176431Y-110625393D01*
X148210409Y-110615085D01*
X148251890Y-110611000D01*
X148928110Y-110611000D01*
X148969591Y-110615085D01*
X148969591Y-110615085D01*
G37*
G36*
X144397591Y-110615085D02*
G01*
X144431569Y-110625393D01*
X144462890Y-110642134D01*
X144490339Y-110664661D01*
X144512866Y-110692110D01*
X144529607Y-110723431D01*
X144539915Y-110757409D01*
X144544000Y-110798890D01*
X144544000Y-111400110D01*
X144539915Y-111441591D01*
X144529607Y-111475569D01*
X144512866Y-111506890D01*
X144490339Y-111534339D01*
X144462890Y-111556866D01*
X144431569Y-111573607D01*
X144397591Y-111583915D01*
X144356110Y-111588000D01*
X143679890Y-111588000D01*
X143638409Y-111583915D01*
X143604431Y-111573607D01*
X143573110Y-111556866D01*
X143545661Y-111534339D01*
X143523134Y-111506890D01*
X143506393Y-111475569D01*
X143496085Y-111441591D01*
X143492000Y-111400110D01*
X143492000Y-110798890D01*
X143496085Y-110757409D01*
X143506393Y-110723431D01*
X143523134Y-110692110D01*
X143545661Y-110664661D01*
X143573110Y-110642134D01*
X143604431Y-110625393D01*
X143638409Y-110615085D01*
X143679890Y-110611000D01*
X144356110Y-110611000D01*
X144397591Y-110615085D01*
X144397591Y-110615085D01*
G37*
G36*
X142365591Y-110615085D02*
G01*
X142399569Y-110625393D01*
X142430890Y-110642134D01*
X142458339Y-110664661D01*
X142480866Y-110692110D01*
X142497607Y-110723431D01*
X142507915Y-110757409D01*
X142512000Y-110798890D01*
X142512000Y-111400110D01*
X142507915Y-111441591D01*
X142497607Y-111475569D01*
X142480866Y-111506890D01*
X142458339Y-111534339D01*
X142430890Y-111556866D01*
X142399569Y-111573607D01*
X142365591Y-111583915D01*
X142324110Y-111588000D01*
X141647890Y-111588000D01*
X141606409Y-111583915D01*
X141572431Y-111573607D01*
X141541110Y-111556866D01*
X141513661Y-111534339D01*
X141491134Y-111506890D01*
X141474393Y-111475569D01*
X141464085Y-111441591D01*
X141460000Y-111400110D01*
X141460000Y-110798890D01*
X141464085Y-110757409D01*
X141474393Y-110723431D01*
X141491134Y-110692110D01*
X141513661Y-110664661D01*
X141541110Y-110642134D01*
X141572431Y-110625393D01*
X141606409Y-110615085D01*
X141647890Y-110611000D01*
X142324110Y-110611000D01*
X142365591Y-110615085D01*
X142365591Y-110615085D01*
G37*
G36*
X129399591Y-110095085D02*
G01*
X129433569Y-110105393D01*
X129464890Y-110122134D01*
X129492339Y-110144661D01*
X129514866Y-110172110D01*
X129531607Y-110203431D01*
X129541915Y-110237409D01*
X129546000Y-110278890D01*
X129546000Y-110955110D01*
X129541915Y-110996591D01*
X129531607Y-111030569D01*
X129514866Y-111061890D01*
X129492339Y-111089339D01*
X129464890Y-111111866D01*
X129433569Y-111128607D01*
X129399591Y-111138915D01*
X129358110Y-111143000D01*
X128756890Y-111143000D01*
X128715409Y-111138915D01*
X128681431Y-111128607D01*
X128650110Y-111111866D01*
X128622661Y-111089339D01*
X128600134Y-111061890D01*
X128583393Y-111030569D01*
X128573085Y-110996591D01*
X128569000Y-110955110D01*
X128569000Y-110278890D01*
X128573085Y-110237409D01*
X128583393Y-110203431D01*
X128600134Y-110172110D01*
X128622661Y-110144661D01*
X128650110Y-110122134D01*
X128681431Y-110105393D01*
X128715409Y-110095085D01*
X128756890Y-110091000D01*
X129358110Y-110091000D01*
X129399591Y-110095085D01*
X129399591Y-110095085D01*
G37*
G36*
X127824591Y-110095085D02*
G01*
X127858569Y-110105393D01*
X127889890Y-110122134D01*
X127917339Y-110144661D01*
X127939866Y-110172110D01*
X127956607Y-110203431D01*
X127966915Y-110237409D01*
X127971000Y-110278890D01*
X127971000Y-110955110D01*
X127966915Y-110996591D01*
X127956607Y-111030569D01*
X127939866Y-111061890D01*
X127917339Y-111089339D01*
X127889890Y-111111866D01*
X127858569Y-111128607D01*
X127824591Y-111138915D01*
X127783110Y-111143000D01*
X127181890Y-111143000D01*
X127140409Y-111138915D01*
X127106431Y-111128607D01*
X127075110Y-111111866D01*
X127047661Y-111089339D01*
X127025134Y-111061890D01*
X127008393Y-111030569D01*
X126998085Y-110996591D01*
X126994000Y-110955110D01*
X126994000Y-110278890D01*
X126998085Y-110237409D01*
X127008393Y-110203431D01*
X127025134Y-110172110D01*
X127047661Y-110144661D01*
X127075110Y-110122134D01*
X127106431Y-110105393D01*
X127140409Y-110095085D01*
X127181890Y-110091000D01*
X127783110Y-110091000D01*
X127824591Y-110095085D01*
X127824591Y-110095085D01*
G37*
G36*
X166495591Y-109142085D02*
G01*
X166529569Y-109152393D01*
X166560890Y-109169134D01*
X166588339Y-109191661D01*
X166610866Y-109219110D01*
X166627607Y-109250431D01*
X166637915Y-109284409D01*
X166642000Y-109325890D01*
X166642000Y-109927110D01*
X166637915Y-109968591D01*
X166627607Y-110002569D01*
X166610866Y-110033890D01*
X166588339Y-110061339D01*
X166560890Y-110083866D01*
X166529569Y-110100607D01*
X166495591Y-110110915D01*
X166454110Y-110115000D01*
X165777890Y-110115000D01*
X165736409Y-110110915D01*
X165702431Y-110100607D01*
X165671110Y-110083866D01*
X165643661Y-110061339D01*
X165621134Y-110033890D01*
X165604393Y-110002569D01*
X165594085Y-109968591D01*
X165590000Y-109927110D01*
X165590000Y-109325890D01*
X165594085Y-109284409D01*
X165604393Y-109250431D01*
X165621134Y-109219110D01*
X165643661Y-109191661D01*
X165671110Y-109169134D01*
X165702431Y-109152393D01*
X165736409Y-109142085D01*
X165777890Y-109138000D01*
X166454110Y-109138000D01*
X166495591Y-109142085D01*
X166495591Y-109142085D01*
G37*
G36*
X174115591Y-109142085D02*
G01*
X174149569Y-109152393D01*
X174180890Y-109169134D01*
X174208339Y-109191661D01*
X174230866Y-109219110D01*
X174247607Y-109250431D01*
X174257915Y-109284409D01*
X174262000Y-109325890D01*
X174262000Y-109927110D01*
X174257915Y-109968591D01*
X174247607Y-110002569D01*
X174230866Y-110033890D01*
X174208339Y-110061339D01*
X174180890Y-110083866D01*
X174149569Y-110100607D01*
X174115591Y-110110915D01*
X174074110Y-110115000D01*
X173397890Y-110115000D01*
X173356409Y-110110915D01*
X173322431Y-110100607D01*
X173291110Y-110083866D01*
X173263661Y-110061339D01*
X173241134Y-110033890D01*
X173224393Y-110002569D01*
X173214085Y-109968591D01*
X173210000Y-109927110D01*
X173210000Y-109325890D01*
X173214085Y-109284409D01*
X173224393Y-109250431D01*
X173241134Y-109219110D01*
X173263661Y-109191661D01*
X173291110Y-109169134D01*
X173322431Y-109152393D01*
X173356409Y-109142085D01*
X173397890Y-109138000D01*
X174074110Y-109138000D01*
X174115591Y-109142085D01*
X174115591Y-109142085D01*
G37*
G36*
X111377591Y-109091085D02*
G01*
X111411569Y-109101393D01*
X111442890Y-109118134D01*
X111470339Y-109140661D01*
X111492866Y-109168110D01*
X111509607Y-109199431D01*
X111519915Y-109233409D01*
X111524000Y-109274890D01*
X111524000Y-109876110D01*
X111519915Y-109917591D01*
X111509607Y-109951569D01*
X111492866Y-109982890D01*
X111470339Y-110010339D01*
X111442890Y-110032866D01*
X111411569Y-110049607D01*
X111377591Y-110059915D01*
X111336110Y-110064000D01*
X110659890Y-110064000D01*
X110618409Y-110059915D01*
X110584431Y-110049607D01*
X110553110Y-110032866D01*
X110525661Y-110010339D01*
X110503134Y-109982890D01*
X110486393Y-109951569D01*
X110476085Y-109917591D01*
X110472000Y-109876110D01*
X110472000Y-109274890D01*
X110476085Y-109233409D01*
X110486393Y-109199431D01*
X110503134Y-109168110D01*
X110525661Y-109140661D01*
X110553110Y-109118134D01*
X110584431Y-109101393D01*
X110618409Y-109091085D01*
X110659890Y-109087000D01*
X111336110Y-109087000D01*
X111377591Y-109091085D01*
X111377591Y-109091085D01*
G37*
G36*
X91606823Y-107746313D02*
G01*
X91767242Y-107794976D01*
X91899906Y-107865886D01*
X91915078Y-107873996D01*
X92044659Y-107980341D01*
X92151004Y-108109922D01*
X92151005Y-108109924D01*
X92230024Y-108257758D01*
X92278687Y-108418177D01*
X92295117Y-108585000D01*
X92278687Y-108751823D01*
X92230024Y-108912242D01*
X92159114Y-109044906D01*
X92151004Y-109060078D01*
X92044659Y-109189659D01*
X91915078Y-109296004D01*
X91915076Y-109296005D01*
X91767242Y-109375024D01*
X91606823Y-109423687D01*
X91481804Y-109436000D01*
X91398196Y-109436000D01*
X91273177Y-109423687D01*
X91112758Y-109375024D01*
X90964924Y-109296005D01*
X90964922Y-109296004D01*
X90835341Y-109189659D01*
X90728996Y-109060078D01*
X90720886Y-109044906D01*
X90649976Y-108912242D01*
X90601313Y-108751823D01*
X90584883Y-108585000D01*
X90601313Y-108418177D01*
X90649976Y-108257758D01*
X90728995Y-108109924D01*
X90728996Y-108109922D01*
X90835341Y-107980341D01*
X90964922Y-107873996D01*
X90980094Y-107865886D01*
X91112758Y-107794976D01*
X91273177Y-107746313D01*
X91398196Y-107734000D01*
X91481804Y-107734000D01*
X91606823Y-107746313D01*
X91606823Y-107746313D01*
G37*
G36*
X106846823Y-107746313D02*
G01*
X107007242Y-107794976D01*
X107139906Y-107865886D01*
X107155078Y-107873996D01*
X107284659Y-107980341D01*
X107391004Y-108109922D01*
X107391005Y-108109924D01*
X107470024Y-108257758D01*
X107518687Y-108418177D01*
X107535117Y-108585000D01*
X107518687Y-108751823D01*
X107470024Y-108912242D01*
X107399114Y-109044906D01*
X107391004Y-109060078D01*
X107284659Y-109189659D01*
X107155078Y-109296004D01*
X107155076Y-109296005D01*
X107007242Y-109375024D01*
X106846823Y-109423687D01*
X106721804Y-109436000D01*
X106638196Y-109436000D01*
X106513177Y-109423687D01*
X106352758Y-109375024D01*
X106204924Y-109296005D01*
X106204922Y-109296004D01*
X106075341Y-109189659D01*
X105968996Y-109060078D01*
X105960886Y-109044906D01*
X105889976Y-108912242D01*
X105841313Y-108751823D01*
X105824883Y-108585000D01*
X105841313Y-108418177D01*
X105889976Y-108257758D01*
X105968995Y-108109924D01*
X105968996Y-108109922D01*
X106075341Y-107980341D01*
X106204922Y-107873996D01*
X106220094Y-107865886D01*
X106352758Y-107794976D01*
X106513177Y-107746313D01*
X106638196Y-107734000D01*
X106721804Y-107734000D01*
X106846823Y-107746313D01*
X106846823Y-107746313D01*
G37*
G36*
X127824591Y-108317085D02*
G01*
X127858569Y-108327393D01*
X127889890Y-108344134D01*
X127917339Y-108366661D01*
X127939866Y-108394110D01*
X127956607Y-108425431D01*
X127966915Y-108459409D01*
X127971000Y-108500890D01*
X127971000Y-109177110D01*
X127966915Y-109218591D01*
X127956607Y-109252569D01*
X127939866Y-109283890D01*
X127917339Y-109311339D01*
X127889890Y-109333866D01*
X127858569Y-109350607D01*
X127824591Y-109360915D01*
X127783110Y-109365000D01*
X127181890Y-109365000D01*
X127140409Y-109360915D01*
X127106431Y-109350607D01*
X127075110Y-109333866D01*
X127047661Y-109311339D01*
X127025134Y-109283890D01*
X127008393Y-109252569D01*
X126998085Y-109218591D01*
X126994000Y-109177110D01*
X126994000Y-108500890D01*
X126998085Y-108459409D01*
X127008393Y-108425431D01*
X127025134Y-108394110D01*
X127047661Y-108366661D01*
X127075110Y-108344134D01*
X127106431Y-108327393D01*
X127140409Y-108317085D01*
X127181890Y-108313000D01*
X127783110Y-108313000D01*
X127824591Y-108317085D01*
X127824591Y-108317085D01*
G37*
G36*
X129399591Y-108317085D02*
G01*
X129433569Y-108327393D01*
X129464890Y-108344134D01*
X129492339Y-108366661D01*
X129514866Y-108394110D01*
X129531607Y-108425431D01*
X129541915Y-108459409D01*
X129546000Y-108500890D01*
X129546000Y-109177110D01*
X129541915Y-109218591D01*
X129531607Y-109252569D01*
X129514866Y-109283890D01*
X129492339Y-109311339D01*
X129464890Y-109333866D01*
X129433569Y-109350607D01*
X129399591Y-109360915D01*
X129358110Y-109365000D01*
X128756890Y-109365000D01*
X128715409Y-109360915D01*
X128681431Y-109350607D01*
X128650110Y-109333866D01*
X128622661Y-109311339D01*
X128600134Y-109283890D01*
X128583393Y-109252569D01*
X128573085Y-109218591D01*
X128569000Y-109177110D01*
X128569000Y-108500890D01*
X128573085Y-108459409D01*
X128583393Y-108425431D01*
X128600134Y-108394110D01*
X128622661Y-108366661D01*
X128650110Y-108344134D01*
X128681431Y-108327393D01*
X128715409Y-108317085D01*
X128756890Y-108313000D01*
X129358110Y-108313000D01*
X129399591Y-108317085D01*
X129399591Y-108317085D01*
G37*
G36*
X174115591Y-107567085D02*
G01*
X174149569Y-107577393D01*
X174180890Y-107594134D01*
X174208339Y-107616661D01*
X174230866Y-107644110D01*
X174247607Y-107675431D01*
X174257915Y-107709409D01*
X174262000Y-107750890D01*
X174262000Y-108352110D01*
X174257915Y-108393591D01*
X174247607Y-108427569D01*
X174230866Y-108458890D01*
X174208339Y-108486339D01*
X174180890Y-108508866D01*
X174149569Y-108525607D01*
X174115591Y-108535915D01*
X174074110Y-108540000D01*
X173397890Y-108540000D01*
X173356409Y-108535915D01*
X173322431Y-108525607D01*
X173291110Y-108508866D01*
X173263661Y-108486339D01*
X173241134Y-108458890D01*
X173224393Y-108427569D01*
X173214085Y-108393591D01*
X173210000Y-108352110D01*
X173210000Y-107750890D01*
X173214085Y-107709409D01*
X173224393Y-107675431D01*
X173241134Y-107644110D01*
X173263661Y-107616661D01*
X173291110Y-107594134D01*
X173322431Y-107577393D01*
X173356409Y-107567085D01*
X173397890Y-107563000D01*
X174074110Y-107563000D01*
X174115591Y-107567085D01*
X174115591Y-107567085D01*
G37*
G36*
X166495591Y-107567085D02*
G01*
X166529569Y-107577393D01*
X166560890Y-107594134D01*
X166588339Y-107616661D01*
X166610866Y-107644110D01*
X166627607Y-107675431D01*
X166637915Y-107709409D01*
X166642000Y-107750890D01*
X166642000Y-108352110D01*
X166637915Y-108393591D01*
X166627607Y-108427569D01*
X166610866Y-108458890D01*
X166588339Y-108486339D01*
X166560890Y-108508866D01*
X166529569Y-108525607D01*
X166495591Y-108535915D01*
X166454110Y-108540000D01*
X165777890Y-108540000D01*
X165736409Y-108535915D01*
X165702431Y-108525607D01*
X165671110Y-108508866D01*
X165643661Y-108486339D01*
X165621134Y-108458890D01*
X165604393Y-108427569D01*
X165594085Y-108393591D01*
X165590000Y-108352110D01*
X165590000Y-107750890D01*
X165594085Y-107709409D01*
X165604393Y-107675431D01*
X165621134Y-107644110D01*
X165643661Y-107616661D01*
X165671110Y-107594134D01*
X165702431Y-107577393D01*
X165736409Y-107567085D01*
X165777890Y-107563000D01*
X166454110Y-107563000D01*
X166495591Y-107567085D01*
X166495591Y-107567085D01*
G37*
G36*
X91606823Y-105206313D02*
G01*
X91767242Y-105254976D01*
X91899906Y-105325886D01*
X91915078Y-105333996D01*
X92044659Y-105440341D01*
X92151004Y-105569922D01*
X92151005Y-105569924D01*
X92230024Y-105717758D01*
X92278687Y-105878177D01*
X92295117Y-106045000D01*
X92278687Y-106211823D01*
X92230024Y-106372242D01*
X92159114Y-106504906D01*
X92151004Y-106520078D01*
X92044659Y-106649659D01*
X91915078Y-106756004D01*
X91915076Y-106756005D01*
X91767242Y-106835024D01*
X91606823Y-106883687D01*
X91481804Y-106896000D01*
X91398196Y-106896000D01*
X91273177Y-106883687D01*
X91112758Y-106835024D01*
X90964924Y-106756005D01*
X90964922Y-106756004D01*
X90835341Y-106649659D01*
X90728996Y-106520078D01*
X90720886Y-106504906D01*
X90649976Y-106372242D01*
X90601313Y-106211823D01*
X90584883Y-106045000D01*
X90601313Y-105878177D01*
X90649976Y-105717758D01*
X90728995Y-105569924D01*
X90728996Y-105569922D01*
X90835341Y-105440341D01*
X90964922Y-105333996D01*
X90980094Y-105325886D01*
X91112758Y-105254976D01*
X91273177Y-105206313D01*
X91398196Y-105194000D01*
X91481804Y-105194000D01*
X91606823Y-105206313D01*
X91606823Y-105206313D01*
G37*
G36*
X106846823Y-105206313D02*
G01*
X107007242Y-105254976D01*
X107139906Y-105325886D01*
X107155078Y-105333996D01*
X107284659Y-105440341D01*
X107391004Y-105569922D01*
X107391005Y-105569924D01*
X107470024Y-105717758D01*
X107518687Y-105878177D01*
X107535117Y-106045000D01*
X107518687Y-106211823D01*
X107470024Y-106372242D01*
X107399114Y-106504906D01*
X107391004Y-106520078D01*
X107284659Y-106649659D01*
X107155078Y-106756004D01*
X107155076Y-106756005D01*
X107007242Y-106835024D01*
X106846823Y-106883687D01*
X106721804Y-106896000D01*
X106638196Y-106896000D01*
X106513177Y-106883687D01*
X106352758Y-106835024D01*
X106204924Y-106756005D01*
X106204922Y-106756004D01*
X106075341Y-106649659D01*
X105968996Y-106520078D01*
X105960886Y-106504906D01*
X105889976Y-106372242D01*
X105841313Y-106211823D01*
X105824883Y-106045000D01*
X105841313Y-105878177D01*
X105889976Y-105717758D01*
X105968995Y-105569924D01*
X105968996Y-105569922D01*
X106075341Y-105440341D01*
X106204922Y-105333996D01*
X106220094Y-105325886D01*
X106352758Y-105254976D01*
X106513177Y-105206313D01*
X106638196Y-105194000D01*
X106721804Y-105194000D01*
X106846823Y-105206313D01*
X106846823Y-105206313D01*
G37*
G36*
X106846823Y-102666313D02*
G01*
X107007242Y-102714976D01*
X107139906Y-102785886D01*
X107155078Y-102793996D01*
X107284659Y-102900341D01*
X107391004Y-103029922D01*
X107391005Y-103029924D01*
X107470024Y-103177758D01*
X107518687Y-103338177D01*
X107535117Y-103505000D01*
X107518687Y-103671823D01*
X107470024Y-103832242D01*
X107399114Y-103964906D01*
X107391004Y-103980078D01*
X107284659Y-104109659D01*
X107155078Y-104216004D01*
X107155076Y-104216005D01*
X107007242Y-104295024D01*
X106846823Y-104343687D01*
X106721804Y-104356000D01*
X106638196Y-104356000D01*
X106513177Y-104343687D01*
X106352758Y-104295024D01*
X106204924Y-104216005D01*
X106204922Y-104216004D01*
X106075341Y-104109659D01*
X105968996Y-103980078D01*
X105960886Y-103964906D01*
X105889976Y-103832242D01*
X105841313Y-103671823D01*
X105824883Y-103505000D01*
X105841313Y-103338177D01*
X105889976Y-103177758D01*
X105968995Y-103029924D01*
X105968996Y-103029922D01*
X106075341Y-102900341D01*
X106204922Y-102793996D01*
X106220094Y-102785886D01*
X106352758Y-102714976D01*
X106513177Y-102666313D01*
X106638196Y-102654000D01*
X106721804Y-102654000D01*
X106846823Y-102666313D01*
X106846823Y-102666313D01*
G37*
G36*
X92291000Y-104356000D02*
G01*
X90589000Y-104356000D01*
X90589000Y-102654000D01*
X92291000Y-102654000D01*
X92291000Y-104356000D01*
X92291000Y-104356000D01*
G37*
G36*
X168842424Y-99881760D02*
G01*
X168842427Y-99881761D01*
X168842428Y-99881761D01*
X169021692Y-99936140D01*
X169021695Y-99936142D01*
X169021696Y-99936142D01*
X169186903Y-100024446D01*
X169331712Y-100143288D01*
X169450554Y-100288097D01*
X169538858Y-100453303D01*
X169538860Y-100453307D01*
X169538860Y-100453308D01*
X169593240Y-100632575D01*
X169607000Y-100772282D01*
X169607000Y-101665717D01*
X169593240Y-101805426D01*
X169538859Y-101984695D01*
X169450554Y-102149903D01*
X169331712Y-102294712D01*
X169186903Y-102413554D01*
X169021697Y-102501858D01*
X169021693Y-102501860D01*
X168842429Y-102556239D01*
X168842428Y-102556239D01*
X168842425Y-102556240D01*
X168656000Y-102574601D01*
X168469576Y-102556240D01*
X168469573Y-102556239D01*
X168469572Y-102556239D01*
X168290308Y-102501860D01*
X168290304Y-102501858D01*
X168125098Y-102413554D01*
X167980289Y-102294712D01*
X167861447Y-102149903D01*
X167773140Y-101984692D01*
X167718760Y-101805430D01*
X167705000Y-101665718D01*
X167705000Y-100772283D01*
X167718760Y-100632576D01*
X167718761Y-100632572D01*
X167773140Y-100453308D01*
X167773143Y-100453303D01*
X167861446Y-100288097D01*
X167980288Y-100143288D01*
X168125097Y-100024446D01*
X168290303Y-99936142D01*
X168290304Y-99936142D01*
X168290307Y-99936140D01*
X168469571Y-99881761D01*
X168469572Y-99881761D01*
X168469575Y-99881760D01*
X168656000Y-99863399D01*
X168842424Y-99881760D01*
X168842424Y-99881760D01*
G37*
G36*
X173922424Y-99881760D02*
G01*
X173922427Y-99881761D01*
X173922428Y-99881761D01*
X174101692Y-99936140D01*
X174101695Y-99936142D01*
X174101696Y-99936142D01*
X174266903Y-100024446D01*
X174411712Y-100143288D01*
X174530554Y-100288097D01*
X174618858Y-100453303D01*
X174618860Y-100453307D01*
X174618860Y-100453308D01*
X174673240Y-100632575D01*
X174687000Y-100772282D01*
X174687000Y-101665717D01*
X174673240Y-101805426D01*
X174618859Y-101984695D01*
X174530554Y-102149903D01*
X174411712Y-102294712D01*
X174266903Y-102413554D01*
X174101697Y-102501858D01*
X174101693Y-102501860D01*
X173922429Y-102556239D01*
X173922428Y-102556239D01*
X173922425Y-102556240D01*
X173736000Y-102574601D01*
X173549576Y-102556240D01*
X173549573Y-102556239D01*
X173549572Y-102556239D01*
X173370308Y-102501860D01*
X173370304Y-102501858D01*
X173205098Y-102413554D01*
X173060289Y-102294712D01*
X172941447Y-102149903D01*
X172853140Y-101984692D01*
X172798760Y-101805430D01*
X172785000Y-101665718D01*
X172785000Y-100772283D01*
X172798760Y-100632576D01*
X172798761Y-100632572D01*
X172853140Y-100453308D01*
X172853143Y-100453303D01*
X172941446Y-100288097D01*
X173060288Y-100143288D01*
X173205097Y-100024446D01*
X173370303Y-99936142D01*
X173370304Y-99936142D01*
X173370307Y-99936140D01*
X173549571Y-99881761D01*
X173549572Y-99881761D01*
X173549575Y-99881760D01*
X173736000Y-99863399D01*
X173922424Y-99881760D01*
X173922424Y-99881760D01*
G37*
G36*
X138362424Y-99881760D02*
G01*
X138362427Y-99881761D01*
X138362428Y-99881761D01*
X138541692Y-99936140D01*
X138541695Y-99936142D01*
X138541696Y-99936142D01*
X138706903Y-100024446D01*
X138851712Y-100143288D01*
X138970554Y-100288097D01*
X139058858Y-100453303D01*
X139058860Y-100453307D01*
X139058860Y-100453308D01*
X139113240Y-100632575D01*
X139127000Y-100772282D01*
X139127000Y-101665717D01*
X139113240Y-101805426D01*
X139058859Y-101984695D01*
X138970554Y-102149903D01*
X138851712Y-102294712D01*
X138706903Y-102413554D01*
X138541697Y-102501858D01*
X138541693Y-102501860D01*
X138362429Y-102556239D01*
X138362428Y-102556239D01*
X138362425Y-102556240D01*
X138176000Y-102574601D01*
X137989576Y-102556240D01*
X137989573Y-102556239D01*
X137989572Y-102556239D01*
X137810308Y-102501860D01*
X137810304Y-102501858D01*
X137645098Y-102413554D01*
X137500289Y-102294712D01*
X137381447Y-102149903D01*
X137293140Y-101984692D01*
X137238760Y-101805430D01*
X137225000Y-101665718D01*
X137225000Y-100772283D01*
X137238760Y-100632576D01*
X137238761Y-100632572D01*
X137293140Y-100453308D01*
X137293143Y-100453303D01*
X137381446Y-100288097D01*
X137500288Y-100143288D01*
X137645097Y-100024446D01*
X137810303Y-99936142D01*
X137810304Y-99936142D01*
X137810307Y-99936140D01*
X137989571Y-99881761D01*
X137989572Y-99881761D01*
X137989575Y-99881760D01*
X138176000Y-99863399D01*
X138362424Y-99881760D01*
X138362424Y-99881760D01*
G37*
G36*
X140902424Y-99881760D02*
G01*
X140902427Y-99881761D01*
X140902428Y-99881761D01*
X141081692Y-99936140D01*
X141081695Y-99936142D01*
X141081696Y-99936142D01*
X141246903Y-100024446D01*
X141391712Y-100143288D01*
X141510554Y-100288097D01*
X141598858Y-100453303D01*
X141598860Y-100453307D01*
X141598860Y-100453308D01*
X141653240Y-100632575D01*
X141667000Y-100772282D01*
X141667000Y-101665717D01*
X141653240Y-101805426D01*
X141598859Y-101984695D01*
X141510554Y-102149903D01*
X141391712Y-102294712D01*
X141246903Y-102413554D01*
X141081697Y-102501858D01*
X141081693Y-102501860D01*
X140902429Y-102556239D01*
X140902428Y-102556239D01*
X140902425Y-102556240D01*
X140716000Y-102574601D01*
X140529576Y-102556240D01*
X140529573Y-102556239D01*
X140529572Y-102556239D01*
X140350308Y-102501860D01*
X140350304Y-102501858D01*
X140185098Y-102413554D01*
X140040289Y-102294712D01*
X139921447Y-102149903D01*
X139833140Y-101984692D01*
X139778760Y-101805430D01*
X139765000Y-101665718D01*
X139765000Y-100772283D01*
X139778760Y-100632576D01*
X139778761Y-100632572D01*
X139833140Y-100453308D01*
X139833143Y-100453303D01*
X139921446Y-100288097D01*
X140040288Y-100143288D01*
X140185097Y-100024446D01*
X140350303Y-99936142D01*
X140350304Y-99936142D01*
X140350307Y-99936140D01*
X140529571Y-99881761D01*
X140529572Y-99881761D01*
X140529575Y-99881760D01*
X140716000Y-99863399D01*
X140902424Y-99881760D01*
X140902424Y-99881760D01*
G37*
G36*
X143442424Y-99881760D02*
G01*
X143442427Y-99881761D01*
X143442428Y-99881761D01*
X143621692Y-99936140D01*
X143621695Y-99936142D01*
X143621696Y-99936142D01*
X143786903Y-100024446D01*
X143931712Y-100143288D01*
X144050554Y-100288097D01*
X144138858Y-100453303D01*
X144138860Y-100453307D01*
X144138860Y-100453308D01*
X144193240Y-100632575D01*
X144207000Y-100772282D01*
X144207000Y-101665717D01*
X144193240Y-101805426D01*
X144138859Y-101984695D01*
X144050554Y-102149903D01*
X143931712Y-102294712D01*
X143786903Y-102413554D01*
X143621697Y-102501858D01*
X143621693Y-102501860D01*
X143442429Y-102556239D01*
X143442428Y-102556239D01*
X143442425Y-102556240D01*
X143256000Y-102574601D01*
X143069576Y-102556240D01*
X143069573Y-102556239D01*
X143069572Y-102556239D01*
X142890308Y-102501860D01*
X142890304Y-102501858D01*
X142725098Y-102413554D01*
X142580289Y-102294712D01*
X142461447Y-102149903D01*
X142373140Y-101984692D01*
X142318760Y-101805430D01*
X142305000Y-101665718D01*
X142305000Y-100772283D01*
X142318760Y-100632576D01*
X142318761Y-100632572D01*
X142373140Y-100453308D01*
X142373143Y-100453303D01*
X142461446Y-100288097D01*
X142580288Y-100143288D01*
X142725097Y-100024446D01*
X142890303Y-99936142D01*
X142890304Y-99936142D01*
X142890307Y-99936140D01*
X143069571Y-99881761D01*
X143069572Y-99881761D01*
X143069575Y-99881760D01*
X143256000Y-99863399D01*
X143442424Y-99881760D01*
X143442424Y-99881760D01*
G37*
G36*
X145982424Y-99881760D02*
G01*
X145982427Y-99881761D01*
X145982428Y-99881761D01*
X146161692Y-99936140D01*
X146161695Y-99936142D01*
X146161696Y-99936142D01*
X146326903Y-100024446D01*
X146471712Y-100143288D01*
X146590554Y-100288097D01*
X146678858Y-100453303D01*
X146678860Y-100453307D01*
X146678860Y-100453308D01*
X146733240Y-100632575D01*
X146747000Y-100772282D01*
X146747000Y-101665717D01*
X146733240Y-101805426D01*
X146678859Y-101984695D01*
X146590554Y-102149903D01*
X146471712Y-102294712D01*
X146326903Y-102413554D01*
X146161697Y-102501858D01*
X146161693Y-102501860D01*
X145982429Y-102556239D01*
X145982428Y-102556239D01*
X145982425Y-102556240D01*
X145796000Y-102574601D01*
X145609576Y-102556240D01*
X145609573Y-102556239D01*
X145609572Y-102556239D01*
X145430308Y-102501860D01*
X145430304Y-102501858D01*
X145265098Y-102413554D01*
X145120289Y-102294712D01*
X145001447Y-102149903D01*
X144913140Y-101984692D01*
X144858760Y-101805430D01*
X144845000Y-101665718D01*
X144845000Y-100772283D01*
X144858760Y-100632576D01*
X144858761Y-100632572D01*
X144913140Y-100453308D01*
X144913143Y-100453303D01*
X145001446Y-100288097D01*
X145120288Y-100143288D01*
X145265097Y-100024446D01*
X145430303Y-99936142D01*
X145430304Y-99936142D01*
X145430307Y-99936140D01*
X145609571Y-99881761D01*
X145609572Y-99881761D01*
X145609575Y-99881760D01*
X145796000Y-99863399D01*
X145982424Y-99881760D01*
X145982424Y-99881760D01*
G37*
G36*
X148522424Y-99881760D02*
G01*
X148522427Y-99881761D01*
X148522428Y-99881761D01*
X148701692Y-99936140D01*
X148701695Y-99936142D01*
X148701696Y-99936142D01*
X148866903Y-100024446D01*
X149011712Y-100143288D01*
X149130554Y-100288097D01*
X149218858Y-100453303D01*
X149218860Y-100453307D01*
X149218860Y-100453308D01*
X149273240Y-100632575D01*
X149287000Y-100772282D01*
X149287000Y-101665717D01*
X149273240Y-101805426D01*
X149218859Y-101984695D01*
X149130554Y-102149903D01*
X149011712Y-102294712D01*
X148866903Y-102413554D01*
X148701697Y-102501858D01*
X148701693Y-102501860D01*
X148522429Y-102556239D01*
X148522428Y-102556239D01*
X148522425Y-102556240D01*
X148336000Y-102574601D01*
X148149576Y-102556240D01*
X148149573Y-102556239D01*
X148149572Y-102556239D01*
X147970308Y-102501860D01*
X147970304Y-102501858D01*
X147805098Y-102413554D01*
X147660289Y-102294712D01*
X147541447Y-102149903D01*
X147453140Y-101984692D01*
X147398760Y-101805430D01*
X147385000Y-101665718D01*
X147385000Y-100772283D01*
X147398760Y-100632576D01*
X147398761Y-100632572D01*
X147453140Y-100453308D01*
X147453143Y-100453303D01*
X147541446Y-100288097D01*
X147660288Y-100143288D01*
X147805097Y-100024446D01*
X147970303Y-99936142D01*
X147970304Y-99936142D01*
X147970307Y-99936140D01*
X148149571Y-99881761D01*
X148149572Y-99881761D01*
X148149575Y-99881760D01*
X148336000Y-99863399D01*
X148522424Y-99881760D01*
X148522424Y-99881760D01*
G37*
G36*
X151062424Y-99881760D02*
G01*
X151062427Y-99881761D01*
X151062428Y-99881761D01*
X151241692Y-99936140D01*
X151241695Y-99936142D01*
X151241696Y-99936142D01*
X151406903Y-100024446D01*
X151551712Y-100143288D01*
X151670554Y-100288097D01*
X151758858Y-100453303D01*
X151758860Y-100453307D01*
X151758860Y-100453308D01*
X151813240Y-100632575D01*
X151827000Y-100772282D01*
X151827000Y-101665717D01*
X151813240Y-101805426D01*
X151758859Y-101984695D01*
X151670554Y-102149903D01*
X151551712Y-102294712D01*
X151406903Y-102413554D01*
X151241697Y-102501858D01*
X151241693Y-102501860D01*
X151062429Y-102556239D01*
X151062428Y-102556239D01*
X151062425Y-102556240D01*
X150876000Y-102574601D01*
X150689576Y-102556240D01*
X150689573Y-102556239D01*
X150689572Y-102556239D01*
X150510308Y-102501860D01*
X150510304Y-102501858D01*
X150345098Y-102413554D01*
X150200289Y-102294712D01*
X150081447Y-102149903D01*
X149993140Y-101984692D01*
X149938760Y-101805430D01*
X149925000Y-101665718D01*
X149925000Y-100772283D01*
X149938760Y-100632576D01*
X149938761Y-100632572D01*
X149993140Y-100453308D01*
X149993143Y-100453303D01*
X150081446Y-100288097D01*
X150200288Y-100143288D01*
X150345097Y-100024446D01*
X150510303Y-99936142D01*
X150510304Y-99936142D01*
X150510307Y-99936140D01*
X150689571Y-99881761D01*
X150689572Y-99881761D01*
X150689575Y-99881760D01*
X150876000Y-99863399D01*
X151062424Y-99881760D01*
X151062424Y-99881760D01*
G37*
G36*
X153602424Y-99881760D02*
G01*
X153602427Y-99881761D01*
X153602428Y-99881761D01*
X153781692Y-99936140D01*
X153781695Y-99936142D01*
X153781696Y-99936142D01*
X153946903Y-100024446D01*
X154091712Y-100143288D01*
X154210554Y-100288097D01*
X154298858Y-100453303D01*
X154298860Y-100453307D01*
X154298860Y-100453308D01*
X154353240Y-100632575D01*
X154367000Y-100772282D01*
X154367000Y-101665717D01*
X154353240Y-101805426D01*
X154298859Y-101984695D01*
X154210554Y-102149903D01*
X154091712Y-102294712D01*
X153946903Y-102413554D01*
X153781697Y-102501858D01*
X153781693Y-102501860D01*
X153602429Y-102556239D01*
X153602428Y-102556239D01*
X153602425Y-102556240D01*
X153416000Y-102574601D01*
X153229576Y-102556240D01*
X153229573Y-102556239D01*
X153229572Y-102556239D01*
X153050308Y-102501860D01*
X153050304Y-102501858D01*
X152885098Y-102413554D01*
X152740289Y-102294712D01*
X152621447Y-102149903D01*
X152533140Y-101984692D01*
X152478760Y-101805430D01*
X152465000Y-101665718D01*
X152465000Y-100772283D01*
X152478760Y-100632576D01*
X152478761Y-100632572D01*
X152533140Y-100453308D01*
X152533143Y-100453303D01*
X152621446Y-100288097D01*
X152740288Y-100143288D01*
X152885097Y-100024446D01*
X153050303Y-99936142D01*
X153050304Y-99936142D01*
X153050307Y-99936140D01*
X153229571Y-99881761D01*
X153229572Y-99881761D01*
X153229575Y-99881760D01*
X153416000Y-99863399D01*
X153602424Y-99881760D01*
X153602424Y-99881760D01*
G37*
G36*
X156142424Y-99881760D02*
G01*
X156142427Y-99881761D01*
X156142428Y-99881761D01*
X156321692Y-99936140D01*
X156321695Y-99936142D01*
X156321696Y-99936142D01*
X156486903Y-100024446D01*
X156631712Y-100143288D01*
X156750554Y-100288097D01*
X156838858Y-100453303D01*
X156838860Y-100453307D01*
X156838860Y-100453308D01*
X156893240Y-100632575D01*
X156907000Y-100772282D01*
X156907000Y-101665717D01*
X156893240Y-101805426D01*
X156838859Y-101984695D01*
X156750554Y-102149903D01*
X156631712Y-102294712D01*
X156486903Y-102413554D01*
X156321697Y-102501858D01*
X156321693Y-102501860D01*
X156142429Y-102556239D01*
X156142428Y-102556239D01*
X156142425Y-102556240D01*
X155956000Y-102574601D01*
X155769576Y-102556240D01*
X155769573Y-102556239D01*
X155769572Y-102556239D01*
X155590308Y-102501860D01*
X155590304Y-102501858D01*
X155425098Y-102413554D01*
X155280289Y-102294712D01*
X155161447Y-102149903D01*
X155073140Y-101984692D01*
X155018760Y-101805430D01*
X155005000Y-101665718D01*
X155005000Y-100772283D01*
X155018760Y-100632576D01*
X155018761Y-100632572D01*
X155073140Y-100453308D01*
X155073143Y-100453303D01*
X155161446Y-100288097D01*
X155280288Y-100143288D01*
X155425097Y-100024446D01*
X155590303Y-99936142D01*
X155590304Y-99936142D01*
X155590307Y-99936140D01*
X155769571Y-99881761D01*
X155769572Y-99881761D01*
X155769575Y-99881760D01*
X155956000Y-99863399D01*
X156142424Y-99881760D01*
X156142424Y-99881760D01*
G37*
G36*
X158682424Y-99881760D02*
G01*
X158682427Y-99881761D01*
X158682428Y-99881761D01*
X158861692Y-99936140D01*
X158861695Y-99936142D01*
X158861696Y-99936142D01*
X159026903Y-100024446D01*
X159171712Y-100143288D01*
X159290554Y-100288097D01*
X159378858Y-100453303D01*
X159378860Y-100453307D01*
X159378860Y-100453308D01*
X159433240Y-100632575D01*
X159447000Y-100772282D01*
X159447000Y-101665717D01*
X159433240Y-101805426D01*
X159378859Y-101984695D01*
X159290554Y-102149903D01*
X159171712Y-102294712D01*
X159026903Y-102413554D01*
X158861697Y-102501858D01*
X158861693Y-102501860D01*
X158682429Y-102556239D01*
X158682428Y-102556239D01*
X158682425Y-102556240D01*
X158496000Y-102574601D01*
X158309576Y-102556240D01*
X158309573Y-102556239D01*
X158309572Y-102556239D01*
X158130308Y-102501860D01*
X158130304Y-102501858D01*
X157965098Y-102413554D01*
X157820289Y-102294712D01*
X157701447Y-102149903D01*
X157613140Y-101984692D01*
X157558760Y-101805430D01*
X157545000Y-101665718D01*
X157545000Y-100772283D01*
X157558760Y-100632576D01*
X157558761Y-100632572D01*
X157613140Y-100453308D01*
X157613143Y-100453303D01*
X157701446Y-100288097D01*
X157820288Y-100143288D01*
X157965097Y-100024446D01*
X158130303Y-99936142D01*
X158130304Y-99936142D01*
X158130307Y-99936140D01*
X158309571Y-99881761D01*
X158309572Y-99881761D01*
X158309575Y-99881760D01*
X158496000Y-99863399D01*
X158682424Y-99881760D01*
X158682424Y-99881760D01*
G37*
G36*
X161222424Y-99881760D02*
G01*
X161222427Y-99881761D01*
X161222428Y-99881761D01*
X161401692Y-99936140D01*
X161401695Y-99936142D01*
X161401696Y-99936142D01*
X161566903Y-100024446D01*
X161711712Y-100143288D01*
X161830554Y-100288097D01*
X161918858Y-100453303D01*
X161918860Y-100453307D01*
X161918860Y-100453308D01*
X161973240Y-100632575D01*
X161987000Y-100772282D01*
X161987000Y-101665717D01*
X161973240Y-101805426D01*
X161918859Y-101984695D01*
X161830554Y-102149903D01*
X161711712Y-102294712D01*
X161566903Y-102413554D01*
X161401697Y-102501858D01*
X161401693Y-102501860D01*
X161222429Y-102556239D01*
X161222428Y-102556239D01*
X161222425Y-102556240D01*
X161036000Y-102574601D01*
X160849576Y-102556240D01*
X160849573Y-102556239D01*
X160849572Y-102556239D01*
X160670308Y-102501860D01*
X160670304Y-102501858D01*
X160505098Y-102413554D01*
X160360289Y-102294712D01*
X160241447Y-102149903D01*
X160153140Y-101984692D01*
X160098760Y-101805430D01*
X160085000Y-101665718D01*
X160085000Y-100772283D01*
X160098760Y-100632576D01*
X160098761Y-100632572D01*
X160153140Y-100453308D01*
X160153143Y-100453303D01*
X160241446Y-100288097D01*
X160360288Y-100143288D01*
X160505097Y-100024446D01*
X160670303Y-99936142D01*
X160670304Y-99936142D01*
X160670307Y-99936140D01*
X160849571Y-99881761D01*
X160849572Y-99881761D01*
X160849575Y-99881760D01*
X161036000Y-99863399D01*
X161222424Y-99881760D01*
X161222424Y-99881760D01*
G37*
G36*
X163762424Y-99881760D02*
G01*
X163762427Y-99881761D01*
X163762428Y-99881761D01*
X163941692Y-99936140D01*
X163941695Y-99936142D01*
X163941696Y-99936142D01*
X164106903Y-100024446D01*
X164251712Y-100143288D01*
X164370554Y-100288097D01*
X164458858Y-100453303D01*
X164458860Y-100453307D01*
X164458860Y-100453308D01*
X164513240Y-100632575D01*
X164527000Y-100772282D01*
X164527000Y-101665717D01*
X164513240Y-101805426D01*
X164458859Y-101984695D01*
X164370554Y-102149903D01*
X164251712Y-102294712D01*
X164106903Y-102413554D01*
X163941697Y-102501858D01*
X163941693Y-102501860D01*
X163762429Y-102556239D01*
X163762428Y-102556239D01*
X163762425Y-102556240D01*
X163576000Y-102574601D01*
X163389576Y-102556240D01*
X163389573Y-102556239D01*
X163389572Y-102556239D01*
X163210308Y-102501860D01*
X163210304Y-102501858D01*
X163045098Y-102413554D01*
X162900289Y-102294712D01*
X162781447Y-102149903D01*
X162693140Y-101984692D01*
X162638760Y-101805430D01*
X162625000Y-101665718D01*
X162625000Y-100772283D01*
X162638760Y-100632576D01*
X162638761Y-100632572D01*
X162693140Y-100453308D01*
X162693143Y-100453303D01*
X162781446Y-100288097D01*
X162900288Y-100143288D01*
X163045097Y-100024446D01*
X163210303Y-99936142D01*
X163210304Y-99936142D01*
X163210307Y-99936140D01*
X163389571Y-99881761D01*
X163389572Y-99881761D01*
X163389575Y-99881760D01*
X163576000Y-99863399D01*
X163762424Y-99881760D01*
X163762424Y-99881760D01*
G37*
G36*
X166302424Y-99881760D02*
G01*
X166302427Y-99881761D01*
X166302428Y-99881761D01*
X166481692Y-99936140D01*
X166481695Y-99936142D01*
X166481696Y-99936142D01*
X166646903Y-100024446D01*
X166791712Y-100143288D01*
X166910554Y-100288097D01*
X166998858Y-100453303D01*
X166998860Y-100453307D01*
X166998860Y-100453308D01*
X167053240Y-100632575D01*
X167067000Y-100772282D01*
X167067000Y-101665717D01*
X167053240Y-101805426D01*
X166998859Y-101984695D01*
X166910554Y-102149903D01*
X166791712Y-102294712D01*
X166646903Y-102413554D01*
X166481697Y-102501858D01*
X166481693Y-102501860D01*
X166302429Y-102556239D01*
X166302428Y-102556239D01*
X166302425Y-102556240D01*
X166116000Y-102574601D01*
X165929576Y-102556240D01*
X165929573Y-102556239D01*
X165929572Y-102556239D01*
X165750308Y-102501860D01*
X165750304Y-102501858D01*
X165585098Y-102413554D01*
X165440289Y-102294712D01*
X165321447Y-102149903D01*
X165233140Y-101984692D01*
X165178760Y-101805430D01*
X165165000Y-101665718D01*
X165165000Y-100772283D01*
X165178760Y-100632576D01*
X165178761Y-100632572D01*
X165233140Y-100453308D01*
X165233143Y-100453303D01*
X165321446Y-100288097D01*
X165440288Y-100143288D01*
X165585097Y-100024446D01*
X165750303Y-99936142D01*
X165750304Y-99936142D01*
X165750307Y-99936140D01*
X165929571Y-99881761D01*
X165929572Y-99881761D01*
X165929575Y-99881760D01*
X166116000Y-99863399D01*
X166302424Y-99881760D01*
X166302424Y-99881760D01*
G37*
G36*
X171382424Y-99881760D02*
G01*
X171382427Y-99881761D01*
X171382428Y-99881761D01*
X171561692Y-99936140D01*
X171561695Y-99936142D01*
X171561696Y-99936142D01*
X171726903Y-100024446D01*
X171871712Y-100143288D01*
X171990554Y-100288097D01*
X172078858Y-100453303D01*
X172078860Y-100453307D01*
X172078860Y-100453308D01*
X172133240Y-100632575D01*
X172147000Y-100772282D01*
X172147000Y-101665717D01*
X172133240Y-101805426D01*
X172078859Y-101984695D01*
X171990554Y-102149903D01*
X171871712Y-102294712D01*
X171726903Y-102413554D01*
X171561697Y-102501858D01*
X171561693Y-102501860D01*
X171382429Y-102556239D01*
X171382428Y-102556239D01*
X171382425Y-102556240D01*
X171196000Y-102574601D01*
X171009576Y-102556240D01*
X171009573Y-102556239D01*
X171009572Y-102556239D01*
X170830308Y-102501860D01*
X170830304Y-102501858D01*
X170665098Y-102413554D01*
X170520289Y-102294712D01*
X170401447Y-102149903D01*
X170313140Y-101984692D01*
X170258760Y-101805430D01*
X170245000Y-101665718D01*
X170245000Y-100772283D01*
X170258760Y-100632576D01*
X170258761Y-100632572D01*
X170313140Y-100453308D01*
X170313143Y-100453303D01*
X170401446Y-100288097D01*
X170520288Y-100143288D01*
X170665097Y-100024446D01*
X170830303Y-99936142D01*
X170830304Y-99936142D01*
X170830307Y-99936140D01*
X171009571Y-99881761D01*
X171009572Y-99881761D01*
X171009575Y-99881760D01*
X171196000Y-99863399D01*
X171382424Y-99881760D01*
X171382424Y-99881760D01*
G37*
G36*
X177227000Y-102570000D02*
G01*
X175325000Y-102570000D01*
X175325000Y-99868000D01*
X177227000Y-99868000D01*
X177227000Y-102570000D01*
X177227000Y-102570000D01*
G37*
M02*
