M48
INCH,TZ
T1C0.0157
T2C0.0315
T3C0.0394
T4C0.0433
T5C0.0472
T6C0.0591
T7C0.2402
%
G90
G05
T1
X46200Y-50050
X47800Y-46050
X48600Y-46450
X49000Y-50050
X49400Y-47050
X49400Y-47750
X49400Y-48450
X50200Y-48950
X54900Y-46050
X59300Y-43750
T2
X36000Y-40750
X36000Y-41750
X36000Y-42750
X36000Y-43750
X36000Y-44750
X36000Y-45750
X36000Y-46750
X36000Y-47750
X36000Y-48750
X36000Y-49750
X36000Y-50750
X36000Y-51750
X36000Y-52750
X36000Y-53750
X36000Y-54750
X42000Y-40750
X42000Y-41750
X42000Y-42750
X42000Y-43750
X42000Y-44750
X42000Y-45750
X42000Y-46750
X42000Y-47750
X42000Y-48750
X42000Y-49750
X42000Y-50750
X42000Y-51750
X42000Y-52750
X42000Y-53750
X42000Y-54750
X60800Y-49050
X68800Y-49050
T3
X43700Y-53650
X43700Y-54634
X43700Y-55619
X49409Y-53650
X49409Y-55619
T4
X64600Y-54050
X65600Y-54050
X71500Y-47000
X71500Y-48000
X71500Y-49000
T5
X54400Y-39850
X55400Y-39850
X56400Y-39850
X57400Y-39850
X58400Y-39850
X59400Y-39850
X60400Y-39850
X61400Y-39850
X62400Y-39850
X63400Y-39850
X64400Y-39850
X65400Y-39850
X66400Y-39850
X67400Y-39850
X68400Y-39850
X69400Y-39850
T7
X59101Y-54650
X70900Y-54650
T6
G00X46397Y-52430
M15
G01X46909Y-52430
M16
G05
G00X46397Y-56839
M15
G01X46909Y-56839
M16
G05
T0
M30
